<svg width="16" height="16" viewBox="0 0 16 16" fill="none" xmlns="http://www.w3.org/2000/svg">
<g clip-path="url(#clip0_1012_17426)">
<path d="M11.4451 4.20732C11.1899 3.93893 10.7777 3.93893 10.5225 4.20732L6.83211 8.08861L7.75471 9.05893L11.4451 5.17076C11.6937 4.90925 11.6937 4.46883 11.4451 4.20732ZM14.2194 4.20044L7.75471 10.9996L5.47766 8.61162C5.22248 8.34323 4.81025 8.34323 4.55507 8.61162C4.29988 8.88 4.29988 9.31355 4.55507 9.58194L7.29014 12.4585C7.54533 12.7269 7.95755 12.7269 8.21274 12.4585L15.142 5.17764C15.3972 4.90925 15.3972 4.47571 15.142 4.20732H15.1355C14.8868 3.93205 14.4746 3.93205 14.2194 4.20044ZM0.858138 9.58882L3.59321 12.4654C3.8484 12.7338 4.26062 12.7338 4.51581 12.4654L4.97383 11.9837L1.78073 8.61162C1.52555 8.34323 1.11332 8.34323 0.858138 8.61162C0.602951 8.88 0.602951 9.32043 0.858138 9.58882Z" fill="#555351"/>
</g>
<defs>
<clipPath id="clip0_1012_17426">
<rect width="16" height="16" fill="white"/>
</clipPath>
</defs>
</svg>
