<svg width="96" height="96" viewBox="0 0 96 96" fill="none" xmlns="http://www.w3.org/2000/svg">
<rect x="0.5" y="95.5" width="95" height="95" rx="11.5" transform="rotate(-90 0.5 95.5)" fill="white"/>
<path d="M26.75 73.5C25.5812 73.5 24.5807 73.0839 23.7484 72.2516C22.9161 71.4193 22.5 70.4188 22.5 69.25V26.75C22.5 25.5812 22.9161 24.5807 23.7484 23.7484C24.5807 22.9161 25.5812 22.5 26.75 22.5H55.7208V26.75H26.75V69.25H69.25V40.35H73.5V69.25C73.5 70.4188 73.0839 71.4193 72.2516 72.2516C71.4193 73.0839 70.4188 73.5 69.25 73.5H26.75ZM63.5833 38.225V32.4875H57.8458V28.2375H63.5833V22.5H67.8333V28.2375H73.5708V32.4875H67.8333V38.225H63.5833ZM31 62.025H65L54.8 48.425L45.8042 60.2542L39.1458 51.4708L31 62.025Z" fill="#555351"/>
<rect x="0.5" y="95.5" width="95" height="95" rx="11.5" transform="rotate(-90 0.5 95.5)" stroke="#E3E3E3"/>
</svg>
