<svg width="155" height="44" viewBox="0 0 155 44" fill="none" xmlns="http://www.w3.org/2000/svg">
<g clip-path="url(#clip0_135_31)">
<path d="M149.286 0.354492H5.71456C2.7559 0.354492 0.357422 2.73749 0.357422 5.67707V38.3222C0.357422 41.2618 2.7559 43.6448 5.71456 43.6448H149.286C152.245 43.6448 154.643 41.2618 154.643 38.3222V5.67707C154.643 2.73749 152.245 0.354492 149.286 0.354492Z" fill="white"/>
<mask id="mask0_135_31" style="mask-type:luminance" maskUnits="userSpaceOnUse" x="7" y="7" width="30" height="30">
<path d="M36.4289 7.80646H7.85742V36.1936H36.4289V7.80646Z" fill="white"/>
</mask>
<g mask="url(#mask0_135_31)">
<path d="M29.9354 22.9028C29.9496 21.8147 30.2404 20.7479 30.7811 19.8016C31.3216 18.8552 32.0944 18.0601 33.0274 17.4902C32.4347 16.6492 31.6528 15.957 30.7438 15.4688C29.8347 14.9805 28.8236 14.7096 27.7908 14.6775C25.5875 14.4477 23.4516 15.9873 22.3288 15.9873C21.1843 15.9873 19.4556 14.7003 17.5942 14.7383C16.3901 14.777 15.2167 15.1248 14.1882 15.748C13.1597 16.3712 12.3112 17.2485 11.7254 18.2944C9.18798 22.6593 11.0807 29.0744 13.5114 32.6027C14.7276 34.3305 16.1489 36.2603 18.0087 36.1919C19.8286 36.1169 20.5083 35.0389 22.7051 35.0389C24.8815 35.0389 25.5191 36.1919 27.4167 36.1484C29.3696 36.1169 30.5999 34.4131 31.7734 32.669C32.6472 31.4379 33.3196 30.0773 33.7657 28.6376C32.6311 28.1608 31.6629 27.3628 30.9818 26.343C30.3007 25.3232 29.9368 24.1267 29.9354 22.9028Z" fill="#212527"/>
<path d="M26.3516 12.3568C27.4164 11.0869 27.9409 9.45454 27.8139 7.80646C26.1871 7.97621 24.6845 8.7487 23.6054 9.96991C23.0777 10.5665 22.6736 11.2606 22.4161 12.0125C22.1586 12.7643 22.0529 13.5593 22.1047 14.3518C22.9184 14.3601 23.7234 14.1849 24.459 13.8394C25.1946 13.4938 25.8417 12.9869 26.3516 12.3568Z" fill="#212527"/>
</g>
<path d="M43.7725 12.0641H44.5648L46.1497 14.7144H46.2166L47.8015 12.0641H48.5939L46.5291 15.4018V17.7416H45.8372V15.4018L43.7725 12.0641ZM51.7858 16.0006V13.4835H52.4443V17.7416H51.7858V17.0208H51.7412C51.6407 17.237 51.4845 17.4209 51.2725 17.5724C51.0604 17.7222 50.7925 17.797 50.4688 17.797C50.201 17.797 49.9629 17.7388 49.7546 17.6223C49.5462 17.5041 49.3825 17.3267 49.2635 17.0901C49.1445 16.8517 49.085 16.5514 49.085 16.1891V13.4835H49.7434V16.1448C49.7434 16.4553 49.8308 16.7029 50.0057 16.8877C50.1824 17.0725 50.4075 17.1649 50.6809 17.1649C50.8446 17.1649 51.0111 17.1234 51.1803 17.0402C51.3515 16.957 51.4947 16.8295 51.61 16.6577C51.7272 16.4858 51.7858 16.2668 51.7858 16.0006ZM54.2642 16.1891L54.253 15.3797H54.387L56.262 13.4835H57.0767L55.079 15.4905H55.0231L54.2642 16.1891ZM53.6504 17.7416V12.0641H54.3088V17.7416H53.6504ZM56.3736 17.7416L54.6995 15.6347L55.1682 15.18L57.2106 17.7416H56.3736ZM58.5827 12.0641V17.7416H57.9242V12.0641H58.5827ZM61.0499 17.8413C60.7783 17.8413 60.5319 17.7905 60.3105 17.6889C60.0892 17.5854 59.9134 17.4366 59.7832 17.2426C59.653 17.0466 59.5879 16.8101 59.5879 16.5329C59.5879 16.2889 59.6362 16.0912 59.733 15.9396C59.8297 15.7863 59.959 15.6661 60.1207 15.5792C60.2826 15.4924 60.4612 15.4277 60.6565 15.3852C60.8537 15.3409 61.0517 15.3057 61.2508 15.2799C61.5112 15.2466 61.7223 15.2216 61.8842 15.205C62.0479 15.1865 62.1669 15.1561 62.2413 15.1136C62.3176 15.071 62.3557 14.9971 62.3557 14.8918V14.8696C62.3557 14.5961 62.2804 14.3835 62.1297 14.232C61.9809 14.0804 61.7549 14.0047 61.4517 14.0047C61.1373 14.0047 60.8909 14.073 60.7123 14.2098C60.5337 14.3465 60.4082 14.4926 60.3356 14.6478L59.7106 14.426C59.8222 14.1673 59.971 13.9659 60.157 13.8217C60.3449 13.6757 60.5495 13.574 60.7709 13.5168C60.9941 13.4576 61.2136 13.4281 61.4294 13.4281C61.567 13.4281 61.7251 13.4447 61.9037 13.478C62.0841 13.5094 62.258 13.575 62.4255 13.6748C62.5947 13.7746 62.7352 13.9252 62.8468 14.1266C62.9584 14.3281 63.0142 14.5979 63.0142 14.9361V17.7416H62.3557V17.1649H62.3222C62.2776 17.2573 62.2032 17.3562 62.099 17.4616C61.9948 17.5669 61.8562 17.6565 61.6832 17.7305C61.5103 17.8044 61.2992 17.8413 61.0499 17.8413ZM61.1504 17.2537C61.4107 17.2537 61.6302 17.2028 61.8088 17.1012C61.9892 16.9995 62.125 16.8683 62.2162 16.7076C62.3092 16.5467 62.3557 16.3776 62.3557 16.2002V15.6015C62.3278 15.6347 62.2665 15.6652 62.1715 15.6929C62.0785 15.7188 61.9707 15.7419 61.8479 15.7622C61.727 15.7807 61.6089 15.7973 61.4935 15.8121C61.3801 15.8251 61.288 15.8361 61.2173 15.8454C61.0462 15.8676 60.8862 15.9036 60.7374 15.9535C60.5905 16.0016 60.4714 16.0745 60.3802 16.1725C60.291 16.2686 60.2463 16.3998 60.2463 16.5661C60.2463 16.7935 60.331 16.9653 60.5002 17.0818C60.6714 17.1964 60.8881 17.2537 61.1504 17.2537ZM64.3053 17.7416V12.0641H64.9638V14.1599H65.0196C65.068 14.086 65.135 13.9917 65.2205 13.8772C65.308 13.7607 65.4326 13.6572 65.5944 13.5667C65.7581 13.4743 65.9795 13.4281 66.2585 13.4281C66.6193 13.4281 66.9374 13.5177 67.2127 13.697C67.488 13.8762 67.7029 14.1304 67.8572 14.4593C68.0116 14.7882 68.0888 15.1764 68.0888 15.6236C68.0888 16.0745 68.0116 16.4654 67.8572 16.7963C67.7029 17.1252 67.489 17.3803 67.2155 17.5614C66.9421 17.7406 66.6267 17.8303 66.2696 17.8303C65.9943 17.8303 65.7739 17.785 65.6084 17.6944C65.4428 17.602 65.3154 17.4976 65.2261 17.3812C65.1368 17.2629 65.068 17.1649 65.0196 17.0873H64.9415V17.7416H64.3053ZM64.9527 15.6125C64.9527 15.9341 65.0001 16.2178 65.095 16.4636C65.1898 16.7076 65.3284 16.8988 65.5107 17.0374C65.693 17.1742 65.9162 17.2426 66.1803 17.2426C66.4557 17.2426 66.6854 17.1705 66.8695 17.0263C67.0555 16.8804 67.195 16.6844 67.288 16.4387C67.3829 16.191 67.4303 15.9156 67.4303 15.6125C67.4303 15.3131 67.3838 15.0433 67.2908 14.8031C67.1997 14.5609 67.0611 14.3697 66.8751 14.2292C66.691 14.0869 66.4594 14.0158 66.1803 14.0158C65.9125 14.0158 65.6874 14.0832 65.5051 14.2182C65.3228 14.3512 65.1852 14.5379 65.0922 14.7781C64.9992 15.0165 64.9527 15.2947 64.9527 15.6125ZM73.0472 17.8303C72.6601 17.8303 72.3208 17.7388 72.0287 17.5558C71.7387 17.3729 71.5115 17.1169 71.3477 16.7879C71.186 16.459 71.105 16.0745 71.105 15.6347C71.105 15.1911 71.186 14.804 71.3477 14.4731C71.5115 14.1424 71.7387 13.8855 72.0287 13.7025C72.3208 13.5195 72.6601 13.4281 73.0472 13.4281C73.4337 13.4281 73.7722 13.5195 74.063 13.7025C74.3544 13.8855 74.5815 14.1424 74.7437 14.4731C74.9072 14.804 74.9887 15.1911 74.9887 15.6347C74.9887 16.0745 74.9072 16.459 74.7437 16.7879C74.5815 17.1169 74.3544 17.3729 74.063 17.5558C73.7722 17.7388 73.4337 17.8303 73.0472 17.8303ZM73.0472 17.2426C73.3408 17.2426 73.583 17.1677 73.7722 17.018C73.9622 16.8683 74.1022 16.6715 74.1937 16.4275C74.2851 16.1836 74.3308 15.9193 74.3308 15.6347C74.3308 15.3501 74.2851 15.0849 74.1937 14.8391C74.1022 14.5933 73.9622 14.3946 73.7722 14.2431C73.583 14.0915 73.3408 14.0158 73.0472 14.0158C72.753 14.0158 72.5115 14.0915 72.3215 14.2431C72.1315 14.3946 71.9915 14.5933 71.9001 14.8391C71.8094 15.0849 71.7637 15.3501 71.7637 15.6347C71.7637 15.9193 71.8094 16.1836 71.9001 16.4275C71.9915 16.6715 72.1315 16.8683 72.3215 17.018C72.5115 17.1677 72.753 17.2426 73.0472 17.2426ZM76.6522 12.0641V17.7416H75.9944V12.0641H76.6522ZM77.8587 17.7416V13.4835H78.5172V17.7416H77.8587ZM78.1937 12.7738C78.0651 12.7738 77.9544 12.7304 77.8615 12.6435C77.7701 12.5567 77.7244 12.4523 77.7244 12.3303C77.7244 12.2083 77.7701 12.1039 77.8615 12.017C77.9544 11.9302 78.0651 11.8867 78.1937 11.8867C78.3215 11.8867 78.4315 11.9302 78.523 12.017C78.6158 12.1039 78.6622 12.2083 78.6622 12.3303C78.6622 12.4523 78.6158 12.5567 78.523 12.6435C78.4315 12.7304 78.3215 12.7738 78.1937 12.7738ZM80.3815 15.18V17.7416H79.723V13.4835H80.3594V14.1488H80.4151C80.5158 13.9326 80.668 13.7588 80.873 13.6276C81.0772 13.4946 81.3415 13.4281 81.6651 13.4281C81.9551 13.4281 82.2094 13.4872 82.4265 13.6055C82.6444 13.7219 82.8137 13.8993 82.9344 14.1377C83.0558 14.3743 83.1158 14.6737 83.1158 15.0359V17.7416H82.4572V15.0803C82.4572 14.7457 82.3701 14.4852 82.1951 14.2985C82.0201 14.11 81.7808 14.0158 81.4751 14.0158C81.2651 14.0158 81.0772 14.061 80.9115 14.1516C80.748 14.2421 80.6187 14.3743 80.5237 14.548C80.4294 14.7217 80.3815 14.9324 80.3815 15.18ZM86.0494 19.427C85.7308 19.427 85.458 19.3864 85.2287 19.305C85.0001 19.2256 84.8094 19.1202 84.6572 18.989C84.5065 18.8597 84.3865 18.7211 84.2972 18.5732L84.8215 18.2073C84.8808 18.2849 84.9565 18.3736 85.0472 18.4734C85.1387 18.5751 85.263 18.6629 85.4215 18.7367C85.5815 18.8125 85.7908 18.8504 86.0494 18.8504C86.3951 18.8504 86.6808 18.7673 86.9058 18.6009C87.1308 18.4346 87.2437 18.174 87.2437 17.8192V16.9542H87.188C87.1394 17.0319 87.0701 17.128 86.9808 17.2426C86.8937 17.3553 86.7672 17.4561 86.6015 17.5448C86.438 17.6316 86.2165 17.675 85.938 17.675C85.5915 17.675 85.2808 17.5937 85.0058 17.4311C84.7322 17.2684 84.5158 17.0319 84.3558 16.7214C84.1972 16.4109 84.1187 16.0339 84.1187 15.5903C84.1187 15.1542 84.1958 14.7744 84.3501 14.451C84.5044 14.1257 84.7194 13.8744 84.9944 13.697C85.2701 13.5177 85.588 13.4281 85.9487 13.4281C86.228 13.4281 86.4494 13.4743 86.613 13.5667C86.7787 13.6572 86.9051 13.7607 86.9922 13.8772C87.0815 13.9917 87.1501 14.086 87.1987 14.1599H87.2658V13.4835H87.9022V17.8636C87.9022 18.2295 87.818 18.527 87.6508 18.7562C87.4851 18.9872 87.2622 19.1563 86.9808 19.2635C86.7022 19.3725 86.3915 19.427 86.0494 19.427ZM86.0272 17.0873C86.2908 17.0873 86.5144 17.0273 86.6965 16.9071C86.8787 16.787 87.0172 16.6142 87.1122 16.3888C87.2072 16.1632 87.2544 15.8934 87.2544 15.5792C87.2544 15.2724 87.208 15.0017 87.1151 14.767C87.0222 14.5323 86.8844 14.3484 86.7022 14.2153C86.5201 14.0822 86.2951 14.0158 86.0272 14.0158C85.748 14.0158 85.5151 14.086 85.3294 14.2265C85.1451 14.3669 85.0065 14.5554 84.9137 14.792C84.8222 15.0285 84.7772 15.291 84.7772 15.5792C84.7772 15.875 84.8237 16.1365 84.9165 16.3638C85.0115 16.5893 85.1508 16.7667 85.3351 16.896C85.5208 17.0236 85.7515 17.0873 86.0272 17.0873Z" fill="black"/>
<path d="M45.2557 34.0645H43.9367L47.7516 23.7419H49.0504L52.8653 34.0645H51.5463L48.4416 25.375H48.3603L45.2557 34.0645ZM45.7427 30.0323H51.0593V31.1412H45.7427V30.0323ZM54.3212 36.9677V26.3226H55.4778V27.5525H55.6199C55.7078 27.418 55.8296 27.2467 55.9852 27.0383C56.1441 26.8266 56.3707 26.6385 56.665 26.4738C56.9626 26.3058 57.3651 26.2218 57.8724 26.2218C58.5285 26.2218 59.1068 26.3848 59.6074 26.7107C60.1079 27.0367 60.4985 27.4987 60.7792 28.0968C61.0599 28.6949 61.2003 29.4005 61.2003 30.2137C61.2003 31.0336 61.0599 31.7443 60.7792 32.3458C60.4985 32.9439 60.1096 33.4076 59.6124 33.7369C59.1153 34.0628 58.542 34.2258 57.8926 34.2258C57.3921 34.2258 56.9914 34.1435 56.6904 33.9789C56.3894 33.8108 56.1576 33.621 55.9954 33.4093C55.833 33.1942 55.7078 33.0161 55.6199 32.875H55.5185V36.9677H54.3212ZM55.4981 30.1936C55.4981 30.7782 55.5844 31.294 55.7569 31.741C55.9294 32.1845 56.1813 32.5323 56.5128 32.7843C56.8442 33.0329 57.2501 33.1573 57.7303 33.1573C58.2309 33.1573 58.6486 33.0262 58.9833 32.7641C59.3216 32.4987 59.5752 32.1425 59.7443 31.6956C59.9168 31.2453 60.0031 30.7447 60.0031 30.1936C60.0031 29.6492 59.9185 29.1586 59.7494 28.7218C59.5836 28.2816 59.3317 27.9338 58.9935 27.6784C58.6587 27.4197 58.2376 27.2903 57.7303 27.2903C57.2433 27.2903 56.8341 27.413 56.5026 27.6583C56.1712 27.9002 55.9209 28.2396 55.7518 28.6764C55.5827 29.1099 55.4981 29.6156 55.4981 30.1936ZM63.0266 36.9677V26.3226H64.1832V27.5525H64.3253C64.4132 27.418 64.535 27.2467 64.6906 27.0383C64.8495 26.8266 65.0761 26.6385 65.3704 26.4738C65.6679 26.3058 66.0704 26.2218 66.5777 26.2218C67.2339 26.2218 67.8121 26.3848 68.3127 26.7107C68.8132 27.0367 69.2038 27.4987 69.4846 28.0968C69.7653 28.6949 69.9056 29.4005 69.9056 30.2137C69.9056 31.0336 69.7653 31.7443 69.4846 32.3458C69.2038 32.9439 68.8149 33.4076 68.3178 33.7369C67.8206 34.0628 67.2473 34.2258 66.598 34.2258C66.0975 34.2258 65.6967 34.1435 65.3957 33.9789C65.0947 33.8108 64.863 33.621 64.7007 33.4093C64.5384 33.1942 64.4132 33.0161 64.3253 32.875H64.2239V36.9677H63.0266ZM64.2035 30.1936C64.2035 30.7782 64.2898 31.294 64.4623 31.741C64.6347 32.1845 64.8867 32.5323 65.2181 32.7843C65.5496 33.0329 65.9554 33.1573 66.4356 33.1573C66.9362 33.1573 67.3539 33.0262 67.6887 32.7641C68.0269 32.4987 68.2806 32.1425 68.4496 31.6956C68.6221 31.2453 68.7084 30.7447 68.7084 30.1936C68.7084 29.6492 68.6239 29.1586 68.4547 28.7218C68.289 28.2816 68.0371 27.9338 67.6988 27.6784C67.3641 27.4197 66.943 27.2903 66.4356 27.2903C65.9486 27.2903 65.5394 27.413 65.208 27.6583C64.8766 27.9002 64.6263 28.2396 64.4572 28.6764C64.2881 29.1099 64.2035 29.6156 64.2035 30.1936ZM81.5943 26.3226C81.5329 25.8118 81.2864 25.4153 80.8536 25.1331C80.4207 24.8508 79.8893 24.7097 79.26 24.7097C78.8007 24.7097 78.3979 24.7836 78.0529 24.9315C77.7114 25.0793 77.4443 25.2826 77.2514 25.5414C77.0621 25.8001 76.9671 26.0941 76.9671 26.4234C76.9671 26.6989 77.0336 26.9358 77.165 27.1341C77.3007 27.329 77.4729 27.4919 77.6828 27.623C77.8921 27.7507 78.1121 27.8566 78.3421 27.9405C78.5721 28.0212 78.7836 28.0867 78.9764 28.1371L80.0314 28.4194C80.3021 28.4899 80.6029 28.5874 80.9343 28.7117C81.2693 28.8361 81.5886 29.0057 81.8936 29.2208C82.2007 29.4325 82.455 29.7046 82.6543 30.0373C82.8536 30.3699 82.9536 30.7782 82.9536 31.2621C82.9536 31.8199 82.8064 32.3239 82.5121 32.7742C82.2214 33.2245 81.795 33.5823 81.2336 33.8478C80.6757 34.1133 79.9978 34.246 79.1993 34.246C78.4557 34.246 77.8114 34.1267 77.2664 33.8881C76.7257 33.6495 76.2993 33.3169 75.9886 32.8902C75.6807 32.4634 75.5064 31.9678 75.4657 31.4032H76.7643C76.7986 31.793 76.93 32.1156 77.16 32.371C77.3936 32.623 77.6879 32.8112 78.0429 32.9355C78.4014 33.0564 78.7871 33.117 79.1993 33.117C79.68 33.117 80.1107 33.0397 80.4929 32.8851C80.875 32.7271 81.1778 32.5088 81.4014 32.2299C81.6243 31.9476 81.7357 31.6183 81.7357 31.2419C81.7357 30.8992 81.6393 30.6203 81.4471 30.4053C81.2543 30.1902 81.0007 30.0155 80.6857 29.881C80.3714 29.7466 80.0314 29.629 79.6664 29.5283L78.3878 29.1653C77.5764 28.9335 76.9336 28.6025 76.46 28.1724C75.9864 27.7423 75.75 27.1794 75.75 26.4839C75.75 25.9059 75.9071 25.4019 76.2214 24.9718C76.5393 24.5383 76.9657 24.2023 77.5 23.9637C78.0379 23.7218 78.6379 23.6008 79.3007 23.6008C79.9707 23.6008 80.5657 23.7201 81.0864 23.9586C81.6071 24.1939 82.02 24.5165 82.3243 24.9264C82.6321 25.3363 82.7943 25.8018 82.8114 26.3226H81.5943ZM88.2486 26.3226V27.3307H84.2107V26.3226H88.2486ZM85.3871 24.4678H86.5843V31.8468C86.5843 32.1828 86.6336 32.4348 86.7314 32.6028C86.8329 32.7674 86.9614 32.8784 87.1171 32.9355C87.2764 32.9892 87.4436 33.0161 87.6193 33.0161C87.7514 33.0161 87.8593 33.0094 87.9443 32.996C88.0286 32.9791 88.0964 32.9657 88.1471 32.9557L88.3907 34.0242C88.3093 34.0544 88.1964 34.0847 88.0507 34.1149C87.905 34.1486 87.7207 34.1653 87.4979 34.1653C87.1593 34.1653 86.8279 34.0931 86.5036 33.9486C86.1821 33.8041 85.915 33.584 85.7021 33.2883C85.4921 32.9926 85.3871 32.6196 85.3871 32.1693V24.4678ZM93.1314 34.2258C92.4279 34.2258 91.8107 34.0595 91.28 33.7268C90.7521 33.3942 90.3393 32.9288 90.0421 32.3306C89.7478 31.7325 89.6007 31.0336 89.6007 30.2339C89.6007 29.4274 89.7478 28.7235 90.0421 28.122C90.3393 27.5205 90.7521 27.0534 91.28 26.7208C91.8107 26.3881 92.4279 26.2218 93.1314 26.2218C93.835 26.2218 94.45 26.3881 94.9778 26.7208C95.5086 27.0534 95.9214 27.5205 96.2157 28.122C96.5136 28.7235 96.6621 29.4274 96.6621 30.2339C96.6621 31.0336 96.5136 31.7325 96.2157 32.3306C95.9214 32.9288 95.5086 33.3942 94.9778 33.7268C94.45 34.0595 93.835 34.2258 93.1314 34.2258ZM93.1314 33.1573C93.6657 33.1573 94.1057 33.0212 94.45 32.749C94.795 32.4768 95.0507 32.1189 95.2164 31.6754C95.3821 31.2318 95.465 30.7513 95.465 30.2339C95.465 29.7164 95.3821 29.2343 95.2164 28.7873C95.0507 28.3404 94.795 27.9792 94.45 27.7036C94.1057 27.4281 93.6657 27.2903 93.1314 27.2903C92.5971 27.2903 92.1571 27.4281 91.8121 27.7036C91.4671 27.9792 91.2121 28.3404 91.0464 28.7873C90.8807 29.2343 90.7978 29.7164 90.7978 30.2339C90.7978 30.7513 90.8807 31.2318 91.0464 31.6754C91.2121 32.1189 91.4671 32.4768 91.8121 32.749C92.1571 33.0212 92.5971 33.1573 93.1314 33.1573ZM98.49 34.0645V26.3226H99.6464V27.4919H99.7279C99.8693 27.1089 100.126 26.7981 100.499 26.5595C100.871 26.3209 101.29 26.2017 101.757 26.2017C101.845 26.2017 101.955 26.2033 102.086 26.2067C102.219 26.21 102.319 26.2151 102.386 26.2218V27.4315C102.345 27.4214 102.252 27.4063 102.107 27.3861C101.965 27.3625 101.814 27.3508 101.655 27.3508C101.276 27.3508 100.939 27.4298 100.641 27.5877C100.346 27.7423 100.113 27.9573 99.9407 28.2329C99.7714 28.5051 99.6871 28.8159 99.6871 29.1653V34.0645H98.49ZM106.835 34.2258C106.084 34.2258 105.436 34.0612 104.892 33.7318C104.351 33.3992 103.933 32.9355 103.639 32.3407C103.348 31.7426 103.203 31.047 103.203 30.2541C103.203 29.4611 103.348 28.7621 103.639 28.1572C103.933 27.5491 104.342 27.0753 104.866 26.7359C105.394 26.3931 106.01 26.2218 106.713 26.2218C107.119 26.2218 107.52 26.289 107.916 26.4234C108.311 26.5578 108.671 26.7762 108.996 27.0786C109.321 27.3777 109.579 27.7742 109.772 28.2682C109.965 28.7621 110.061 29.3703 110.061 30.0927V30.5968H104.055V29.5686H108.844C108.844 29.1317 108.756 28.7419 108.58 28.3992C108.408 28.0565 108.161 27.7859 107.839 27.5877C107.521 27.3894 107.146 27.2903 106.713 27.2903C106.236 27.2903 105.824 27.408 105.475 27.6432C105.131 27.875 104.865 28.1774 104.679 28.5504C104.493 28.9234 104.4 29.3232 104.4 29.75V30.4355C104.4 31.0202 104.501 31.5158 104.704 31.9224C104.911 32.3256 105.196 32.6331 105.561 32.8447C105.927 33.0531 106.351 33.1573 106.835 33.1573C107.149 33.1573 107.434 33.1136 107.687 33.0262C107.944 32.9355 108.166 32.8011 108.351 32.623C108.538 32.4416 108.681 32.2164 108.783 31.9476L109.939 32.2702C109.818 32.6599 109.614 33.0027 109.326 33.2984C109.039 33.5907 108.683 33.8193 108.261 33.9839C107.838 34.1451 107.363 34.2258 106.835 34.2258Z" fill="black"/>
<path d="M149.286 0.354492H5.71456C2.7559 0.354492 0.357422 2.73749 0.357422 5.67707V38.3222C0.357422 41.2618 2.7559 43.6448 5.71456 43.6448H149.286C152.245 43.6448 154.643 41.2618 154.643 38.3222V5.67707C154.643 2.73749 152.245 0.354492 149.286 0.354492Z" stroke="black"/>
</g>
<defs>
<clipPath id="clip0_135_31">
<rect width="155" height="44" fill="white"/>
</clipPath>
</defs>
</svg>
