<svg width="234" height="170" viewBox="0 0 234 170" fill="none" xmlns="http://www.w3.org/2000/svg">
<path d="M45.3519 1.03888C45.8829 0.40293 46.8288 0.317773 47.4647 0.848679C48.1007 1.37958 48.1858 2.3255 47.6549 2.96145L45.3519 1.03888ZM17.7893 157.817L16.6015 158.733L17.7893 157.817ZM233.464 111.934L228.665 128.577L216.652 116.099L233.464 111.934ZM46.5034 2.00017C47.6549 2.96145 47.6549 2.96145 47.6547 2.96179C47.6542 2.96238 47.6536 2.96307 47.6526 2.96424C47.6507 2.96657 47.6476 2.97031 47.6433 2.97545C47.6348 2.98572 47.6216 3.00159 47.6039 3.02299C47.5686 3.06579 47.5151 3.13072 47.4443 3.21732C47.3027 3.39052 47.0919 3.65037 46.818 3.99313C46.2701 4.67869 45.47 5.69581 44.4672 7.01466C42.4615 9.65261 39.646 13.4963 36.4172 18.3071C29.9566 27.9333 21.8561 41.4093 15.2723 56.8299C2.06889 87.7551 -4.8449 126.013 18.9771 156.9L16.6015 158.733C-8.2528 126.507 -0.809509 86.8566 12.5132 55.6519C19.1925 40.0076 27.3973 26.3632 33.9263 16.6353C37.1923 11.769 40.0427 7.87719 42.0791 5.19889C43.0974 3.85963 43.9124 2.82344 44.4744 2.12022C44.7554 1.7686 44.9732 1.50019 45.1215 1.31873C45.1957 1.228 45.2525 1.159 45.2911 1.11221C45.3105 1.08881 45.3253 1.07096 45.3354 1.05872C45.3405 1.0526 45.3445 1.04788 45.3472 1.04457C45.3486 1.04292 45.3498 1.04149 45.3505 1.04067C45.3513 1.0396 45.3519 1.03888 46.5034 2.00017ZM18.9771 156.9C21.2733 159.878 25.3569 162.236 31.1 163.912C36.8167 165.581 44.0051 166.524 52.2865 166.803C68.8442 167.362 89.5448 165.263 111.082 161.229C132.61 157.197 154.916 151.242 174.673 144.121C194.455 136.991 211.581 128.727 222.82 120.113L224.645 122.494C213.047 131.383 195.587 139.772 175.691 146.943C155.77 154.123 133.308 160.118 111.635 164.177C89.9705 168.235 69.0368 170.37 52.1853 169.802C43.7621 169.517 36.3024 168.556 30.2594 166.792C24.2429 165.036 19.4555 162.433 16.6015 158.733L18.9771 156.9Z" fill="white" fill-opacity="0.32"/>
</svg>
