<svg width="241" height="168" viewBox="0 0 241 168" fill="none" xmlns="http://www.w3.org/2000/svg">
<path d="M188.095 166.687C187.531 167.294 186.582 167.329 185.975 166.764C185.369 166.2 185.334 165.251 185.898 164.645L188.095 166.687ZM215.711 9.84945L214.757 11.0076L215.711 9.84945ZM0.0357554 55.7316L4.85637 39.0954L16.8534 51.5883L0.0357554 55.7316ZM186.997 165.666C185.898 164.645 185.898 164.645 185.898 164.644C185.899 164.643 185.9 164.643 185.901 164.641C185.903 164.639 185.907 164.634 185.913 164.629C185.923 164.617 185.939 164.6 185.961 164.576C186.005 164.529 186.07 164.457 186.157 164.362C186.33 164.172 186.588 163.887 186.923 163.512C187.591 162.763 188.567 161.653 189.786 160.22C192.226 157.353 195.642 153.193 199.537 148.031C207.334 137.701 217.028 123.388 224.672 107.417C232.322 91.4291 237.864 73.8896 237.479 57.0748C237.097 40.3286 230.841 24.2456 214.757 11.0076L216.664 8.6913C233.475 22.5286 240.078 39.4602 240.479 57.0062C240.878 74.4836 235.129 92.5139 227.378 108.712C219.619 124.925 209.799 139.414 201.932 149.838C197.996 155.053 194.543 159.259 192.071 162.164C190.835 163.616 189.844 164.743 189.161 165.509C188.819 165.892 188.555 166.185 188.374 166.383C188.284 166.482 188.215 166.557 188.168 166.608C188.145 166.633 188.127 166.653 188.115 166.666C188.109 166.673 188.104 166.678 188.101 166.681C188.099 166.683 188.098 166.684 188.097 166.685C188.096 166.686 188.095 166.687 186.997 165.666ZM214.757 11.0076C211.775 8.55254 207.093 6.64659 200.925 5.33367C194.784 4.02668 187.308 3.3356 178.863 3.21057C161.976 2.96054 141.366 4.97559 120.126 8.73141C98.892 12.4863 77.0739 17.973 57.7741 24.6455C38.4498 31.3264 21.7513 39.1619 10.6828 47.573L8.86765 45.1844C20.3067 36.4918 37.3511 28.532 56.7939 21.8101C76.2612 15.0798 98.2344 9.55607 119.604 5.77725C140.969 1.99934 161.776 -0.0427321 178.908 0.210892C187.472 0.3377 195.156 1.03863 201.549 2.39939C207.915 3.75419 213.141 5.79168 216.664 8.6913L214.757 11.0076Z" fill="white" fill-opacity="0.32"/>
</svg>
