<svg width="24" height="24" viewBox="0 0 24 24" fill="none" xmlns="http://www.w3.org/2000/svg">
<path d="M11.175 19.4758L4.225 12.5258C4.14167 12.4424 4.08333 12.3591 4.05 12.2758C4.01667 12.1924 4 12.1008 4 12.0008C4 11.9008 4.01667 11.8091 4.05 11.7258C4.08333 11.6424 4.14167 11.5591 4.225 11.4758L11.2 4.50078C11.3333 4.36745 11.5 4.30078 11.7 4.30078C11.9 4.30078 12.075 4.37578 12.225 4.52578C12.375 4.67578 12.45 4.85078 12.45 5.05078C12.45 5.25078 12.375 5.42578 12.225 5.57578L6.55 11.2508H18.95C19.1667 11.2508 19.3458 11.3216 19.4875 11.4633C19.6292 11.6049 19.7 11.7841 19.7 12.0008C19.7 12.2174 19.6292 12.3966 19.4875 12.5383C19.3458 12.6799 19.1667 12.7508 18.95 12.7508H6.55L12.25 18.4508C12.3833 18.5841 12.45 18.7508 12.45 18.9508C12.45 19.1508 12.375 19.3258 12.225 19.4758C12.075 19.6258 11.9 19.7008 11.7 19.7008C11.5 19.7008 11.325 19.6258 11.175 19.4758Z" fill="#555351"/>
</svg>
