<svg width="36" height="38" viewBox="0 0 36 38" fill="none" xmlns="http://www.w3.org/2000/svg">
<rect width="36" height="38" rx="18" fill="#F2F3F7"/>
<path d="M17.175 26.4758L10.225 19.5258C10.1417 19.4424 10.0833 19.3591 10.05 19.2758C10.0167 19.1924 10 19.1008 10 19.0008C10 18.9008 10.0167 18.8091 10.05 18.7258C10.0833 18.6424 10.1417 18.5591 10.225 18.4758L17.2 11.5008C17.3333 11.3674 17.5 11.3008 17.7 11.3008C17.9 11.3008 18.075 11.3758 18.225 11.5258C18.375 11.6758 18.45 11.8508 18.45 12.0508C18.45 12.2508 18.375 12.4258 18.225 12.5758L12.55 18.2508H24.95C25.1667 18.2508 25.3458 18.3216 25.4875 18.4633C25.6292 18.6049 25.7 18.7841 25.7 19.0008C25.7 19.2174 25.6292 19.3966 25.4875 19.5383C25.3458 19.6799 25.1667 19.7508 24.95 19.7508H12.55L18.25 25.4508C18.3833 25.5841 18.45 25.7508 18.45 25.9508C18.45 26.1508 18.375 26.3258 18.225 26.4758C18.075 26.6258 17.9 26.7008 17.7 26.7008C17.5 26.7008 17.325 26.6258 17.175 26.4758Z" fill="#555351"/>
</svg>
