<svg width="28" height="28" viewBox="0 0 28 28" fill="none" xmlns="http://www.w3.org/2000/svg">
<rect width="28" height="28" rx="14" fill="#F9F9FB"/>
<path d="M13.4513 18.9839L8.81797 14.3505C8.76241 14.295 8.72352 14.2394 8.7013 14.1839C8.67908 14.1283 8.66797 14.0672 8.66797 14.0005C8.66797 13.9339 8.67908 13.8727 8.7013 13.8172C8.72352 13.7616 8.76241 13.7061 8.81797 13.6505L13.468 9.00052C13.5569 8.91163 13.668 8.86719 13.8013 8.86719C13.9346 8.86719 14.0513 8.91719 14.1513 9.01719C14.2513 9.11719 14.3013 9.23385 14.3013 9.36719C14.3013 9.50052 14.2513 9.61719 14.1513 9.71719L10.368 13.5005H18.6346C18.7791 13.5005 18.8985 13.5477 18.993 13.6422C19.0874 13.7366 19.1346 13.8561 19.1346 14.0005C19.1346 14.145 19.0874 14.2644 18.993 14.3589C18.8985 14.4533 18.7791 14.5005 18.6346 14.5005H10.368L14.168 18.3005C14.2569 18.3894 14.3013 18.5005 14.3013 18.6339C14.3013 18.7672 14.2513 18.8839 14.1513 18.9839C14.0513 19.0839 13.9346 19.1339 13.8013 19.1339C13.668 19.1339 13.5513 19.0839 13.4513 18.9839Z" fill="#555351"/>
</svg>
