<svg width="36" height="36" viewBox="0 0 36 36" fill="none" xmlns="http://www.w3.org/2000/svg">
<rect width="36" height="36" rx="18" fill="white"/>
<path d="M17.175 25.4758L10.225 18.5258C10.1417 18.4424 10.0833 18.3591 10.05 18.2758C10.0167 18.1924 10 18.1008 10 18.0008C10 17.9008 10.0167 17.8091 10.05 17.7258C10.0833 17.6424 10.1417 17.5591 10.225 17.4758L17.2 10.5008C17.3333 10.3674 17.5 10.3008 17.7 10.3008C17.9 10.3008 18.075 10.3758 18.225 10.5258C18.375 10.6758 18.45 10.8508 18.45 11.0508C18.45 11.2508 18.375 11.4258 18.225 11.5758L12.55 17.2508H24.95C25.1667 17.2508 25.3458 17.3216 25.4875 17.4633C25.6292 17.6049 25.7 17.7841 25.7 18.0008C25.7 18.2174 25.6292 18.3966 25.4875 18.5383C25.3458 18.6799 25.1667 18.7508 24.95 18.7508H12.55L18.25 24.4508C18.3833 24.5841 18.45 24.7508 18.45 24.9508C18.45 25.1508 18.375 25.3258 18.225 25.4758C18.075 25.6258 17.9 25.7008 17.7 25.7008C17.5 25.7008 17.325 25.6258 17.175 25.4758Z" fill="#555351"/>
</svg>
