<svg width="24" height="24" viewBox="0 0 24 24" fill="none" xmlns="http://www.w3.org/2000/svg">
<g clip-path="url(#clip0_1135_15188)">
<path d="M12 23C13.1 23 14 22.0769 14 20.9487H10C10 22.0769 10.9 23 12 23ZM18 16.8462V11.7179C18 8.56923 16.37 5.93333 13.5 5.2359V4.53846C13.5 3.68718 12.83 3 12 3C11.17 3 10.5 3.68718 10.5 4.53846V5.2359C7.64 5.93333 6 8.55897 6 11.7179V16.8462L4 18.8974V19.9231H20V18.8974L18 16.8462ZM16 17.8718H8V11.7179C8 9.17436 9.51 7.10256 12 7.10256C14.49 7.10256 16 9.17436 16 11.7179V17.8718Z" fill="#555351"/>
</g>
<defs>
<clipPath id="clip0_1135_15188">
<rect width="24" height="24" fill="white"/>
</clipPath>
</defs>
</svg>
