<svg width="48" height="48" viewBox="0 0 48 48" fill="none" xmlns="http://www.w3.org/2000/svg">
<path d="M15.75 30C15.5375 30 15.3594 29.9277 15.2156 29.7831C15.0719 29.6385 15 29.4594 15 29.2456C15 29.0319 15.0719 28.8542 15.2156 28.7125C15.3594 28.5708 15.5375 28.5 15.75 28.5H32.25C32.4625 28.5 32.6406 28.5723 32.7844 28.7169C32.9281 28.8615 33 29.0406 33 29.2544C33 29.4681 32.9281 29.6458 32.7844 29.7875C32.6406 29.9292 32.4625 30 32.25 30H15.75ZM15.75 24.75C15.5375 24.75 15.3594 24.6777 15.2156 24.5331C15.0719 24.3885 15 24.2094 15 23.9956C15 23.7819 15.0719 23.6042 15.2156 23.4625C15.3594 23.3208 15.5375 23.25 15.75 23.25H32.25C32.4625 23.25 32.6406 23.3223 32.7844 23.4669C32.9281 23.6115 33 23.7906 33 24.0044C33 24.2181 32.9281 24.3958 32.7844 24.5375C32.6406 24.6792 32.4625 24.75 32.25 24.75H15.75ZM15.75 19.5C15.5375 19.5 15.3594 19.4277 15.2156 19.2831C15.0719 19.1385 15 18.9594 15 18.7456C15 18.5319 15.0719 18.3542 15.2156 18.2125C15.3594 18.0708 15.5375 18 15.75 18H32.25C32.4625 18 32.6406 18.0723 32.7844 18.2169C32.9281 18.3615 33 18.5406 33 18.7544C33 18.9681 32.9281 19.1458 32.7844 19.2875C32.6406 19.4292 32.4625 19.5 32.25 19.5H15.75Z" fill="black"/>
</svg>
