<svg width="20" height="20" viewBox="0 0 20 20" fill="none" xmlns="http://www.w3.org/2000/svg">
<g clip-path="url(#clip0_1550_9607)">
<path d="M10.5977 1.68815C5.52158 1.32974 1.329 5.52231 1.68741 10.5984C1.98748 15.0077 5.83831 18.3334 10.2559 18.3334H13.3316C13.79 18.3334 14.1651 17.9583 14.1651 17.4999C14.1651 17.0415 13.79 16.6664 13.3316 16.6664H10.2726C7.1636 16.6664 4.31298 14.6493 3.53782 11.6403C2.29588 6.80592 6.79685 2.29661 11.6312 3.54688C14.6486 4.31372 16.6657 7.16433 16.6657 10.2733V11.1902C16.6657 11.8487 16.0739 12.4988 15.4154 12.4988C14.7569 12.4988 14.1651 11.8487 14.1651 11.1902V10.1483C14.1651 8.05619 12.6815 6.17245 10.6143 5.88072C7.7804 5.4723 5.38822 7.92283 5.89666 10.7734C6.18005 12.3655 7.42199 13.6824 8.99733 14.0575C10.531 14.4159 11.9896 13.9241 12.9482 12.9489C13.69 13.9658 15.1737 14.4993 16.5323 13.9575C17.6492 13.5157 18.3327 12.3738 18.3327 11.1735V10.265C18.3327 5.83905 15.007 1.98821 10.5977 1.68815ZM9.99755 12.4988C8.61391 12.4988 7.49701 11.3819 7.49701 9.99828C7.49701 8.61465 8.61391 7.49774 9.99755 7.49774C11.3812 7.49774 12.4981 8.61465 12.4981 9.99828C12.4981 11.3819 11.3812 12.4988 9.99755 12.4988Z" fill="#008DFF"/>
</g>
<defs>
<clipPath id="clip0_1550_9607">
<rect width="20" height="20" fill="white"/>
</clipPath>
</defs>
</svg>
