<svg width="20" height="20" viewBox="0 0 20 20" fill="none" xmlns="http://www.w3.org/2000/svg">
<g clip-path="url(#clip0_1333_97733)">
<path d="M14.166 5.83325H11.666C11.2077 5.83325 10.8327 6.20825 10.8327 6.66659C10.8327 7.12492 11.2077 7.49992 11.666 7.49992H14.166C15.541 7.49992 16.666 8.62492 16.666 9.99992C16.666 11.3749 15.541 12.4999 14.166 12.4999H11.666C11.2077 12.4999 10.8327 12.8749 10.8327 13.3333C10.8327 13.7916 11.2077 14.1666 11.666 14.1666H14.166C16.466 14.1666 18.3327 12.2999 18.3327 9.99992C18.3327 7.69992 16.466 5.83325 14.166 5.83325ZM6.66602 9.99992C6.66602 10.4583 7.04102 10.8333 7.49935 10.8333H12.4993C12.9577 10.8333 13.3327 10.4583 13.3327 9.99992C13.3327 9.54159 12.9577 9.16659 12.4993 9.16659H7.49935C7.04102 9.16659 6.66602 9.54159 6.66602 9.99992ZM8.33268 12.4999H5.83268C4.45768 12.4999 3.33268 11.3749 3.33268 9.99992C3.33268 8.62492 4.45768 7.49992 5.83268 7.49992H8.33268C8.79102 7.49992 9.16602 7.12492 9.16602 6.66659C9.16602 6.20825 8.79102 5.83325 8.33268 5.83325H5.83268C3.53268 5.83325 1.66602 7.69992 1.66602 9.99992C1.66602 12.2999 3.53268 14.1666 5.83268 14.1666H8.33268C8.79102 14.1666 9.16602 13.7916 9.16602 13.3333C9.16602 12.8749 8.79102 12.4999 8.33268 12.4999Z" fill="#40AAFF"/>
</g>
<defs>
<clipPath id="clip0_1333_97733">
<rect width="20" height="20" fill="white"/>
</clipPath>
</defs>
</svg>
