<svg width="20" height="20" viewBox="0 0 20 20" fill="none" xmlns="http://www.w3.org/2000/svg">
<g clip-path="url(#clip0_1550_9601)">
<path d="M16.0303 12.729L13.9094 12.4868C13.4 12.4284 12.899 12.6037 12.5399 12.9628L11.0035 14.4992C8.64042 13.2968 6.70319 11.3679 5.50077 8.99644L7.04554 7.45166C7.4046 7.0926 7.57995 6.59159 7.5215 6.08223L7.27935 3.97798C7.17915 3.13461 6.46938 2.5 5.61767 2.5H4.1731C3.22953 2.5 2.44462 3.28492 2.50307 4.22849C2.94562 11.3595 8.64877 17.0544 15.7714 17.4969C16.715 17.5554 17.4999 16.7705 17.4999 15.8269V14.3823C17.5083 13.5389 16.8737 12.8292 16.0303 12.729Z" fill="#008DFF"/>
</g>
<defs>
<clipPath id="clip0_1550_9601">
<rect width="20" height="20" fill="white"/>
</clipPath>
</defs>
</svg>
