<svg width="32" height="32" viewBox="0 0 32 32" fill="none" xmlns="http://www.w3.org/2000/svg">
<g clip-path="url(#clip0_811_83810)">
<path d="M15.9974 2.66602C8.6374 2.66602 2.66406 8.63935 2.66406 15.9993C2.66406 23.3594 8.6374 29.3327 15.9974 29.3327C23.3574 29.3327 29.3307 23.3594 29.3307 15.9993C29.3307 8.63935 23.3574 2.66602 15.9974 2.66602ZM12.3841 21.7194L7.5974 16.9327C7.0774 16.4127 7.0774 15.5727 7.5974 15.0527C8.1174 14.5327 8.9574 14.5327 9.4774 15.0527L13.3307 18.8927L22.5041 9.71935C23.0241 9.19935 23.8641 9.19935 24.3841 9.71935C24.9041 10.2393 24.9041 11.0793 24.3841 11.5993L14.2641 21.7194C13.7574 22.2394 12.9041 22.2394 12.3841 21.7194Z" fill="#555351"/>
</g>
<defs>
<clipPath id="clip0_811_83810">
<rect width="32" height="32" fill="white"/>
</clipPath>
</defs>
</svg>
