<svg width="21" height="20" viewBox="0 0 21 20" fill="none" xmlns="http://www.w3.org/2000/svg">
<g clip-path="url(#clip0_38_1413)">
<path d="M15.2082 5.29159C13.9999 4.08325 12.3416 3.33325 10.4999 3.33325C6.81655 3.33325 3.84155 6.31659 3.84155 9.99992C3.84155 13.6833 6.81655 16.6666 10.4999 16.6666C13.6082 16.6666 16.1999 14.5416 16.9416 11.6666H15.2082C14.5249 13.6083 12.6749 14.9999 10.4999 14.9999C7.74155 14.9999 5.49989 12.7583 5.49989 9.99992C5.49989 7.24159 7.74155 4.99992 10.4999 4.99992C11.8832 4.99992 13.1166 5.57492 14.0166 6.48325L11.3332 9.16658H17.1666V3.33325L15.2082 5.29159Z" fill="#40AAFF"/>
</g>
<defs>
<clipPath id="clip0_38_1413">
<rect width="20" height="20" fill="white" transform="translate(0.5)"/>
</clipPath>
</defs>
</svg>
