<svg width="36" height="36" viewBox="0 0 36 36" fill="none" xmlns="http://www.w3.org/2000/svg">
<rect width="36" height="36" rx="18" fill="#E0F1FF"/>
<path d="M18.0016 19.0516L12.7516 24.3016C12.6016 24.4516 12.4266 24.5266 12.2266 24.5266C12.0266 24.5266 11.8516 24.4516 11.7016 24.3016C11.5516 24.1516 11.4766 23.9766 11.4766 23.7766C11.4766 23.5766 11.5516 23.4016 11.7016 23.2516L16.9516 18.0016L11.7016 12.7516C11.5516 12.6016 11.4766 12.4266 11.4766 12.2266C11.4766 12.0266 11.5516 11.8516 11.7016 11.7016C11.8516 11.5516 12.0266 11.4766 12.2266 11.4766C12.4266 11.4766 12.6016 11.5516 12.7516 11.7016L18.0016 16.9516L23.2516 11.7016C23.4016 11.5516 23.5766 11.4766 23.7766 11.4766C23.9766 11.4766 24.1516 11.5516 24.3016 11.7016C24.4516 11.8516 24.5266 12.0266 24.5266 12.2266C24.5266 12.4266 24.4516 12.6016 24.3016 12.7516L19.0516 18.0016L24.3016 23.2516C24.4516 23.4016 24.5266 23.5766 24.5266 23.7766C24.5266 23.9766 24.4516 24.1516 24.3016 24.3016C24.1516 24.4516 23.9766 24.5266 23.7766 24.5266C23.5766 24.5266 23.4016 24.4516 23.2516 24.3016L18.0016 19.0516Z" fill="#555351"/>
</svg>
