<svg width="36" height="36" viewBox="0 0 36 36" fill="none" xmlns="http://www.w3.org/2000/svg">
<g opacity="0.48" filter="url(#filter0_b_1_380)">
<rect width="36" height="36" rx="8" fill="#E1F9F7"/>
<g clip-path="url(#clip0_1_380)">
<path d="M21.75 17.25V11.25H14.25V14.25H11.25V24.75H17.25V21.75H18.75V24.75H24.75V17.25H21.75ZM14.25 23.25H12.75V21.75H14.25V23.25ZM14.25 20.25H12.75V18.75H14.25V20.25ZM14.25 17.25H12.75V15.75H14.25V17.25ZM17.25 20.25H15.75V18.75H17.25V20.25ZM17.25 17.25H15.75V15.75H17.25V17.25ZM17.25 14.25H15.75V12.75H17.25V14.25ZM20.25 20.25H18.75V18.75H20.25V20.25ZM20.25 17.25H18.75V15.75H20.25V17.25ZM20.25 14.25H18.75V12.75H20.25V14.25ZM23.25 23.25H21.75V21.75H23.25V23.25ZM23.25 20.25H21.75V18.75H23.25V20.25Z" fill="#008DFF"/>
</g>
</g>
<defs>
<filter id="filter0_b_1_380" x="-24" y="-24" width="84" height="84" filterUnits="userSpaceOnUse" color-interpolation-filters="sRGB">
<feFlood flood-opacity="0" result="BackgroundImageFix"/>
<feGaussianBlur in="BackgroundImageFix" stdDeviation="12"/>
<feComposite in2="SourceAlpha" operator="in" result="effect1_backgroundBlur_1_380"/>
<feBlend mode="normal" in="SourceGraphic" in2="effect1_backgroundBlur_1_380" result="shape"/>
</filter>
<clipPath id="clip0_1_380">
<rect width="18" height="18" fill="white" transform="translate(9 9)"/>
</clipPath>
</defs>
</svg>
