<svg width="18" height="18" viewBox="0 0 18 18" fill="none" xmlns="http://www.w3.org/2000/svg">
<path d="M4.89375 15.75C4.59375 15.75 4.33125 15.6375 4.10625 15.4125C3.88125 15.1875 3.76875 14.925 3.76875 14.625V3.9375H3.5625C3.40313 3.9375 3.26953 3.88328 3.16172 3.77484C3.05391 3.66639 3 3.53202 3 3.37172C3 3.21141 3.05391 3.07813 3.16172 2.97188C3.26953 2.86563 3.40313 2.8125 3.5625 2.8125H6.525C6.525 2.65 6.57891 2.51562 6.68672 2.40938C6.79453 2.30313 6.92813 2.25 7.0875 2.25H10.9125C11.0719 2.25 11.2055 2.30391 11.3133 2.41172C11.4211 2.51953 11.475 2.65313 11.475 2.8125H14.4375C14.5969 2.8125 14.7305 2.86672 14.8383 2.97516C14.9461 3.08361 15 3.21798 15 3.37828C15 3.53859 14.9461 3.67188 14.8383 3.77813C14.7305 3.88438 14.5969 3.9375 14.4375 3.9375H14.2313V14.625C14.2313 14.925 14.1188 15.1875 13.8938 15.4125C13.6688 15.6375 13.4062 15.75 13.1063 15.75H4.89375ZM4.89375 3.9375V14.625H13.1063V3.9375H4.89375ZM6.88125 12.45C6.88125 12.6094 6.93547 12.743 7.04391 12.8508C7.15236 12.9586 7.28673 13.0125 7.44703 13.0125C7.60734 13.0125 7.74063 12.9586 7.84688 12.8508C7.95312 12.743 8.00625 12.6094 8.00625 12.45V6.09375C8.00625 5.93438 7.95203 5.80078 7.84359 5.69297C7.73514 5.58516 7.60077 5.53125 7.44047 5.53125C7.28016 5.53125 7.14688 5.58516 7.04063 5.69297C6.93438 5.80078 6.88125 5.93438 6.88125 6.09375V12.45ZM9.99375 12.45C9.99375 12.6094 10.048 12.743 10.1564 12.8508C10.2649 12.9586 10.3992 13.0125 10.5595 13.0125C10.7198 13.0125 10.8531 12.9586 10.9594 12.8508C11.0656 12.743 11.1188 12.6094 11.1188 12.45V6.09375C11.1188 5.93438 11.0645 5.80078 10.9561 5.69297C10.8476 5.58516 10.7133 5.53125 10.553 5.53125C10.3927 5.53125 10.2594 5.58516 10.1531 5.69297C10.0469 5.80078 9.99375 5.93438 9.99375 6.09375V12.45Z" fill="#555351"/>
</svg>
