<svg width="24" height="24" viewBox="0 0 24 24" fill="none" xmlns="http://www.w3.org/2000/svg">
<path d="M6.525 21C6.125 21 5.775 20.85 5.475 20.55C5.175 20.25 5.025 19.9 5.025 19.5V5.25H4.75C4.5375 5.25 4.35938 5.17771 4.21563 5.03313C4.07187 4.88853 4 4.70936 4 4.49563C4 4.28188 4.07187 4.10417 4.21563 3.9625C4.35938 3.82083 4.5375 3.75 4.75 3.75H8.7C8.7 3.53333 8.77187 3.35417 8.91563 3.2125C9.05938 3.07083 9.2375 3 9.45 3H14.55C14.7625 3 14.9406 3.07187 15.0844 3.21563C15.2281 3.35938 15.3 3.5375 15.3 3.75H19.25C19.4625 3.75 19.6406 3.82229 19.7844 3.96688C19.9281 4.11148 20 4.29064 20 4.50437C20 4.71812 19.9281 4.89583 19.7844 5.0375C19.6406 5.17917 19.4625 5.25 19.25 5.25H18.975V19.5C18.975 19.9 18.825 20.25 18.525 20.55C18.225 20.85 17.875 21 17.475 21H6.525ZM6.525 5.25V19.5H17.475V5.25H6.525ZM9.175 16.6C9.175 16.8125 9.24729 16.9906 9.39187 17.1344C9.53647 17.2781 9.71564 17.35 9.92937 17.35C10.1431 17.35 10.3208 17.2781 10.4625 17.1344C10.6042 16.9906 10.675 16.8125 10.675 16.6V8.125C10.675 7.9125 10.6027 7.73438 10.4581 7.59063C10.3135 7.44688 10.1344 7.375 9.92063 7.375C9.70688 7.375 9.52917 7.44688 9.3875 7.59063C9.24583 7.73438 9.175 7.9125 9.175 8.125V16.6ZM13.325 16.6C13.325 16.8125 13.3973 16.9906 13.5419 17.1344C13.6865 17.2781 13.8656 17.35 14.0794 17.35C14.2931 17.35 14.4708 17.2781 14.6125 17.1344C14.7542 16.9906 14.825 16.8125 14.825 16.6V8.125C14.825 7.9125 14.7527 7.73438 14.6081 7.59063C14.4635 7.44688 14.2844 7.375 14.0706 7.375C13.8569 7.375 13.6792 7.44688 13.5375 7.59063C13.3958 7.73438 13.325 7.9125 13.325 8.125V16.6Z" fill="#555351"/>
</svg>
