<svg width="18" height="18" viewBox="0 0 18 18" fill="none" xmlns="http://www.w3.org/2000/svg">
<path d="M6.54375 13.3125H11.4562C11.6156 13.3125 11.7492 13.2583 11.857 13.1498C11.9648 13.0414 12.0187 12.907 12.0187 12.7467C12.0187 12.5864 11.9648 12.4531 11.857 12.3469C11.7492 12.2406 11.6156 12.1875 11.4562 12.1875H6.54375C6.38437 12.1875 6.25078 12.2417 6.14297 12.3502C6.03516 12.4586 5.98125 12.593 5.98125 12.7533C5.98125 12.9136 6.03516 13.0469 6.14297 13.1531C6.25078 13.2594 6.38437 13.3125 6.54375 13.3125ZM6.54375 10.125H11.4562C11.6156 10.125 11.7492 10.0708 11.857 9.96234C11.9648 9.85389 12.0187 9.71952 12.0187 9.55922C12.0187 9.39891 11.9648 9.26563 11.857 9.15938C11.7492 9.05313 11.6156 9 11.4562 9H6.54375C6.38437 9 6.25078 9.05422 6.14297 9.16266C6.03516 9.27111 5.98125 9.40548 5.98125 9.56578C5.98125 9.72609 6.03516 9.85938 6.14297 9.96563C6.25078 10.0719 6.38437 10.125 6.54375 10.125ZM4.125 16.5C3.825 16.5 3.5625 16.3875 3.3375 16.1625C3.1125 15.9375 3 15.675 3 15.375V2.625C3 2.325 3.1125 2.0625 3.3375 1.8375C3.5625 1.6125 3.825 1.5 4.125 1.5H10.425C10.5805 1.5 10.7288 1.53125 10.8698 1.59375C11.0108 1.65625 11.1312 1.7375 11.2312 1.8375L14.6625 5.26875C14.7625 5.36875 14.8437 5.48924 14.9062 5.63021C14.9687 5.77119 15 5.91945 15 6.075V15.375C15 15.675 14.8875 15.9375 14.6625 16.1625C14.4375 16.3875 14.175 16.5 13.875 16.5H4.125ZM10.3312 5.55V2.625H4.125V15.375H13.875V6.1125H10.8937C10.7344 6.1125 10.6008 6.05859 10.493 5.95078C10.3852 5.84297 10.3312 5.70938 10.3312 5.55Z" fill="#555351"/>
</svg>
