<svg width="129" height="28" viewBox="0 0 129 28" fill="none" xmlns="http://www.w3.org/2000/svg">
<g clip-path="url(#clip0_811_50717)">
<path d="M42.6462 10.5042C42.5847 9.89843 42.3213 9.42786 41.8557 9.09245C41.3902 8.75706 40.7582 8.58934 39.9601 8.58934C39.4179 8.58934 38.9598 8.66444 38.5865 8.81462C38.213 8.95979 37.9262 9.16255 37.7268 9.42287C37.5324 9.68318 37.4351 9.97853 37.4351 10.3089C37.425 10.5843 37.4837 10.8245 37.6117 11.0298C37.7447 11.235 37.9262 11.4127 38.1567 11.5629C38.3868 11.7081 38.653 11.8357 38.9548 11.9459C39.2567 12.051 39.5788 12.1411 39.9216 12.2162L41.3339 12.5466C42.0194 12.6968 42.6487 12.897 43.2219 13.1473C43.7948 13.3976 44.2911 13.7055 44.7105 14.0709C45.1302 14.4364 45.4551 14.8669 45.6853 15.3625C45.9207 15.8581 46.041 16.4263 46.0459 17.067C46.041 18.0082 45.7954 18.8241 45.3093 19.515C44.8284 20.2008 44.1324 20.7339 43.2219 21.1144C42.3161 21.4898 41.2238 21.6775 39.9447 21.6775C38.676 21.6775 37.5708 21.4873 36.6293 21.1069C35.693 20.7264 34.9616 20.1632 34.4345 19.4173C33.9127 18.6664 33.6388 17.7378 33.6133 16.6315H36.829C36.8647 17.1471 37.0157 17.5776 37.2816 17.923C37.553 18.2635 37.9136 18.5213 38.3638 18.6965C38.8191 18.8667 39.3333 18.9518 39.9065 18.9518C40.4693 18.9518 40.9579 18.8717 41.3723 18.7115C41.7917 18.5513 42.1167 18.3285 42.3468 18.0432C42.577 17.7578 42.6924 17.43 42.6924 17.0595C42.6924 16.7141 42.5874 16.4237 42.3776 16.1885C42.173 15.9532 41.8711 15.7529 41.472 15.5877C41.0779 15.4225 40.5945 15.2724 40.0216 15.1372L38.3102 14.7167C36.985 14.4013 35.9385 13.9082 35.1711 13.2374C34.4037 12.5666 34.0225 11.663 34.0277 10.5267C34.0225 9.59556 34.2758 8.78208 34.7874 8.08626C35.3043 7.39041 36.013 6.84727 36.9133 6.4568C37.8139 6.06633 38.837 5.87109 39.9831 5.87109C41.1496 5.87109 42.1678 6.06633 43.0376 6.4568C43.9124 6.84727 44.593 7.39041 45.0791 8.08626C45.565 8.78208 45.8157 9.58806 45.8311 10.5042H42.6462Z" fill="#1C1917"/>
<path d="M47.8887 21.6775V10.0865H50.9876V12.1315H51.125C51.3695 11.4524 51.7765 10.9166 52.3464 10.5242C52.9162 10.1317 53.5984 9.93555 54.3922 9.93555C55.1962 9.93555 55.8805 10.1343 56.4454 10.5317C57.0104 10.9241 57.3868 11.4574 57.575 12.1315H57.6974C57.9364 11.4674 58.3689 10.9367 58.995 10.5393C59.6261 10.1368 60.3716 9.93555 61.2315 9.93555C62.3256 9.93555 63.2134 10.2802 63.8956 10.9694C64.5823 11.6536 64.926 12.6245 64.926 13.8822V21.6775H61.6817V14.5161C61.6817 13.8722 61.5088 13.3892 61.1627 13.0672C60.8168 12.7453 60.3841 12.5843 59.8651 12.5843C59.2747 12.5843 58.8142 12.7704 58.4836 13.1427C58.1528 13.5099 57.9873 13.9954 57.9873 14.5991V21.6775H54.8348V14.4482C54.8348 13.8797 54.6695 13.4269 54.3387 13.0899C54.0131 12.7528 53.5831 12.5843 53.0487 12.5843C52.6873 12.5843 52.3617 12.6748 52.0716 12.8559C51.7867 13.032 51.5602 13.281 51.3922 13.603C51.2245 13.92 51.1403 14.2922 51.1403 14.7199V21.6775H47.8887Z" fill="#1C1917"/>
<path d="M71.1568 21.6775C70.4021 21.6775 69.7292 21.5516 69.1388 21.2997C68.5483 21.0429 68.0811 20.665 67.7371 20.1662C67.398 19.6625 67.2285 19.0352 67.2285 18.2846C67.2285 17.6524 67.3493 17.1215 67.5907 16.6918C67.8319 16.2621 68.1605 15.9164 68.5764 15.6546C68.9924 15.3929 69.4649 15.1954 69.9938 15.062C70.5278 14.9286 71.0873 14.8348 71.6728 14.7805C72.3609 14.7114 72.9155 14.6472 73.3366 14.5879C73.7576 14.5237 74.063 14.4298 74.2532 14.3064C74.4431 14.1829 74.5382 14.0002 74.5382 13.7582V13.7137C74.5382 13.2445 74.3841 12.8815 74.0759 12.6247C73.773 12.3679 73.3416 12.2395 72.782 12.2395C72.1916 12.2395 71.7216 12.3654 71.3724 12.6173C71.0234 12.8642 70.7921 13.1754 70.6794 13.5507L67.6445 13.3137C67.7986 12.6222 68.1015 12.0247 68.5536 11.5209C69.0054 11.0122 69.5881 10.622 70.3017 10.3504C71.0206 10.0738 71.8525 9.93555 72.7975 9.93555C73.4546 9.93555 74.0837 10.0096 74.6843 10.1578C75.2905 10.306 75.8269 10.5356 76.2941 10.8468C76.7666 11.1579 77.139 11.5579 77.411 12.0469C77.6831 12.5309 77.8193 13.1112 77.8193 13.7878V21.4627H74.7075V19.8847H74.6151C74.4252 20.2403 74.171 20.5539 73.8527 20.8255C73.5343 21.0922 73.1517 21.3021 72.7049 21.4553C72.2583 21.6034 71.7423 21.6775 71.1568 21.6775ZM72.0965 19.4995C72.5792 19.4995 73.0053 19.4081 73.375 19.2254C73.7449 19.0377 74.0349 18.7858 74.2455 18.4698C74.4561 18.1537 74.5611 17.7956 74.5611 17.3956V16.188C74.4585 16.2522 74.3174 16.3115 74.1377 16.3659C73.9629 16.4152 73.7653 16.4621 73.5445 16.5066C73.3237 16.5461 73.1029 16.5831 72.8821 16.6177C72.6613 16.6473 72.4612 16.6745 72.2815 16.6992C71.8961 16.7535 71.5598 16.84 71.2723 16.9585C70.9848 17.077 70.7615 17.2375 70.6022 17.44C70.4432 17.6376 70.3635 17.8845 70.3635 18.1808C70.3635 18.6105 70.5253 18.9389 70.8486 19.1661C71.1772 19.3884 71.5932 19.4995 72.0965 19.4995Z" fill="#1C1917"/>
<path d="M80.1211 21.6775V10.1013H83.1818V12.1212H83.3004C83.5078 11.4027 83.8563 10.86 84.3453 10.4933C84.8344 10.1215 85.3978 9.93555 86.0351 9.93555C86.1932 9.93555 86.3635 9.94561 86.5465 9.9657C86.7292 9.98579 86.8897 10.0134 87.0281 10.0486V12.8974C86.8799 12.8522 86.6748 12.812 86.4131 12.7768C86.151 12.7417 85.9115 12.7241 85.694 12.7241C85.2296 12.7241 84.8148 12.8271 84.4491 13.0331C84.0883 13.2341 83.8019 13.5154 83.5895 13.8772C83.3818 14.2389 83.2781 14.6559 83.2781 15.1282V21.6775H80.1211Z" fill="#1C1917"/>
<path d="M96.0219 9.9873V12.3888H88.8711V9.9873H96.0219ZM90.4946 7.22559H93.7878V17.9723C93.7878 18.2675 93.8343 18.4976 93.927 18.6627C94.0197 18.8228 94.1486 18.9354 94.3135 19.0004C94.4836 19.0655 94.6795 19.098 94.9011 19.098C95.0558 19.098 95.2105 19.0855 95.3648 19.0605C95.5195 19.0305 95.6382 19.0079 95.7207 18.9929L96.2386 21.3719C96.0737 21.4219 95.8416 21.4795 95.5427 21.5445C95.2439 21.6146 94.8804 21.6571 94.4527 21.6721C93.6589 21.7021 92.9633 21.5995 92.3655 21.3644C91.7728 21.1292 91.3113 20.764 90.9815 20.2687C90.6518 19.7734 90.4893 19.148 90.4946 18.3926V7.22559Z" fill="#1C1917"/>
<path d="M98.0277 10.1862H101.178V22.4036C101.178 23.303 101.005 24.0306 100.66 24.5864C100.315 25.1422 99.8197 25.5489 99.1737 25.8066C98.5331 26.0643 97.7665 26.1931 96.8742 26.1931C96.7659 26.1931 96.6622 26.1906 96.5638 26.1856C96.4603 26.1856 96.3518 26.183 96.2383 26.178V23.6542C96.3222 23.6592 96.396 23.6617 96.4603 23.6617C96.5193 23.6668 96.5833 23.6693 96.6524 23.6693C97.1602 23.6693 97.5151 23.5582 97.7173 23.3358C97.9242 23.1186 98.0277 22.7901 98.0277 22.3506V10.1862ZM99.5953 8.68551C99.1319 8.68551 98.7326 8.52637 98.3976 8.20803C98.0623 7.88467 97.8946 7.49813 97.8946 7.04845C97.8946 6.60381 98.0623 6.22233 98.3976 5.90399C98.7326 5.58064 99.1319 5.41895 99.5953 5.41895C100.068 5.41895 100.47 5.58064 100.801 5.90399C101.136 6.22233 101.303 6.60381 101.303 7.04845C101.303 7.49813 101.136 7.88467 100.801 8.20803C100.47 8.52637 100.068 8.68551 99.5953 8.68551Z" fill="#1C1917"/>
<path d="M108.9 21.6775C107.718 21.6775 106.695 21.4332 105.832 20.9445C104.974 20.451 104.312 19.7649 103.845 18.8864C103.378 18.0029 103.145 16.9787 103.145 15.8139C103.145 14.6392 103.378 13.6126 103.845 12.7341C104.312 11.8506 104.974 11.1645 105.832 10.6759C106.695 10.1823 107.718 9.93555 108.9 9.93555C110.083 9.93555 111.103 10.1823 111.961 10.6759C112.824 11.1645 113.489 11.8506 113.956 12.7341C114.423 13.6126 114.656 14.6392 114.656 15.8139C114.656 16.9787 114.423 18.0029 113.956 18.8864C113.489 19.7649 112.824 20.451 111.961 20.9445C111.103 21.4332 110.083 21.6775 108.9 21.6775ZM108.916 19.2343C109.454 19.2343 109.903 19.0863 110.263 18.7901C110.624 18.4891 110.895 18.0794 111.078 17.5611C111.266 17.0429 111.36 16.4531 111.36 15.7917C111.36 15.1303 111.266 14.5405 111.078 14.0223C110.895 13.504 110.624 13.0944 110.263 12.7933C109.903 12.4922 109.454 12.3417 108.916 12.3417C108.373 12.3417 107.916 12.4922 107.545 12.7933C107.18 13.0944 106.903 13.504 106.715 14.0223C106.533 14.5405 106.441 15.1303 106.441 15.7917C106.441 16.4531 106.533 17.0429 106.715 17.5611C106.903 18.0794 107.18 18.4891 107.545 18.7901C107.916 19.0863 108.373 19.2343 108.916 19.2343Z" fill="#1C1917"/>
<path d="M116.959 21.4919V6.32227H120.233V12.0257H120.332C120.476 11.7195 120.683 11.4084 120.955 11.0924C121.231 10.7714 121.59 10.5048 122.031 10.2924C122.477 10.0752 123.03 9.96653 123.691 9.96653C124.551 9.96653 125.346 10.1838 126.073 10.6184C126.8 11.048 127.382 11.6973 127.818 12.5664C128.253 13.4306 128.471 14.5145 128.471 15.8181C128.471 17.0872 128.258 18.1587 127.833 19.0328C127.413 19.9019 126.839 20.5611 126.112 21.0105C125.389 21.4549 124.58 21.6771 123.683 21.6771C123.048 21.6771 122.507 21.5759 122.062 21.3734C121.621 21.1709 121.26 20.9166 120.978 20.6105C120.696 20.2994 120.481 19.9858 120.332 19.6698H120.186V21.4919H116.959ZM120.164 15.8033C120.164 16.4798 120.261 17.0699 120.455 17.5736C120.65 18.0773 120.932 18.4698 121.301 18.7513C121.67 19.0278 122.118 19.1661 122.646 19.1661C123.178 19.1661 123.629 19.0254 123.998 18.7439C124.367 18.4575 124.646 18.0624 124.836 17.5588C125.03 17.0501 125.128 16.465 125.128 15.8033C125.128 15.1465 125.033 14.5688 124.843 14.07C124.654 13.5713 124.375 13.1812 124.006 12.8997C123.637 12.6183 123.184 12.4775 122.646 12.4775C122.113 12.4775 121.662 12.6133 121.293 12.8849C120.929 13.1565 120.65 13.5417 120.455 14.0404C120.261 14.5392 120.164 15.1268 120.164 15.8033Z" fill="#1C1917"/>
<mask id="mask0_811_50717" style="mask-type:luminance" maskUnits="userSpaceOnUse" x="0" y="0" width="29" height="28">
<path d="M0 2.31094C0 1.03464 1.05493 0 2.35625 0H18.1377C23.8877 0 28.549 4.57169 28.549 10.2111V17.7889C28.549 23.4283 23.8877 28 18.1377 28H10.4113C4.66133 28 0 23.4283 0 17.7889V2.31094Z" fill="white"/>
</mask>
<g mask="url(#mask0_811_50717)">
<path d="M0 2.31094C0 1.03464 1.05493 0 2.35625 0H18.1377C23.8877 0 28.549 4.57169 28.549 10.2111V17.7889C28.549 23.4283 23.8877 28 18.1377 28H10.4113C4.66133 28 0 23.4283 0 17.7889V2.31094Z" fill="#008DFF"/>
<path d="M17.4503 9.90807C17.371 9.17803 17.0369 8.60962 16.448 8.20278C15.8646 7.79597 15.1058 7.59258 14.1714 7.59258C13.5145 7.59258 12.951 7.69011 12.481 7.88514C12.0109 8.08019 11.6513 8.34489 11.4022 8.67927C11.153 9.01365 11.0255 9.39537 11.0199 9.82448C11.0199 10.1811 11.102 10.4905 11.2662 10.7524C11.4361 11.0143 11.6655 11.2372 11.9543 11.4211C12.2431 11.5994 12.5631 11.7499 12.9142 11.8725C13.2653 11.9951 13.6193 12.0982 13.976 12.1818L15.607 12.583C16.2639 12.7335 16.8953 12.9369 17.5013 13.1933C18.1129 13.4496 18.6594 13.7728 19.1408 14.1629C19.6278 14.553 20.0129 15.0239 20.296 15.5756C20.5792 16.1274 20.7208 16.7738 20.7208 17.515C20.7208 18.5181 20.4603 19.4014 19.9393 20.1649C19.4183 20.9228 18.665 21.5163 17.6797 21.9454C16.7 22.3689 15.5135 22.5807 14.1204 22.5807C12.7669 22.5807 11.5919 22.3745 10.5951 21.9621C9.60412 21.5497 8.82827 20.9479 8.26761 20.1565C7.71263 19.3652 7.41249 18.4011 7.36719 17.2642H10.4677C10.513 17.8605 10.6999 18.3565 11.0284 18.7521C11.3568 19.1478 11.7844 19.4432 12.3111 19.6382C12.8434 19.8333 13.438 19.9308 14.0949 19.9308C14.7802 19.9308 15.3805 19.8305 15.8958 19.6299C16.4168 19.4237 16.8245 19.1395 17.119 18.7772C17.4135 18.4094 17.5636 17.9803 17.5693 17.4899C17.5636 17.0441 17.4305 16.6763 17.17 16.3865C16.9095 16.0911 16.5442 15.8459 16.0742 15.6509C15.6098 15.4502 15.0662 15.2719 14.4432 15.1159L12.464 14.6143C11.0312 14.2521 9.89858 13.7032 9.06612 12.9676C8.23929 12.2264 7.82591 11.2428 7.82591 10.0168C7.82591 9.00807 8.10338 8.12477 8.65836 7.36688C9.21902 6.60896 9.98069 6.02104 10.9434 5.60307C11.9061 5.17953 12.9963 4.96777 14.2139 4.96777C15.4484 4.96777 16.5301 5.17953 17.4588 5.60307C18.3932 6.02104 19.1266 6.60339 19.6589 7.35015C20.1913 8.09134 20.4659 8.94397 20.4829 9.90807H17.4503Z" fill="white"/>
</g>
</g>
<defs>
<clipPath id="clip0_811_50717">
<rect width="128.471" height="28" fill="white"/>
</clipPath>
</defs>
</svg>
