<svg width="24" height="24" viewBox="0 0 24 24" fill="none" xmlns="http://www.w3.org/2000/svg">
<path d="M4.4734 19.5256H5.55389L16.4325 8.63983L15.352 7.55862L4.4734 18.4444V19.5256ZM19.5512 7.58319L16.4079 4.43786L17.4349 3.41015C17.7162 3.12876 18.0655 2.99216 18.4829 3.00035C18.9004 3.00854 19.2483 3.15188 19.5266 3.43037L20.5825 4.48701C20.8608 4.7655 21 5.10952 21 5.51907C21 5.92862 20.8611 6.27234 20.5834 6.55022L19.5512 7.58319ZM3.74473 21C3.53372 21 3.35685 20.9286 3.21411 20.7859C3.07137 20.6431 3 20.4662 3 20.2552V18.1511C3 18.0518 3.01637 17.9612 3.04911 17.8792C3.08186 17.7973 3.13915 17.7154 3.22101 17.6335L15.3765 5.46992L18.5198 8.61526L6.36426 20.7788C6.2824 20.8608 6.19877 20.9181 6.11336 20.9509C6.02794 20.9836 5.93967 21 5.84857 21H3.74473ZM15.8922 8.09923L15.352 7.55862L16.4325 8.63983L15.8922 8.09923Z" fill="#555351"/>
</svg>
