<svg width="25" height="24" viewBox="0 0 25 24" fill="none" xmlns="http://www.w3.org/2000/svg">
<path d="M4.9734 19.5256H6.05389L16.9325 8.63983L15.852 7.55862L4.9734 18.4444V19.5256ZM20.0512 7.58319L16.9079 4.43786L17.9349 3.41015C18.2162 3.12876 18.5655 2.99216 18.9829 3.00035C19.4004 3.00854 19.7483 3.15188 20.0266 3.43037L21.0825 4.48701C21.3608 4.7655 21.5 5.10952 21.5 5.51907C21.5 5.92862 21.3611 6.27234 21.0834 6.55022L20.0512 7.58319ZM4.24473 21C4.03372 21 3.85685 20.9286 3.71411 20.7859C3.57137 20.6431 3.5 20.4662 3.5 20.2552V18.1511C3.5 18.0518 3.51637 17.9612 3.54911 17.8792C3.58186 17.7973 3.63915 17.7154 3.72101 17.6335L15.8765 5.46992L19.0198 8.61526L6.86426 20.7788C6.7824 20.8608 6.69877 20.9181 6.61336 20.9509C6.52794 20.9836 6.43967 21 6.34857 21H4.24473ZM16.3922 8.09923L15.852 7.55862L16.9325 8.63983L16.3922 8.09923Z" fill="#8D8C8B"/>
</svg>
