<svg width="24" height="24" viewBox="0 0 24 24" fill="none" xmlns="http://www.w3.org/2000/svg">
<path d="M11.5 12.546L6.27012 17.7759C6.12069 17.9253 5.94636 18 5.74713 18C5.54789 18 5.37356 17.9253 5.22414 17.7759C5.07471 17.6264 5 17.4521 5 17.2529C5 17.0536 5.07471 16.8793 5.22414 16.7299L10.454 11.5L5.22414 6.27012C5.07471 6.12069 5 5.94636 5 5.74713C5 5.54789 5.07471 5.37356 5.22414 5.22414C5.37356 5.07471 5.54789 5 5.74713 5C5.94636 5 6.12069 5.07471 6.27012 5.22414L11.5 10.454L16.7299 5.22414C16.8793 5.07471 17.0536 5 17.2529 5C17.4521 5 17.6264 5.07471 17.7759 5.22414C17.9253 5.37356 18 5.54789 18 5.74713C18 5.94636 17.9253 6.12069 17.7759 6.27012L12.546 11.5L17.7759 16.7299C17.9253 16.8793 18 17.0536 18 17.2529C18 17.4521 17.9253 17.6264 17.7759 17.7759C17.6264 17.9253 17.4521 18 17.2529 18C17.0536 18 16.8793 17.9253 16.7299 17.7759L11.5 12.546Z" fill="#555351"/>
</svg>
