<svg width="155" height="44" viewBox="0 0 155 44" fill="none" xmlns="http://www.w3.org/2000/svg">
<g clip-path="url(#clip0_135_14)">
<path d="M149.286 0.354492H5.71456C2.7559 0.354492 0.357422 2.73749 0.357422 5.67707V38.3222C0.357422 41.2618 2.7559 43.6448 5.71456 43.6448H149.286C152.245 43.6448 154.643 41.2618 154.643 38.3222V5.67707C154.643 2.73749 152.245 0.354492 149.286 0.354492Z" fill="white"/>
<mask id="mask0_135_14" style="mask-type:luminance" maskUnits="userSpaceOnUse" x="7" y="7" width="30" height="30">
<path d="M36.4289 7.80646H7.85742V36.1936H36.4289V7.80646Z" fill="white"/>
</mask>
<g mask="url(#mask0_135_14)">
<mask id="mask1_135_14" style="mask-type:luminance" maskUnits="userSpaceOnUse" x="7" y="7" width="30" height="30">
<path d="M36.4289 7.80646H7.85742V36.1936H36.4289V7.80646Z" fill="white"/>
</mask>
<g mask="url(#mask1_135_14)">
<path d="M14.4422 8.25319C13.7913 7.83534 13.0095 7.70901 12.2762 7.88097L25.1631 20.6847L29.3397 16.535L14.4422 8.25319Z" fill="#212527"/>
<path d="M10.6766 8.92157C10.3172 9.39634 10.1104 9.97927 10.1104 10.5959V33.403C10.1104 34.0197 10.3172 34.6026 10.6766 35.0774L23.8394 21.9995L10.6766 8.92157Z" fill="#212527"/>
<path d="M34.7905 19.5653L31.0368 17.4786L26.4864 21.9996L31.0371 26.521L34.7911 24.4341C35.6905 23.9334 36.2274 23.0235 36.2274 21.9996C36.2274 20.9759 35.6905 20.066 34.7905 19.5653Z" fill="#212527"/>
<path d="M25.1633 23.3143L12.2773 36.1172C12.4886 36.1666 12.7036 36.1932 12.9186 36.1932C13.45 36.1932 13.9795 36.043 14.4426 35.7458L29.3402 27.464L25.1633 23.3143Z" fill="#212527"/>
</g>
</g>
<path d="M43.7725 12.0641H44.5648L46.1497 14.7144H46.2166L47.8015 12.0641H48.5939L46.5291 15.4018V17.7416H45.8372V15.4018L43.7725 12.0641ZM51.7858 16.0006V13.4835H52.4443V17.7416H51.7858V17.0208H51.7412C51.6407 17.237 51.4845 17.4209 51.2725 17.5724C51.0604 17.7222 50.7925 17.797 50.4688 17.797C50.201 17.797 49.9629 17.7388 49.7546 17.6223C49.5462 17.5041 49.3825 17.3267 49.2635 17.0901C49.1445 16.8517 49.085 16.5514 49.085 16.1891V13.4835H49.7434V16.1448C49.7434 16.4553 49.8308 16.7029 50.0057 16.8877C50.1824 17.0725 50.4075 17.1649 50.6809 17.1649C50.8446 17.1649 51.0111 17.1234 51.1803 17.0402C51.3515 16.957 51.4947 16.8295 51.61 16.6577C51.7272 16.4858 51.7858 16.2668 51.7858 16.0006ZM54.2642 16.1891L54.253 15.3797H54.387L56.262 13.4835H57.0767L55.079 15.4905H55.0231L54.2642 16.1891ZM53.6504 17.7416V12.0641H54.3088V17.7416H53.6504ZM56.3736 17.7416L54.6995 15.6347L55.1682 15.18L57.2106 17.7416H56.3736ZM58.5827 12.0641V17.7416H57.9242V12.0641H58.5827ZM61.0499 17.8413C60.7783 17.8413 60.5319 17.7905 60.3105 17.6889C60.0892 17.5854 59.9134 17.4366 59.7832 17.2426C59.653 17.0466 59.5879 16.8101 59.5879 16.5329C59.5879 16.2889 59.6362 16.0912 59.733 15.9396C59.8297 15.7863 59.959 15.6661 60.1207 15.5792C60.2826 15.4924 60.4612 15.4277 60.6565 15.3852C60.8537 15.3409 61.0517 15.3057 61.2508 15.2799C61.5112 15.2466 61.7223 15.2216 61.8842 15.205C62.0479 15.1865 62.1669 15.1561 62.2413 15.1136C62.3176 15.071 62.3557 14.9971 62.3557 14.8918V14.8696C62.3557 14.5961 62.2804 14.3835 62.1297 14.232C61.9809 14.0804 61.7549 14.0047 61.4517 14.0047C61.1373 14.0047 60.8909 14.073 60.7123 14.2098C60.5337 14.3465 60.4082 14.4926 60.3356 14.6478L59.7106 14.426C59.8222 14.1673 59.971 13.9659 60.157 13.8217C60.3449 13.6757 60.5495 13.574 60.7709 13.5168C60.9941 13.4576 61.2136 13.4281 61.4294 13.4281C61.567 13.4281 61.7251 13.4447 61.9037 13.478C62.0841 13.5094 62.258 13.575 62.4255 13.6748C62.5947 13.7746 62.7352 13.9252 62.8468 14.1266C62.9584 14.3281 63.0142 14.5979 63.0142 14.9361V17.7416H62.3557V17.1649H62.3222C62.2776 17.2573 62.2032 17.3562 62.099 17.4616C61.9948 17.5669 61.8562 17.6565 61.6832 17.7305C61.5103 17.8044 61.2992 17.8413 61.0499 17.8413ZM61.1504 17.2537C61.4107 17.2537 61.6302 17.2028 61.8088 17.1012C61.9892 16.9995 62.125 16.8683 62.2162 16.7076C62.3092 16.5467 62.3557 16.3776 62.3557 16.2002V15.6015C62.3278 15.6347 62.2665 15.6652 62.1715 15.6929C62.0785 15.7188 61.9707 15.7419 61.8479 15.7622C61.727 15.7807 61.6089 15.7973 61.4935 15.8121C61.3801 15.8251 61.288 15.8361 61.2173 15.8454C61.0462 15.8676 60.8862 15.9036 60.7374 15.9535C60.5905 16.0016 60.4714 16.0745 60.3802 16.1725C60.291 16.2686 60.2463 16.3998 60.2463 16.5661C60.2463 16.7935 60.331 16.9653 60.5002 17.0818C60.6714 17.1964 60.8881 17.2537 61.1504 17.2537ZM64.3053 17.7416V12.0641H64.9638V14.1599H65.0196C65.068 14.086 65.135 13.9917 65.2205 13.8772C65.308 13.7607 65.4326 13.6572 65.5944 13.5667C65.7581 13.4743 65.9795 13.4281 66.2585 13.4281C66.6193 13.4281 66.9374 13.5177 67.2127 13.697C67.488 13.8762 67.7029 14.1304 67.8572 14.4593C68.0116 14.7882 68.0888 15.1764 68.0888 15.6236C68.0888 16.0745 68.0116 16.4654 67.8572 16.7963C67.7029 17.1252 67.489 17.3803 67.2155 17.5614C66.9421 17.7406 66.6267 17.8303 66.2696 17.8303C65.9943 17.8303 65.7739 17.785 65.6084 17.6944C65.4428 17.602 65.3154 17.4976 65.2261 17.3812C65.1368 17.2629 65.068 17.1649 65.0196 17.0873H64.9415V17.7416H64.3053ZM64.9527 15.6125C64.9527 15.9341 65.0001 16.2178 65.095 16.4636C65.1898 16.7076 65.3284 16.8988 65.5107 17.0374C65.693 17.1742 65.9162 17.2426 66.1803 17.2426C66.4557 17.2426 66.6854 17.1705 66.8695 17.0263C67.0555 16.8804 67.195 16.6844 67.288 16.4387C67.3829 16.191 67.4303 15.9156 67.4303 15.6125C67.4303 15.3131 67.3838 15.0433 67.2908 14.8031C67.1997 14.5609 67.0611 14.3697 66.8751 14.2292C66.691 14.0869 66.4594 14.0158 66.1803 14.0158C65.9125 14.0158 65.6874 14.0832 65.5051 14.2182C65.3228 14.3512 65.1852 14.5379 65.0922 14.7781C64.9992 15.0165 64.9527 15.2947 64.9527 15.6125ZM73.0472 17.8303C72.6601 17.8303 72.3208 17.7388 72.0287 17.5558C71.7387 17.3729 71.5115 17.1169 71.3477 16.7879C71.186 16.459 71.105 16.0745 71.105 15.6347C71.105 15.1911 71.186 14.804 71.3477 14.4731C71.5115 14.1424 71.7387 13.8855 72.0287 13.7025C72.3208 13.5195 72.6601 13.4281 73.0472 13.4281C73.4337 13.4281 73.7722 13.5195 74.063 13.7025C74.3544 13.8855 74.5815 14.1424 74.7437 14.4731C74.9072 14.804 74.9887 15.1911 74.9887 15.6347C74.9887 16.0745 74.9072 16.459 74.7437 16.7879C74.5815 17.1169 74.3544 17.3729 74.063 17.5558C73.7722 17.7388 73.4337 17.8303 73.0472 17.8303ZM73.0472 17.2426C73.3408 17.2426 73.583 17.1677 73.7722 17.018C73.9622 16.8683 74.1022 16.6715 74.1937 16.4275C74.2851 16.1836 74.3308 15.9193 74.3308 15.6347C74.3308 15.3501 74.2851 15.0849 74.1937 14.8391C74.1022 14.5933 73.9622 14.3946 73.7722 14.2431C73.583 14.0915 73.3408 14.0158 73.0472 14.0158C72.753 14.0158 72.5115 14.0915 72.3215 14.2431C72.1315 14.3946 71.9915 14.5933 71.9001 14.8391C71.8094 15.0849 71.7637 15.3501 71.7637 15.6347C71.7637 15.9193 71.8094 16.1836 71.9001 16.4275C71.9915 16.6715 72.1315 16.8683 72.3215 17.018C72.5115 17.1677 72.753 17.2426 73.0472 17.2426ZM76.6522 12.0641V17.7416H75.9944V12.0641H76.6522ZM77.8587 17.7416V13.4835H78.5172V17.7416H77.8587ZM78.1937 12.7738C78.0651 12.7738 77.9544 12.7304 77.8615 12.6435C77.7701 12.5567 77.7244 12.4523 77.7244 12.3303C77.7244 12.2083 77.7701 12.1039 77.8615 12.017C77.9544 11.9302 78.0651 11.8867 78.1937 11.8867C78.3215 11.8867 78.4315 11.9302 78.523 12.017C78.6158 12.1039 78.6622 12.2083 78.6622 12.3303C78.6622 12.4523 78.6158 12.5567 78.523 12.6435C78.4315 12.7304 78.3215 12.7738 78.1937 12.7738ZM80.3815 15.18V17.7416H79.723V13.4835H80.3594V14.1488H80.4151C80.5158 13.9326 80.668 13.7588 80.873 13.6276C81.0772 13.4946 81.3415 13.4281 81.6651 13.4281C81.9551 13.4281 82.2094 13.4872 82.4265 13.6055C82.6444 13.7219 82.8137 13.8993 82.9344 14.1377C83.0558 14.3743 83.1158 14.6737 83.1158 15.0359V17.7416H82.4572V15.0803C82.4572 14.7457 82.3701 14.4852 82.1951 14.2985C82.0201 14.11 81.7808 14.0158 81.4751 14.0158C81.2651 14.0158 81.0772 14.061 80.9115 14.1516C80.748 14.2421 80.6187 14.3743 80.5237 14.548C80.4294 14.7217 80.3815 14.9324 80.3815 15.18ZM86.0494 19.427C85.7308 19.427 85.458 19.3864 85.2287 19.305C85.0001 19.2256 84.8094 19.1202 84.6572 18.989C84.5065 18.8597 84.3865 18.7211 84.2972 18.5732L84.8215 18.2073C84.8808 18.2849 84.9565 18.3736 85.0472 18.4734C85.1387 18.5751 85.263 18.6629 85.4215 18.7367C85.5815 18.8125 85.7908 18.8504 86.0494 18.8504C86.3951 18.8504 86.6808 18.7673 86.9058 18.6009C87.1308 18.4346 87.2437 18.174 87.2437 17.8192V16.9542H87.188C87.1394 17.0319 87.0701 17.128 86.9808 17.2426C86.8937 17.3553 86.7672 17.4561 86.6015 17.5448C86.438 17.6316 86.2165 17.675 85.938 17.675C85.5915 17.675 85.2808 17.5937 85.0058 17.4311C84.7322 17.2684 84.5158 17.0319 84.3558 16.7214C84.1972 16.4109 84.1187 16.0339 84.1187 15.5903C84.1187 15.1542 84.1958 14.7744 84.3501 14.451C84.5044 14.1257 84.7194 13.8744 84.9944 13.697C85.2701 13.5177 85.588 13.4281 85.9487 13.4281C86.228 13.4281 86.4494 13.4743 86.613 13.5667C86.7787 13.6572 86.9051 13.7607 86.9922 13.8772C87.0815 13.9917 87.1501 14.086 87.1987 14.1599H87.2658V13.4835H87.9022V17.8636C87.9022 18.2295 87.818 18.527 87.6508 18.7562C87.4851 18.9872 87.2622 19.1563 86.9808 19.2635C86.7022 19.3725 86.3915 19.427 86.0494 19.427ZM86.0272 17.0873C86.2908 17.0873 86.5144 17.0273 86.6965 16.9071C86.8787 16.787 87.0172 16.6142 87.1122 16.3888C87.2072 16.1632 87.2544 15.8934 87.2544 15.5792C87.2544 15.2724 87.208 15.0017 87.1151 14.767C87.0222 14.5323 86.8844 14.3484 86.7022 14.2153C86.5201 14.0822 86.2951 14.0158 86.0272 14.0158C85.748 14.0158 85.5151 14.086 85.3294 14.2265C85.1451 14.3669 85.0065 14.5554 84.9137 14.792C84.8222 15.0285 84.7772 15.291 84.7772 15.5792C84.7772 15.875 84.8237 16.1365 84.9165 16.3638C85.0115 16.5893 85.1508 16.7667 85.3351 16.896C85.5208 17.0236 85.7515 17.0873 86.0272 17.0873Z" fill="black"/>
<path d="M51.9318 26.9678C51.8202 26.6284 51.6731 26.3243 51.4904 26.0555C51.3112 25.7833 51.0964 25.5515 50.8462 25.3599C50.5993 25.1684 50.3186 25.0222 50.0041 24.9214C49.6895 24.8206 49.3446 24.7702 48.9691 24.7702C48.3536 24.7702 47.7939 24.9281 47.29 25.2439C46.7861 25.5598 46.3853 26.0252 46.0876 26.6402C45.7901 27.255 45.6412 28.0094 45.6412 28.9033C45.6412 29.797 45.7917 30.5514 46.0927 31.1663C46.3937 31.7813 46.8013 32.2466 47.3154 32.5625C47.8294 32.8784 48.4077 33.0363 49.0504 33.0363C49.6456 33.0363 50.1698 32.9103 50.623 32.6583C51.0796 32.4029 51.4346 32.0434 51.6883 31.5797C51.9454 31.1126 52.0738 30.5632 52.0738 29.9314L52.4594 30.0121H49.3344V28.9033H53.2914V30.0121C53.2914 30.8622 53.1088 31.6015 52.7435 32.2299C52.3816 32.8582 51.8811 33.3454 51.2419 33.6915C50.6061 34.0343 49.8756 34.2057 49.0504 34.2057C48.1304 34.2057 47.3221 33.9906 46.6254 33.5605C45.9321 33.1304 45.3909 32.5188 45.002 31.7258C44.6165 30.9328 44.4237 29.992 44.4237 28.9033C44.4237 28.0867 44.5336 27.3525 44.7534 26.7006C44.9766 26.0454 45.2912 25.4876 45.6971 25.0272C46.1028 24.5669 46.5831 24.2141 47.1378 23.9687C47.6924 23.7235 48.3029 23.6008 48.9691 23.6008C49.5171 23.6008 50.0277 23.6832 50.5012 23.8478C50.9781 24.0091 51.4025 24.2393 51.7746 24.5383C52.1499 24.834 52.4628 25.1885 52.7131 25.6018C52.9634 26.0117 53.1358 26.4671 53.2305 26.9678H51.9318ZM58.4494 34.2258C57.7459 34.2258 57.1287 34.0595 56.5978 33.7268C56.0701 33.3942 55.6576 32.9288 55.3599 32.3306C55.0657 31.7325 54.9186 31.0336 54.9186 30.2339C54.9186 29.4274 55.0657 28.7235 55.3599 28.122C55.6576 27.5205 56.0701 27.0534 56.5978 26.7208C57.1287 26.3881 57.7459 26.2218 58.4494 26.2218C59.1529 26.2218 59.7684 26.3881 60.296 26.7208C60.827 27.0534 61.2396 27.5205 61.5338 28.122C61.8314 28.7235 61.9803 29.4274 61.9803 30.2339C61.9803 31.0336 61.8314 31.7325 61.5338 32.3306C61.2396 32.9288 60.827 33.3942 60.296 33.7268C59.7684 34.0595 59.1529 34.2258 58.4494 34.2258ZM58.4494 33.1573C58.9838 33.1573 59.4234 33.0212 59.7684 32.749C60.1133 32.4768 60.3687 32.1189 60.5344 31.6754C60.7001 31.2318 60.783 30.7513 60.783 30.2339C60.783 29.7164 60.7001 29.2343 60.5344 28.7873C60.3687 28.3404 60.1133 27.9792 59.7684 27.7036C59.4234 27.4281 58.9838 27.2903 58.4494 27.2903C57.9151 27.2903 57.4754 27.4281 57.1304 27.7036C56.7854 27.9792 56.5301 28.3404 56.3644 28.7873C56.1986 29.2343 56.1158 29.7164 56.1158 30.2339C56.1158 30.7513 56.1986 31.2318 56.3644 31.6754C56.5301 32.1189 56.7854 32.4768 57.1304 32.749C57.4754 33.0212 57.9151 33.1573 58.4494 33.1573ZM66.9734 34.2258C66.2699 34.2258 65.6527 34.0595 65.1218 33.7268C64.5941 33.3942 64.1816 32.9288 63.8839 32.3306C63.5897 31.7325 63.4426 31.0336 63.4426 30.2339C63.4426 29.4274 63.5897 28.7235 63.8839 28.122C64.1816 27.5205 64.5941 27.0534 65.1218 26.7208C65.6527 26.3881 66.2699 26.2218 66.9734 26.2218C67.6769 26.2218 68.2924 26.3881 68.82 26.7208C69.351 27.0534 69.7636 27.5205 70.0579 28.122C70.3554 28.7235 70.5043 29.4274 70.5043 30.2339C70.5043 31.0336 70.3554 31.7325 70.0579 32.3306C69.7636 32.9288 69.351 33.3942 68.82 33.7268C68.2924 34.0595 67.6769 34.2258 66.9734 34.2258ZM66.9734 33.1573C67.5078 33.1573 67.9474 33.0212 68.2924 32.749C68.6373 32.4768 68.8927 32.1189 69.0584 31.6754C69.2241 31.2318 69.307 30.7513 69.307 30.2339C69.307 29.7164 69.2241 29.2343 69.0584 28.7873C68.8927 28.3404 68.6373 27.9792 68.2924 27.7036C67.9474 27.4281 67.5078 27.2903 66.9734 27.2903C66.4391 27.2903 65.9993 27.4281 65.6544 27.7036C65.3094 27.9792 65.0541 28.3404 64.8884 28.7873C64.7226 29.2343 64.6398 29.7164 64.6398 30.2339C64.6398 30.7513 64.7226 31.2318 64.8884 31.6754C65.0541 32.1189 65.3094 32.4768 65.6544 32.749C65.9993 33.0212 66.4391 33.1573 66.9734 33.1573ZM75.4771 37.1291C74.8986 37.1291 74.4014 37.0551 73.9857 36.9073C73.57 36.7628 73.2229 36.5712 72.9457 36.3327C72.6714 36.0975 72.4536 35.8455 72.2914 35.5766L73.245 34.9113C73.3528 35.0524 73.49 35.2137 73.6557 35.3952C73.8214 35.58 74.0478 35.7396 74.3357 35.874C74.6264 36.0117 75.0071 36.0807 75.4771 36.0807C76.1064 36.0807 76.625 35.9294 77.0343 35.627C77.4436 35.3246 77.6486 34.8508 77.6486 34.2057V32.6331H77.5471C77.4593 32.7742 77.3336 32.9489 77.1714 33.1573C77.0129 33.3622 76.7828 33.5454 76.4814 33.7066C76.1843 33.8646 75.7814 33.9435 75.2743 33.9435C74.645 33.9435 74.08 33.7957 73.58 33.5C73.0829 33.2043 72.6886 32.7742 72.3979 32.2097C72.11 31.6452 71.9664 30.9597 71.9664 30.1532C71.9664 29.3602 72.1071 28.6697 72.3879 28.0817C72.6686 27.4903 73.0593 27.0333 73.5593 26.7107C74.06 26.3848 74.6386 26.2218 75.2943 26.2218C75.8021 26.2218 76.2043 26.3058 76.5021 26.4738C76.8028 26.6385 77.0329 26.8266 77.1921 27.0383C77.3543 27.2467 77.4793 27.418 77.5671 27.5525H77.6893V26.3226H78.8457V34.2863C78.8457 34.9516 78.6936 35.4926 78.3893 35.9093C78.0879 36.3293 77.6821 36.6368 77.1714 36.8316C76.6643 37.0299 76.0993 37.1291 75.4771 37.1291ZM75.4364 32.875C75.9164 32.875 76.3229 32.7658 76.6543 32.5474C76.9857 32.329 77.2371 32.0148 77.41 31.6049C77.5821 31.1949 77.6686 30.7043 77.6686 30.1331C77.6686 29.5753 77.5843 29.083 77.415 28.6563C77.2457 28.2295 76.9957 27.8952 76.6643 27.6532C76.3329 27.4113 75.9236 27.2903 75.4364 27.2903C74.9293 27.2903 74.5064 27.418 74.1686 27.6734C73.8336 27.9288 73.5814 28.2715 73.4121 28.7016C73.2464 29.1317 73.1636 29.6089 73.1636 30.1331C73.1636 30.6707 73.2486 31.1462 73.4171 31.5595C73.59 31.9694 73.8436 32.292 74.1786 32.5272C74.5164 32.7591 74.9357 32.875 75.4364 32.875ZM82.2343 23.7419V34.0645H81.0371V23.7419H82.2343ZM87.6943 34.2258C86.9436 34.2258 86.2957 34.0612 85.7514 33.7318C85.21 33.3992 84.7928 32.9355 84.4986 32.3407C84.2071 31.7426 84.0621 31.047 84.0621 30.2541C84.0621 29.4611 84.2071 28.7621 84.4986 28.1572C84.7928 27.5491 85.2014 27.0753 85.7257 26.7359C86.2536 26.3931 86.8693 26.2218 87.5728 26.2218C87.9786 26.2218 88.3793 26.289 88.775 26.4234C89.1707 26.5578 89.5307 26.7762 89.8557 27.0786C90.18 27.3777 90.4386 27.7742 90.6314 28.2682C90.8243 28.7621 90.9207 29.3703 90.9207 30.0927V30.5968H84.9143V29.5686H89.7036C89.7036 29.1317 89.615 28.7419 89.4393 28.3992C89.2671 28.0565 89.02 27.7859 88.6986 27.5877C88.3807 27.3894 88.0057 27.2903 87.5728 27.2903C87.0957 27.2903 86.6829 27.408 86.335 27.6432C85.99 27.875 85.7243 28.1774 85.5386 28.5504C85.3521 28.9234 85.2593 29.3232 85.2593 29.75V30.4355C85.2593 31.0202 85.3607 31.5158 85.5636 31.9224C85.77 32.3256 86.0557 32.6331 86.4207 32.8447C86.7864 33.0531 87.2107 33.1573 87.6943 33.1573C88.0086 33.1573 88.2928 33.1136 88.5464 33.0262C88.8036 32.9355 89.025 32.8011 89.2114 32.623C89.3971 32.4416 89.5407 32.2164 89.6421 31.9476L90.7993 32.2702C90.6771 32.6599 90.4729 33.0027 90.185 33.2984C89.8979 33.5907 89.5429 33.8193 89.12 33.9839C88.6971 34.1451 88.2221 34.2258 87.6943 34.2258ZM96.9221 34.0645V23.7419H100.433C101.248 23.7419 101.914 23.8881 102.431 24.1804C102.952 24.4694 103.338 24.8609 103.588 25.3549C103.839 25.8488 103.964 26.3999 103.964 27.0081C103.964 27.6163 103.839 28.169 103.588 28.6664C103.341 29.1636 102.959 29.5601 102.441 29.8559C101.924 30.1482 101.261 30.2944 100.453 30.2944H97.9371V29.1855H100.412C100.971 29.1855 101.419 29.0898 101.757 28.8982C102.095 28.7067 102.34 28.4479 102.492 28.122C102.648 27.7927 102.726 27.4214 102.726 27.0081C102.726 26.5947 102.648 26.2251 102.492 25.8992C102.34 25.5732 102.094 25.3179 101.751 25.1331C101.41 24.9449 100.957 24.8508 100.392 24.8508H98.18V34.0645H96.9221ZM107.025 23.7419V34.0645H105.828V23.7419H107.025ZM111.511 34.246C111.017 34.246 110.569 34.1536 110.166 33.9688C109.764 33.7806 109.444 33.5101 109.208 33.1573C108.971 32.8011 108.853 32.371 108.853 31.8669C108.853 31.4234 108.941 31.0639 109.116 30.7883C109.292 30.5094 109.527 30.291 109.821 30.1331C110.116 29.9752 110.441 29.8576 110.796 29.7803C111.154 29.6996 111.514 29.6358 111.876 29.5887C112.35 29.5283 112.734 29.4829 113.028 29.4526C113.326 29.419 113.542 29.3636 113.677 29.2863C113.816 29.209 113.885 29.0746 113.885 28.8831V28.8427C113.885 28.3454 113.749 27.959 113.474 27.6835C113.204 27.408 112.793 27.2701 112.241 27.2701C111.67 27.2701 111.222 27.3945 110.897 27.6432C110.572 27.8918 110.344 28.1572 110.212 28.4396L109.076 28.0363C109.279 27.5659 109.549 27.1996 109.888 26.9375C110.229 26.672 110.601 26.4872 111.004 26.3831C111.409 26.2755 111.809 26.2218 112.201 26.2218C112.451 26.2218 112.739 26.252 113.064 26.3125C113.391 26.3696 113.708 26.4889 114.012 26.6704C114.32 26.8518 114.575 27.1257 114.778 27.4919C114.981 27.8582 115.082 28.3488 115.082 28.9637V34.0645H113.885V33.0161H113.824C113.743 33.1842 113.608 33.3639 113.419 33.5555C113.229 33.747 112.977 33.91 112.663 34.0444C112.348 34.1788 111.964 34.246 111.511 34.246ZM111.694 33.1774C112.167 33.1774 112.566 33.085 112.891 32.9002C113.219 32.7154 113.466 32.4768 113.631 32.1845C113.801 31.8921 113.885 31.5847 113.885 31.2621V30.1734C113.834 30.2339 113.723 30.2893 113.551 30.3397C113.381 30.3868 113.185 30.4288 112.962 30.4658C112.742 30.4993 112.527 30.5296 112.318 30.5565C112.111 30.58 111.944 30.6002 111.816 30.6169C111.504 30.6573 111.214 30.7228 110.943 30.8135C110.676 30.9009 110.459 31.0336 110.294 31.2117C110.131 31.3864 110.05 31.625 110.05 31.9274C110.05 32.3407 110.204 32.6533 110.511 32.865C110.823 33.0732 111.216 33.1774 111.694 33.1774ZM117.76 36.9677C117.557 36.9677 117.376 36.9509 117.217 36.9174C117.058 36.8871 116.948 36.8569 116.887 36.8266L117.191 35.7783C117.482 35.8521 117.739 35.879 117.963 35.8589C118.186 35.8387 118.384 35.7396 118.556 35.5615C118.732 35.3868 118.893 35.1029 119.038 34.7097L119.261 34.1048L116.38 26.3226H117.679L119.829 32.492H119.911L122.061 26.3226H123.361L120.053 35.1936C119.904 35.5935 119.719 35.9244 119.5 36.1865C119.28 36.452 119.024 36.6485 118.734 36.7762C118.446 36.9039 118.121 36.9677 117.76 36.9677Z" fill="black"/>
<path d="M149.286 0.354492H5.71456C2.7559 0.354492 0.357422 2.73749 0.357422 5.67707V38.3222C0.357422 41.2618 2.7559 43.6448 5.71456 43.6448H149.286C152.245 43.6448 154.643 41.2618 154.643 38.3222V5.67707C154.643 2.73749 152.245 0.354492 149.286 0.354492Z" stroke="black"/>
</g>
<defs>
<clipPath id="clip0_135_14">
<rect width="155" height="44" fill="white"/>
</clipPath>
</defs>
</svg>
