<svg width="118" height="159" viewBox="0 0 118 159" fill="none" xmlns="http://www.w3.org/2000/svg">
<path d="M115.953 0.488102C116.755 0.27883 117.574 0.758974 117.783 1.56053C117.993 2.36209 117.513 3.18153 116.711 3.3908L115.953 0.488102ZM2.44932 112.094L0.950361 112.15L2.44932 112.094ZM96.5 146L84.1119 158.105L79.8226 141.324L96.5 146ZM116.332 1.93945C116.711 3.3908 116.711 3.3908 116.711 3.39091C116.71 3.39111 116.709 3.39134 116.707 3.39172C116.705 3.39249 116.7 3.39373 116.693 3.39543C116.68 3.39884 116.661 3.40411 116.634 3.41126C116.58 3.42556 116.499 3.44736 116.391 3.47674C116.175 3.53549 115.852 3.62452 115.43 3.74441C114.586 3.9842 113.344 4.34736 111.762 4.83841C108.597 5.82061 104.072 7.31393 98.6497 9.35439C87.7992 13.4372 73.3775 19.7012 59.061 28.4292C30.3498 45.9326 2.49898 73.0584 3.94829 112.038L0.950361 112.15C-0.561748 71.4806 28.5287 43.5293 57.4993 25.8677C72.0236 17.0131 86.6279 10.6726 97.5931 6.54659C103.078 4.48262 107.659 2.97043 110.873 1.97321C112.479 1.47456 113.745 1.10454 114.611 0.858572C115.044 0.735585 115.377 0.643602 115.603 0.58205C115.716 0.551274 115.802 0.528105 115.861 0.512471C115.89 0.504654 115.913 0.498721 115.928 0.494662C115.936 0.492633 115.942 0.491072 115.946 0.489979C115.948 0.489433 115.95 0.488964 115.951 0.488691C115.952 0.488338 115.953 0.488102 116.332 1.93945ZM3.94829 112.038C4.54089 127.976 13.8148 138.992 28.2147 145.046C42.6865 151.129 62.2926 152.154 83.1164 147.874L83.7202 150.813C62.5063 155.172 42.2461 154.199 27.052 147.811C11.786 141.394 1.59419 129.465 0.950361 112.15L3.94829 112.038Z" fill="white" fill-opacity="0.24"/>
</svg>
