<svg width="18" height="18" viewBox="0 0 18 18" fill="none" xmlns="http://www.w3.org/2000/svg">
<g clip-path="url(#clip0_1333_95491)">
<path d="M8.9925 1.49756C4.8525 1.49756 1.5 4.85756 1.5 8.99756C1.5 13.1376 4.8525 16.4976 8.9925 16.4976C13.14 16.4976 16.5 13.1376 16.5 8.99756C16.5 4.85756 13.14 1.49756 8.9925 1.49756ZM14.19 5.99756H11.9775C11.7375 5.06006 11.3925 4.16006 10.9425 3.32756C12.3225 3.80006 13.47 4.76006 14.19 5.99756ZM9 3.02756C9.6225 3.92756 10.11 4.92506 10.4325 5.99756H7.5675C7.89 4.92506 8.3775 3.92756 9 3.02756ZM3.195 10.4976C3.075 10.0176 3 9.51506 3 8.99756C3 8.48006 3.075 7.97756 3.195 7.49756H5.73C5.67 7.99256 5.625 8.48756 5.625 8.99756C5.625 9.50756 5.67 10.0026 5.73 10.4976H3.195ZM3.81 11.9976H6.0225C6.2625 12.9351 6.6075 13.8351 7.0575 14.6676C5.6775 14.1951 4.53 13.2426 3.81 11.9976ZM6.0225 5.99756H3.81C4.53 4.75256 5.6775 3.80006 7.0575 3.32756C6.6075 4.16006 6.2625 5.06006 6.0225 5.99756ZM9 14.9676C8.3775 14.0676 7.89 13.0701 7.5675 11.9976H10.4325C10.11 13.0701 9.6225 14.0676 9 14.9676ZM10.755 10.4976H7.245C7.1775 10.0026 7.125 9.50756 7.125 8.99756C7.125 8.48756 7.1775 7.98506 7.245 7.49756H10.755C10.8225 7.98506 10.875 8.48756 10.875 8.99756C10.875 9.50756 10.8225 10.0026 10.755 10.4976ZM10.9425 14.6676C11.3925 13.8351 11.7375 12.9351 11.9775 11.9976H14.19C13.47 13.2351 12.3225 14.1951 10.9425 14.6676ZM12.27 10.4976C12.33 10.0026 12.375 9.50756 12.375 8.99756C12.375 8.48756 12.33 7.99256 12.27 7.49756H14.805C14.925 7.97756 15 8.48006 15 8.99756C15 9.51506 14.925 10.0176 14.805 10.4976H12.27Z" fill="#555351"/>
</g>
<defs>
<clipPath id="clip0_1333_95491">
<rect width="18" height="18" fill="white"/>
</clipPath>
</defs>
</svg>
