<svg width="20" height="20" viewBox="0 0 20 20" fill="none" xmlns="http://www.w3.org/2000/svg">
<path d="M1.66663 17.5V7.5L8.33329 2.5L13.3333 6.25C13.0555 6.25 12.7777 6.28125 12.5 6.34375C12.2222 6.40625 11.9652 6.49306 11.7291 6.60417L8.33329 4.0625L2.91663 8.125V16.25H7.08329V17.5H1.66663ZM8.33329 17.5V15.9167C8.33329 15.625 8.40621 15.3507 8.55204 15.0938C8.69788 14.8368 8.89579 14.6319 9.14579 14.4792C9.78468 14.1042 10.4548 13.8194 11.1562 13.625C11.8576 13.4306 12.5833 13.3333 13.3333 13.3333C14.0833 13.3333 14.809 13.4306 15.5104 13.625C16.2118 13.8194 16.8819 14.1042 17.5208 14.4792C17.7708 14.6319 17.9687 14.8368 18.1145 15.0938C18.2604 15.3507 18.3333 15.625 18.3333 15.9167V17.5H8.33329ZM9.58329 16.25H17.0833V15.6458C16.5 15.3125 15.8942 15.0521 15.2661 14.8646C14.6379 14.6771 13.9937 14.5833 13.3333 14.5833C12.6729 14.5833 12.0287 14.6806 11.4005 14.875C10.7724 15.0694 10.1666 15.3333 9.58329 15.6667V16.25ZM13.3333 12.5C12.6388 12.5 12.0486 12.2569 11.5625 11.7708C11.0763 11.2847 10.8333 10.6944 10.8333 10C10.8333 9.30556 11.0763 8.71528 11.5625 8.22917C12.0486 7.74306 12.6388 7.5 13.3333 7.5C14.0277 7.5 14.618 7.74306 15.1041 8.22917C15.5902 8.71528 15.8333 9.30556 15.8333 10C15.8333 10.6944 15.5902 11.2847 15.1041 11.7708C14.618 12.2569 14.0277 12.5 13.3333 12.5ZM13.3333 11.25C13.6875 11.25 13.9843 11.1302 14.2239 10.8906C14.4635 10.651 14.5833 10.3542 14.5833 10C14.5833 9.64583 14.4635 9.34896 14.2239 9.10938C13.9843 8.86979 13.6875 8.75 13.3333 8.75C12.9791 8.75 12.6823 8.86979 12.4427 9.10938C12.2031 9.34896 12.0833 9.64583 12.0833 10C12.0833 10.3542 12.2031 10.651 12.4427 10.8906C12.6823 11.1302 12.9791 11.25 13.3333 11.25Z" fill="#008DFF"/>
</svg>
