<svg width="183" height="62" viewBox="0 0 183 62" fill="none" xmlns="http://www.w3.org/2000/svg">
<path d="M15.5858 22.4206C15.4949 21.5039 15.1047 20.7918 14.4153 20.2842C13.7259 19.7766 12.7903 19.5228 11.6085 19.5228C10.8055 19.5228 10.1274 19.6365 9.57438 19.8637C9.02135 20.0834 8.59711 20.3903 8.30166 20.7842C8.01378 21.1781 7.86984 21.6251 7.86984 22.1251C7.85469 22.5418 7.94181 22.9054 8.1312 23.216C8.32817 23.5266 8.59711 23.7956 8.93802 24.0228C9.27893 24.2425 9.67287 24.4357 10.1199 24.6024C10.5668 24.7615 11.0441 24.8978 11.5517 25.0115L13.6426 25.5115C14.6577 25.7387 15.5896 26.0418 16.438 26.4206C17.2865 26.7993 18.0214 27.2653 18.6426 27.8183C19.2638 28.3713 19.7449 29.0228 20.0858 29.7728C20.4343 30.5228 20.6123 31.3827 20.6199 32.3524C20.6123 33.7766 20.2487 35.0115 19.529 36.0569C18.8168 37.0948 17.7865 37.9016 16.438 38.4774C15.0971 39.0456 13.4797 39.3296 11.5858 39.3296C9.70696 39.3296 8.0706 39.0418 6.67666 38.466C5.29029 37.8903 4.20696 37.038 3.42666 35.9092C2.65393 34.7728 2.24863 33.3675 2.21075 31.6933H6.97211C7.02514 32.4736 7.24863 33.1251 7.64256 33.6478C8.04408 34.163 8.57817 34.5531 9.24484 34.8183C9.91908 35.0759 10.6805 35.2046 11.529 35.2046C12.3623 35.2046 13.0858 35.0834 13.6994 34.841C14.3206 34.5986 14.8017 34.2615 15.1426 33.8296C15.4835 33.3978 15.654 32.9016 15.654 32.341C15.654 31.8183 15.4987 31.3789 15.188 31.0228C14.885 30.6668 14.438 30.3637 13.8471 30.1137C13.2638 29.8637 12.5479 29.6365 11.6994 29.4319L9.16529 28.7956C7.20317 28.3183 5.65393 27.5721 4.51756 26.5569C3.3812 25.5418 2.81681 24.1743 2.82438 22.4546C2.81681 21.0456 3.19181 19.8145 3.94938 18.7615C4.71453 17.7084 5.76378 16.8865 7.09711 16.2956C8.43044 15.7046 9.9456 15.4092 11.6426 15.4092C13.3699 15.4092 14.8774 15.7046 16.1653 16.2956C17.4608 16.8865 18.4684 17.7084 19.188 18.7615C19.9077 19.8145 20.279 21.0342 20.3017 22.4206H15.5858ZM23.8386 39.0001V21.5456H28.4523V24.6251H28.6568C29.0204 23.6024 29.6265 22.7956 30.475 22.2046C31.3235 21.6137 32.3386 21.3183 33.5204 21.3183C34.7174 21.3183 35.7363 21.6175 36.5773 22.216C37.4182 22.8069 37.9788 23.6099 38.2591 24.6251H38.4409C38.797 23.6251 39.4409 22.8259 40.3727 22.2274C41.3121 21.6213 42.422 21.3183 43.7023 21.3183C45.331 21.3183 46.653 21.8372 47.6682 22.8751C48.6909 23.9054 49.2023 25.3675 49.2023 27.2615V39.0001H44.3727V28.216C44.3727 27.2463 44.1151 26.519 43.6 26.0342C43.0848 25.5493 42.4409 25.3069 41.6682 25.3069C40.7894 25.3069 40.1038 25.5872 39.6113 26.1478C39.1189 26.7009 38.8727 27.4319 38.8727 28.341V39.0001H34.1795V28.1137C34.1795 27.2577 33.9333 26.5759 33.4409 26.0683C32.956 25.5607 32.3159 25.3069 31.5204 25.3069C30.9826 25.3069 30.4977 25.4433 30.0659 25.716C29.6416 25.9812 29.3045 26.3562 29.0545 26.841C28.8045 27.3183 28.6795 27.8789 28.6795 28.5228V39.0001H23.8386ZM58.0034 39.3296C56.8898 39.3296 55.8973 39.1365 55.0261 38.7501C54.1549 38.3562 53.4655 37.7766 52.9579 37.0115C52.4579 36.2387 52.2079 35.2766 52.2079 34.1251C52.2079 33.1554 52.386 32.341 52.742 31.6819C53.0981 31.0228 53.5829 30.4925 54.1966 30.091C54.8102 29.6895 55.5072 29.3865 56.2875 29.1819C57.0754 28.9774 57.9011 28.8334 58.7648 28.7501C59.7799 28.644 60.5981 28.5456 61.2193 28.4546C61.8405 28.3562 62.2913 28.2122 62.5716 28.0228C62.8519 27.8334 62.992 27.5531 62.992 27.1819V27.1137C62.992 26.394 62.7648 25.8372 62.3102 25.4433C61.8632 25.0493 61.2269 24.8524 60.4011 24.8524C59.5299 24.8524 58.8367 25.0456 58.3216 25.4319C57.8064 25.8107 57.4655 26.288 57.2988 26.8637L52.8216 26.5001C53.0488 25.4395 53.4958 24.5228 54.1625 23.7501C54.8291 22.9698 55.689 22.3713 56.742 21.9546C57.8026 21.5304 59.0299 21.3183 60.4238 21.3183C61.3935 21.3183 62.3216 21.4319 63.2079 21.6592C64.1019 21.8865 64.8935 22.2387 65.5829 22.716C66.2799 23.1933 66.8291 23.8069 67.2307 24.5569C67.6322 25.2993 67.8329 26.1895 67.8329 27.2274V39.0001H63.242V36.5796H63.1057C62.8254 37.1251 62.4504 37.6062 61.9807 38.0228C61.511 38.4319 60.9466 38.7539 60.2875 38.9887C59.6284 39.216 58.867 39.3296 58.0034 39.3296ZM59.3898 35.9887C60.1019 35.9887 60.7307 35.8486 61.2761 35.5683C61.8216 35.2804 62.2496 34.894 62.5602 34.4092C62.8708 33.9243 63.0261 33.3751 63.0261 32.7615V30.9092C62.8746 31.0077 62.6663 31.0986 62.4011 31.1819C62.1435 31.2577 61.8519 31.3296 61.5261 31.3978C61.2004 31.4584 60.8746 31.5153 60.5488 31.5683C60.2231 31.6137 59.9276 31.6554 59.6625 31.6933C59.0943 31.7766 58.5981 31.9092 58.1738 32.091C57.7496 32.2728 57.4201 32.519 57.1852 32.8296C56.9504 33.1327 56.8329 33.5115 56.8329 33.966C56.8329 34.6251 57.0716 35.1289 57.5488 35.4774C58.0337 35.8183 58.6473 35.9887 59.3898 35.9887ZM71.5886 39.0001V21.5456H76.2818V24.591H76.4636C76.7818 23.5077 77.3159 22.6895 78.0659 22.1365C78.8159 21.5759 79.6795 21.2956 80.6568 21.2956C80.8992 21.2956 81.1606 21.3107 81.4409 21.341C81.7212 21.3713 81.9674 21.413 82.1795 21.466V25.7615C81.9523 25.6933 81.6379 25.6327 81.2363 25.5796C80.8348 25.5266 80.4674 25.5001 80.1341 25.5001C79.422 25.5001 78.7856 25.6554 78.225 25.966C77.672 26.269 77.2326 26.6933 76.9068 27.2387C76.5886 27.7842 76.4295 28.413 76.4295 29.1251V39.0001H71.5886ZM94.8415 21.5456V25.1819H84.3301V21.5456H94.8415ZM86.7165 17.3637H91.5574V33.6365C91.5574 34.0834 91.6255 34.4319 91.7619 34.6819C91.8983 34.9243 92.0877 35.0948 92.3301 35.1933C92.5801 35.2918 92.868 35.341 93.1937 35.341C93.421 35.341 93.6483 35.3221 93.8755 35.2842C94.1028 35.2387 94.2771 35.2046 94.3983 35.1819L95.1596 38.7842C94.9172 38.8599 94.5763 38.9471 94.1369 39.0456C93.6975 39.1516 93.1634 39.216 92.5346 39.2387C91.368 39.2842 90.3452 39.1289 89.4665 38.7728C88.5952 38.4168 87.9172 37.8637 87.4324 37.1137C86.9475 36.3637 86.7089 35.4168 86.7165 34.2728V17.3637ZM114.81 15.7274H119.674V31.9546C119.674 33.4546 119.337 34.7577 118.662 35.8637C117.996 36.9698 117.068 37.8221 115.878 38.4206C114.689 39.019 113.306 39.3183 111.731 39.3183C110.329 39.3183 109.056 39.0721 107.912 38.5796C106.776 38.0796 105.875 37.3221 105.208 36.3069C104.541 35.2842 104.212 34.0001 104.219 32.4546H109.117C109.132 33.0683 109.257 33.5948 109.492 34.0342C109.734 34.466 110.064 34.7993 110.481 35.0342C110.905 35.2615 111.405 35.3751 111.981 35.3751C112.587 35.3751 113.098 35.2463 113.515 34.9887C113.939 34.7236 114.261 34.3372 114.481 33.8296C114.7 33.3221 114.81 32.6971 114.81 31.9546V15.7274ZM131.537 39.341C129.772 39.341 128.246 38.966 126.958 38.216C125.678 37.4584 124.689 36.4054 123.992 35.0569C123.295 33.7009 122.947 32.1289 122.947 30.341C122.947 28.538 123.295 26.9622 123.992 25.6137C124.689 24.2577 125.678 23.2046 126.958 22.4546C128.246 21.6971 129.772 21.3183 131.537 21.3183C133.303 21.3183 134.825 21.6971 136.106 22.4546C137.394 23.2046 138.386 24.2577 139.083 25.6137C139.78 26.9622 140.128 28.538 140.128 30.341C140.128 32.1289 139.78 33.7009 139.083 35.0569C138.386 36.4054 137.394 37.4584 136.106 38.216C134.825 38.966 133.303 39.341 131.537 39.341ZM131.56 35.591C132.363 35.591 133.034 35.3637 133.572 34.9092C134.109 34.4471 134.515 33.8183 134.787 33.0228C135.068 32.2274 135.208 31.3221 135.208 30.3069C135.208 29.2918 135.068 28.3865 134.787 27.591C134.515 26.7956 134.109 26.1668 133.572 25.7046C133.034 25.2425 132.363 25.0115 131.56 25.0115C130.75 25.0115 130.068 25.2425 129.515 25.7046C128.969 26.1668 128.556 26.7956 128.276 27.591C128.003 28.3865 127.867 29.2918 127.867 30.3069C127.867 31.3221 128.003 32.2274 128.276 33.0228C128.556 33.8183 128.969 34.4471 129.515 34.9092C130.068 35.3637 130.75 35.591 131.56 35.591ZM143.367 39.0001V15.7274H148.208V24.4774H148.356C148.568 24.0077 148.875 23.5304 149.276 23.0456C149.685 22.5531 150.216 22.144 150.867 21.8183C151.526 21.4849 152.344 21.3183 153.322 21.3183C154.594 21.3183 155.769 21.6516 156.844 22.3183C157.92 22.9774 158.78 23.9736 159.424 25.3069C160.068 26.6327 160.39 28.2956 160.39 30.2956C160.39 32.2425 160.075 33.8865 159.447 35.2274C158.825 36.5607 157.977 37.5721 156.901 38.2615C155.833 38.9433 154.636 39.2842 153.31 39.2842C152.371 39.2842 151.572 39.1289 150.912 38.8183C150.261 38.5077 149.727 38.1175 149.31 37.6478C148.894 37.1706 148.575 36.6895 148.356 36.2046H148.14V39.0001H143.367ZM148.106 30.2728C148.106 31.3107 148.25 32.216 148.537 32.9887C148.825 33.7615 149.242 34.3637 149.787 34.7956C150.333 35.2198 150.996 35.4319 151.776 35.4319C152.564 35.4319 153.231 35.216 153.776 34.7842C154.322 34.3448 154.734 33.7387 155.015 32.966C155.303 32.1857 155.447 31.288 155.447 30.2728C155.447 29.2653 155.306 28.3789 155.026 27.6137C154.746 26.8486 154.333 26.2501 153.787 25.8183C153.242 25.3865 152.572 25.1706 151.776 25.1706C150.988 25.1706 150.322 25.3789 149.776 25.7956C149.238 26.2122 148.825 26.8031 148.537 27.5683C148.25 28.3334 148.106 29.2349 148.106 30.2728ZM178.143 26.5228L173.711 26.7956C173.635 26.4168 173.472 26.0759 173.222 25.7728C172.972 25.4622 172.643 25.216 172.234 25.0342C171.832 24.8448 171.351 24.7501 170.79 24.7501C170.04 24.7501 169.408 24.9092 168.893 25.2274C168.377 25.538 168.12 25.9546 168.12 26.4774C168.12 26.894 168.287 27.2463 168.62 27.5342C168.953 27.8221 169.525 28.0531 170.336 28.2274L173.495 28.8637C175.192 29.2122 176.457 29.7728 177.29 30.5456C178.124 31.3183 178.54 32.3334 178.54 33.591C178.54 34.7349 178.203 35.7387 177.529 36.6024C176.862 37.466 175.946 38.1403 174.779 38.6251C173.62 39.1024 172.283 39.341 170.768 39.341C168.457 39.341 166.616 38.8599 165.245 37.8978C163.881 36.9281 163.082 35.6099 162.847 33.9433L167.609 33.6933C167.752 34.3978 168.101 34.9357 168.654 35.3069C169.207 35.6706 169.915 35.8524 170.779 35.8524C171.627 35.8524 172.309 35.6895 172.824 35.3637C173.347 35.0304 173.612 34.6024 173.62 34.0796C173.612 33.6403 173.427 33.2804 173.063 33.0001C172.699 32.7122 172.139 32.4925 171.381 32.341L168.359 31.7387C166.654 31.3978 165.385 30.8069 164.552 29.966C163.726 29.1251 163.313 28.0531 163.313 26.7501C163.313 25.6289 163.616 24.663 164.222 23.8524C164.836 23.0418 165.696 22.4168 166.802 21.9774C167.915 21.538 169.218 21.3183 170.711 21.3183C172.915 21.3183 174.65 21.7842 175.915 22.716C177.188 23.6478 177.93 24.9168 178.143 26.5228Z" fill="white"/>
<path d="M179.1 41.8812C178.97 42.9297 178.36 43.9805 177.142 45.0183C175.918 46.0609 174.133 47.0398 171.798 47.9244C167.128 49.6928 160.459 51.0088 152.238 51.7985C135.812 53.3763 113.409 52.8337 88.9351 49.7806C64.4608 46.7274 42.6098 41.7495 27.0724 36.1843C19.2958 33.3989 13.1535 30.4848 9.05992 27.6232C7.01226 26.1918 5.52238 24.8045 4.59096 23.4929C3.66386 22.1874 3.33089 21.0191 3.46133 19.9706C3.59176 18.9221 4.2008 17.8713 5.41941 16.8335C6.6437 15.7909 8.42795 14.8119 10.7637 13.9274C15.4333 12.159 22.1018 10.843 30.3231 10.0533C46.7492 8.4755 69.152 9.01812 93.6262 12.0712C118.1 15.1243 139.951 20.1023 155.489 25.6675C163.265 28.4529 169.408 31.367 173.501 34.2286C175.549 35.66 177.039 37.0473 177.97 38.3589C178.897 39.6644 179.23 40.8327 179.1 41.8812Z" stroke="#BFE2FF" stroke-width="4"/>
<path d="M15.5858 22.4206C15.4949 21.5039 15.1047 20.7918 14.4153 20.2842C13.7259 19.7766 12.7903 19.5228 11.6085 19.5228C10.8055 19.5228 10.1274 19.6365 9.57438 19.8637C9.02135 20.0834 8.59711 20.3903 8.30166 20.7842C8.01378 21.1781 7.86984 21.6251 7.86984 22.1251C7.85469 22.5418 7.94181 22.9054 8.1312 23.216C8.32817 23.5266 8.59711 23.7956 8.93802 24.0228C9.27893 24.2425 9.67287 24.4357 10.1199 24.6024C10.5668 24.7615 11.0441 24.8978 11.5517 25.0115L13.6426 25.5115C14.6577 25.7387 15.5896 26.0418 16.438 26.4206C17.2865 26.7993 18.0214 27.2653 18.6426 27.8183C19.2638 28.3713 19.7449 29.0228 20.0858 29.7728C20.4343 30.5228 20.6123 31.3827 20.6199 32.3524C20.6123 33.7766 20.2487 35.0115 19.529 36.0569C18.8168 37.0948 17.7865 37.9016 16.438 38.4774C15.0971 39.0456 13.4797 39.3296 11.5858 39.3296C9.70696 39.3296 8.0706 39.0418 6.67666 38.466C5.29029 37.8903 4.20696 37.038 3.42666 35.9092C2.65393 34.7728 2.24863 33.3675 2.21075 31.6933H6.97211C7.02514 32.4736 7.24863 33.1251 7.64256 33.6478C8.04408 34.163 8.57817 34.5531 9.24484 34.8183C9.91908 35.0759 10.6805 35.2046 11.529 35.2046C12.3623 35.2046 13.0858 35.0834 13.6994 34.841C14.3206 34.5986 14.8017 34.2615 15.1426 33.8296C15.4835 33.3978 15.654 32.9016 15.654 32.341C15.654 31.8183 15.4987 31.3789 15.188 31.0228C14.885 30.6668 14.438 30.3637 13.8471 30.1137C13.2638 29.8637 12.5479 29.6365 11.6994 29.4319L9.16529 28.7956C7.20317 28.3183 5.65393 27.5721 4.51756 26.5569C3.3812 25.5418 2.81681 24.1743 2.82438 22.4546C2.81681 21.0456 3.19181 19.8145 3.94938 18.7615C4.71453 17.7084 5.76378 16.8865 7.09711 16.2956C8.43044 15.7046 9.9456 15.4092 11.6426 15.4092C13.3699 15.4092 14.8774 15.7046 16.1653 16.2956C17.4608 16.8865 18.4684 17.7084 19.188 18.7615C19.9077 19.8145 20.279 21.0342 20.3017 22.4206H15.5858ZM23.8386 39.0001V21.5456H28.4523V24.6251H28.6568C29.0204 23.6024 29.6265 22.7956 30.475 22.2046C31.3235 21.6137 32.3386 21.3183 33.5204 21.3183C34.7174 21.3183 35.7363 21.6175 36.5773 22.216C37.4182 22.8069 37.9788 23.6099 38.2591 24.6251H38.4409C38.797 23.6251 39.4409 22.8259 40.3727 22.2274C41.3121 21.6213 42.422 21.3183 43.7023 21.3183C45.331 21.3183 46.653 21.8372 47.6682 22.8751C48.6909 23.9054 49.2023 25.3675 49.2023 27.2615V39.0001H44.3727V28.216C44.3727 27.2463 44.1151 26.519 43.6 26.0342C43.0848 25.5493 42.4409 25.3069 41.6682 25.3069C40.7894 25.3069 40.1038 25.5872 39.6113 26.1478C39.1189 26.7009 38.8727 27.4319 38.8727 28.341V39.0001H34.1795V28.1137C34.1795 27.2577 33.9333 26.5759 33.4409 26.0683C32.956 25.5607 32.3159 25.3069 31.5204 25.3069C30.9826 25.3069 30.4977 25.4433 30.0659 25.716C29.6416 25.9812 29.3045 26.3562 29.0545 26.841C28.8045 27.3183 28.6795 27.8789 28.6795 28.5228V39.0001H23.8386ZM58.0034 39.3296C56.8898 39.3296 55.8973 39.1365 55.0261 38.7501C54.1549 38.3562 53.4655 37.7766 52.9579 37.0115C52.4579 36.2387 52.2079 35.2766 52.2079 34.1251C52.2079 33.1554 52.386 32.341 52.742 31.6819C53.0981 31.0228 53.5829 30.4925 54.1966 30.091C54.8102 29.6895 55.5072 29.3865 56.2875 29.1819C57.0754 28.9774 57.9011 28.8334 58.7648 28.7501C59.7799 28.644 60.5981 28.5456 61.2193 28.4546C61.8405 28.3562 62.2913 28.2122 62.5716 28.0228C62.8519 27.8334 62.992 27.5531 62.992 27.1819V27.1137C62.992 26.394 62.7648 25.8372 62.3102 25.4433C61.8632 25.0493 61.2269 24.8524 60.4011 24.8524C59.5299 24.8524 58.8367 25.0456 58.3216 25.4319C57.8064 25.8107 57.4655 26.288 57.2988 26.8637L52.8216 26.5001C53.0488 25.4395 53.4958 24.5228 54.1625 23.7501C54.8291 22.9698 55.689 22.3713 56.742 21.9546C57.8026 21.5304 59.0299 21.3183 60.4238 21.3183C61.3935 21.3183 62.3216 21.4319 63.2079 21.6592C64.1019 21.8865 64.8935 22.2387 65.5829 22.716C66.2799 23.1933 66.8291 23.8069 67.2307 24.5569C67.6322 25.2993 67.8329 26.1895 67.8329 27.2274V39.0001H63.242V36.5796H63.1057C62.8254 37.1251 62.4504 37.6062 61.9807 38.0228C61.511 38.4319 60.9466 38.7539 60.2875 38.9887C59.6284 39.216 58.867 39.3296 58.0034 39.3296ZM59.3898 35.9887C60.1019 35.9887 60.7307 35.8486 61.2761 35.5683C61.8216 35.2804 62.2496 34.894 62.5602 34.4092C62.8708 33.9243 63.0261 33.3751 63.0261 32.7615V30.9092C62.8746 31.0077 62.6663 31.0986 62.4011 31.1819C62.1435 31.2577 61.8519 31.3296 61.5261 31.3978C61.2004 31.4584 60.8746 31.5153 60.5488 31.5683C60.2231 31.6137 59.9276 31.6554 59.6625 31.6933C59.0943 31.7766 58.5981 31.9092 58.1738 32.091C57.7496 32.2728 57.4201 32.519 57.1852 32.8296C56.9504 33.1327 56.8329 33.5115 56.8329 33.966C56.8329 34.6251 57.0716 35.1289 57.5488 35.4774C58.0337 35.8183 58.6473 35.9887 59.3898 35.9887ZM71.5886 39.0001V21.5456H76.2818V24.591H76.4636C76.7818 23.5077 77.3159 22.6895 78.0659 22.1365C78.8159 21.5759 79.6795 21.2956 80.6568 21.2956C80.8992 21.2956 81.1606 21.3107 81.4409 21.341C81.7212 21.3713 81.9674 21.413 82.1795 21.466V25.7615C81.9523 25.6933 81.6379 25.6327 81.2363 25.5796C80.8348 25.5266 80.4674 25.5001 80.1341 25.5001C79.422 25.5001 78.7856 25.6554 78.225 25.966C77.672 26.269 77.2326 26.6933 76.9068 27.2387C76.5886 27.7842 76.4295 28.413 76.4295 29.1251V39.0001H71.5886ZM94.8415 21.5456V25.1819H84.3301V21.5456H94.8415ZM86.7165 17.3637H91.5574V33.6365C91.5574 34.0834 91.6255 34.4319 91.7619 34.6819C91.8983 34.9243 92.0877 35.0948 92.3301 35.1933C92.5801 35.2918 92.868 35.341 93.1937 35.341C93.421 35.341 93.6483 35.3221 93.8755 35.2842C94.1028 35.2387 94.2771 35.2046 94.3983 35.1819L95.1596 38.7842C94.9172 38.8599 94.5763 38.9471 94.1369 39.0456C93.6975 39.1516 93.1634 39.216 92.5346 39.2387C91.368 39.2842 90.3452 39.1289 89.4665 38.7728C88.5952 38.4168 87.9172 37.8637 87.4324 37.1137C86.9475 36.3637 86.7089 35.4168 86.7165 34.2728V17.3637Z" fill="white"/>
</svg>
