<svg width="156" height="34" viewBox="0 0 156 34" fill="none" xmlns="http://www.w3.org/2000/svg">
<g clip-path="url(#clip0_1135_28397)">
<path d="M51.785 12.7548C51.7103 12.0192 51.3904 11.4478 50.8251 11.0406C50.2598 10.6333 49.4924 10.4296 48.5232 10.4296C47.8649 10.4296 47.3086 10.5208 46.8553 10.7032C46.4017 10.8795 46.0536 11.1257 45.8114 11.4418C45.5753 11.7579 45.4572 12.1165 45.4572 12.5177C45.4449 12.852 45.5163 13.1438 45.6717 13.393C45.8331 13.6423 46.0536 13.858 46.3334 14.0404C46.6129 14.2167 46.936 14.3717 47.3026 14.5054C47.6691 14.6331 48.0603 14.7425 48.4765 14.8337L50.1914 15.2349C51.0239 15.4172 51.788 15.6604 52.484 15.9643C53.1797 16.2683 53.7824 16.6421 54.2916 17.0858C54.8012 17.5296 55.1958 18.0524 55.4753 18.6541C55.7611 19.256 55.9072 19.9459 55.9132 20.724C55.9072 21.8668 55.609 22.8576 55.0187 23.6965C54.4347 24.5292 53.5896 25.1766 52.484 25.6386C51.3841 26.0945 50.0577 26.3225 48.5045 26.3225C46.964 26.3225 45.622 26.0915 44.4787 25.6295C43.3418 25.1675 42.4536 24.4837 41.8136 23.5779C41.1799 22.6661 40.8474 21.5385 40.8164 20.1951H44.7212C44.7645 20.8212 44.948 21.344 45.2708 21.7634C45.6003 22.1768 46.0382 22.4898 46.5848 22.7026C47.1378 22.9093 47.7621 23.0126 48.4582 23.0126C49.1415 23.0126 49.7349 22.9153 50.2381 22.7208C50.7474 22.5263 51.1419 22.2558 51.4214 21.9093C51.7009 21.5628 51.841 21.1647 51.841 20.7148C51.841 20.2954 51.7136 19.9428 51.4588 19.6571C51.2103 19.3715 50.8438 19.1283 50.3592 18.9277C49.8806 18.7271 49.2936 18.5447 48.5979 18.3806L46.5198 17.87C44.9106 17.4871 43.6399 16.8883 42.7081 16.0737C41.7763 15.2592 41.3133 14.162 41.3197 12.7821C41.3133 11.6515 41.6208 10.6637 42.2422 9.81875C42.8698 8.9738 43.7303 8.31426 44.8236 7.84012C45.9171 7.36598 47.1595 7.12891 48.5512 7.12891C49.9677 7.12891 51.204 7.36598 52.2602 7.84012C53.3225 8.31426 54.1489 8.9738 54.7392 9.81875C55.3292 10.6637 55.6337 11.6424 55.6524 12.7548H51.785Z" fill="white"/>
<path d="M58.1504 26.3225V12.2477H61.9134V14.731H62.0802C62.3771 13.9063 62.8714 13.2557 63.5633 12.7792C64.2553 12.3027 65.0836 12.0645 66.0476 12.0645C67.0238 12.0645 67.8548 12.3057 68.5408 12.7884C69.2267 13.2648 69.6838 13.9124 69.9124 14.731H70.061C70.3513 13.9246 70.8764 13.2801 71.6367 12.7975C72.4029 12.3088 73.3082 12.0645 74.3524 12.0645C75.681 12.0645 76.759 12.4829 77.5873 13.3198C78.4213 14.1506 78.8386 15.3296 78.8386 16.8569V26.3225H74.8991V17.6266C74.8991 16.8446 74.6891 16.2582 74.2688 15.8672C73.8489 15.4762 73.3234 15.2808 72.6932 15.2808C71.9763 15.2808 71.4171 15.5068 71.0157 15.9589C70.614 16.4048 70.413 16.9943 70.413 17.7273V26.3225H66.5849V17.5441C66.5849 16.8538 66.3843 16.304 65.9826 15.8947C65.5871 15.4854 65.065 15.2808 64.4162 15.2808C63.9773 15.2808 63.5819 15.3907 63.2296 15.6106C62.8837 15.8245 62.6087 16.1268 62.4047 16.5178C62.201 16.9027 62.0988 17.3547 62.0988 17.874V26.3225H58.1504Z" fill="white"/>
<path d="M86.4048 26.3225C85.4884 26.3225 84.6713 26.1696 83.9544 25.8638C83.2374 25.5519 82.6701 25.0931 82.2523 24.4874C81.8406 23.8757 81.6348 23.1141 81.6348 22.2025C81.6348 21.4349 81.7814 20.7902 82.0746 20.2685C82.3675 19.7467 82.7665 19.3269 83.2715 19.0091C83.7766 18.6912 84.3503 18.4514 84.9927 18.2894C85.641 18.1275 86.3205 18.0136 87.0314 17.9476C87.8669 17.8636 88.5403 17.7857 89.0518 17.7137C89.5629 17.6357 89.9338 17.5218 90.1647 17.3719C90.3953 17.222 90.5108 17.0001 90.5108 16.7062V16.6522C90.5108 16.0825 90.3237 15.6417 89.9495 15.3299C89.5817 15.018 89.0578 14.8621 88.3783 14.8621C87.6614 14.8621 87.0907 15.015 86.6666 15.3209C86.2428 15.6207 85.962 15.9985 85.8251 16.4543L82.1399 16.1665C82.327 15.3269 82.6948 14.6012 83.2438 13.9895C83.7924 13.3718 84.5 12.8981 85.3665 12.5682C86.2395 12.2324 87.2497 12.0645 88.3971 12.0645C89.195 12.0645 89.9589 12.1544 90.6882 12.3343C91.4243 12.5142 92.0756 12.7931 92.643 13.1709C93.2167 13.5487 93.6689 14.0345 93.9993 14.6282C94.3296 15.2159 94.495 15.9206 94.495 16.7422V26.0617H90.7163V24.1456H90.6042C90.3736 24.5774 90.065 24.9582 89.6784 25.288C89.2918 25.6119 88.8272 25.8667 88.2846 26.0527C87.7424 26.2326 87.1158 26.3225 86.4048 26.3225ZM87.5459 23.6778C88.132 23.6778 88.6495 23.5669 89.0983 23.345C89.5475 23.1171 89.8996 22.8112 90.1554 22.4274C90.4111 22.0436 90.5386 21.6088 90.5386 21.123V19.6568C90.4141 19.7347 90.2427 19.8067 90.0245 19.8727C89.8123 19.9326 89.5723 19.9896 89.3042 20.0436C89.0361 20.0916 88.7679 20.1365 88.4998 20.1785C88.2317 20.2145 87.9887 20.2475 87.7705 20.2775C87.3026 20.3434 86.8942 20.4484 86.5451 20.5923C86.196 20.7363 85.9249 20.9312 85.7314 21.177C85.5383 21.4169 85.4415 21.7168 85.4415 22.0766C85.4415 22.5983 85.638 22.9971 86.0306 23.273C86.4296 23.5429 86.9347 23.6778 87.5459 23.6778Z" fill="white"/>
<path d="M97.291 26.3225V12.2658H101.008V14.7184H101.152C101.403 13.846 101.827 13.1871 102.42 12.7417C103.014 12.2902 103.698 12.0645 104.472 12.0645C104.664 12.0645 104.871 12.0767 105.093 12.1011C105.315 12.1255 105.51 12.159 105.678 12.2017V15.661C105.498 15.6061 105.249 15.5573 104.931 15.5146C104.613 15.4719 104.322 15.4505 104.058 15.4505C103.494 15.4505 102.991 15.5756 102.546 15.8257C102.108 16.0698 101.761 16.4114 101.503 16.8507C101.25 17.29 101.125 17.7963 101.125 18.3698V26.3225H97.291Z" fill="white"/>
<path d="M116.597 12.1279V15.0441H107.914V12.1279H116.597ZM109.885 8.77441H113.884V21.824C113.884 22.1824 113.941 22.4619 114.053 22.6624C114.166 22.8568 114.322 22.9935 114.523 23.0724C114.729 23.1514 114.967 23.1909 115.236 23.1909C115.424 23.1909 115.612 23.1757 115.799 23.1454C115.987 23.1089 116.131 23.0815 116.231 23.0633L116.86 25.9521C116.66 26.0128 116.378 26.0827 116.015 26.1617C115.653 26.2467 115.211 26.2984 114.692 26.3166C113.728 26.353 112.883 26.2285 112.157 25.943C111.438 25.6574 110.877 25.214 110.477 24.6125C110.076 24.0111 109.879 23.2517 109.885 22.3343V8.77441Z" fill="white"/>
<path d="M119.032 12.3698H122.857V27.2053C122.857 28.2974 122.648 29.1809 122.229 29.8558C121.81 30.5307 121.208 31.0246 120.424 31.3375C119.646 31.6504 118.715 31.8069 117.632 31.8069C117.5 31.8069 117.374 31.8038 117.255 31.7977C117.129 31.7977 116.997 31.7946 116.859 31.7885V28.7238C116.961 28.7299 117.051 28.733 117.129 28.733C117.201 28.7392 117.278 28.7422 117.362 28.7422C117.979 28.7422 118.41 28.6072 118.655 28.3373C118.907 28.0734 119.032 27.6746 119.032 27.1409V12.3698ZM120.936 10.5476C120.373 10.5476 119.888 10.3544 119.481 9.9678C119.074 9.57515 118.871 9.10578 118.871 8.55973C118.871 8.01982 119.074 7.5566 119.481 7.17004C119.888 6.77739 120.373 6.58105 120.936 6.58105C121.51 6.58105 121.998 6.77739 122.399 7.17004C122.806 7.5566 123.01 8.01982 123.01 8.55973C123.01 9.10578 122.806 9.57515 122.399 9.9678C121.998 10.3544 121.51 10.5476 120.936 10.5476Z" fill="white"/>
<path d="M132.237 26.3225C130.801 26.3225 129.559 26.0259 128.511 25.4325C127.47 24.8332 126.665 24.0001 126.098 22.9333C125.531 21.8605 125.248 20.6169 125.248 19.2025C125.248 17.7761 125.531 16.5295 126.098 15.4627C126.665 14.3899 127.47 13.5568 128.511 12.9634C129.559 12.3641 130.801 12.0645 132.237 12.0645C133.673 12.0645 134.912 12.3641 135.954 12.9634C137.001 13.5568 137.809 14.3899 138.376 15.4627C138.943 16.5295 139.227 17.7761 139.227 19.2025C139.227 20.6169 138.943 21.8605 138.376 22.9333C137.809 24.0001 137.001 24.8332 135.954 25.4325C134.912 26.0259 133.673 26.3225 132.237 26.3225ZM132.256 23.3558C132.909 23.3558 133.455 23.176 133.892 22.8164C134.33 22.4509 134.66 21.9534 134.881 21.3241C135.11 20.6948 135.223 19.9786 135.223 19.1755C135.223 18.3724 135.11 17.6562 134.881 17.0269C134.66 16.3976 134.33 15.9002 133.892 15.5346C133.455 15.169 132.909 14.9862 132.256 14.9862C131.596 14.9862 131.042 15.169 130.592 15.5346C130.148 15.9002 129.812 16.3976 129.584 17.0269C129.362 17.6562 129.251 18.3724 129.251 19.1755C129.251 19.9786 129.362 20.6948 129.584 21.3241C129.812 21.9534 130.148 22.4509 130.592 22.8164C131.042 23.176 131.596 23.3558 132.256 23.3558Z" fill="white"/>
<path d="M142.021 26.098V7.67773H145.997V14.6033H146.118C146.292 14.2316 146.544 13.8538 146.874 13.47C147.21 13.0803 147.645 12.7565 148.18 12.4987C148.721 12.2348 149.393 12.1029 150.196 12.1029C151.241 12.1029 152.205 12.3668 153.089 12.8944C153.972 13.4161 154.678 14.2046 155.207 15.2599C155.735 16.3092 156 17.6254 156 19.2084C156 20.7494 155.742 22.0506 155.226 23.1119C154.715 24.1672 154.019 24.9677 153.135 25.5134C152.258 26.0531 151.275 26.3229 150.186 26.3229C149.415 26.3229 148.759 26.1999 148.217 25.9541C147.682 25.7083 147.244 25.3995 146.902 25.0277C146.56 24.6499 146.298 24.2692 146.118 23.8854H145.94V26.098H142.021ZM145.913 19.1904C145.913 20.0119 146.031 20.7284 146.267 21.3401C146.504 21.9517 146.846 22.4283 147.294 22.7701C147.742 23.1059 148.286 23.2738 148.927 23.2738C149.574 23.2738 150.121 23.1029 150.569 22.7611C151.017 22.4134 151.356 21.9337 151.586 21.3221C151.822 20.7044 151.941 19.9939 151.941 19.1904C151.941 18.3929 151.826 17.6914 151.595 17.0857C151.365 16.4801 151.026 16.0064 150.579 15.6646C150.13 15.3229 149.58 15.152 148.927 15.152C148.28 15.152 147.732 15.3169 147.284 15.6467C146.843 15.9764 146.504 16.4441 146.267 17.0498C146.031 17.6554 145.913 18.3689 145.913 19.1904Z" fill="white"/>
<mask id="mask0_1135_28397" style="mask-type:luminance" maskUnits="userSpaceOnUse" x="0" y="0" width="35" height="34">
<path d="M0 2.80614C0 1.25635 1.28099 0 2.86116 0H22.0243C29.0065 0 34.6667 5.55133 34.6667 12.3992V21.6008C34.6667 28.4487 29.0065 34 22.0243 34H12.6424C5.66018 34 0 28.4487 0 21.6008V2.80614Z" fill="white"/>
</mask>
<g mask="url(#mask0_1135_28397)">
<path d="M0 2.80614C0 1.25635 1.28099 0 2.86116 0H22.0243C29.0065 0 34.6667 5.55133 34.6667 12.3992V21.6008C34.6667 28.4487 29.0065 34 22.0243 34H12.6424C5.66018 34 0 28.4487 0 21.6008V2.80614Z" fill="white"/>
<path d="M21.1891 12.0312C21.0928 11.1447 20.6871 10.4545 19.972 9.96045C19.2637 9.46647 18.3422 9.21949 17.2076 9.21949C16.4099 9.21949 15.7257 9.33792 15.1549 9.57474C14.5841 9.81159 14.1475 10.133 13.8449 10.539C13.5423 10.9451 13.3876 11.4086 13.3807 11.9297C13.3807 12.3627 13.4805 12.7383 13.6799 13.0564C13.8862 13.3744 14.1647 13.6451 14.5154 13.8684C14.8661 14.0849 15.2546 14.2677 15.681 14.4165C16.1073 14.5654 16.5371 14.6906 16.9703 14.7921L18.9508 15.2793C19.7485 15.462 20.5152 15.709 21.251 16.0203C21.9937 16.3316 22.6573 16.7241 23.2418 17.1978C23.8332 17.6715 24.3008 18.2433 24.6446 18.9132C24.9885 19.5832 25.1604 20.3681 25.1604 21.2681C25.1604 22.4862 24.8441 23.5587 24.2114 24.4858C23.5788 25.4061 22.6641 26.1268 21.4676 26.6479C20.278 27.1622 18.8373 27.4193 17.1457 27.4193C15.5022 27.4193 14.0753 27.1689 12.865 26.6682C11.6616 26.1674 10.7195 25.4366 10.0387 24.4757C9.36478 23.5148 9.00032 22.3441 8.94531 20.9636H12.7103C12.7653 21.6877 12.9922 22.2899 13.3911 22.7704C13.7899 23.2509 14.3091 23.6095 14.9486 23.8463C15.595 24.0832 16.317 24.2016 17.1147 24.2016C17.9468 24.2016 18.6757 24.0798 19.3015 23.8362C19.9341 23.5858 20.4293 23.2407 20.7868 22.8008C21.1444 22.3542 21.3266 21.8332 21.3335 21.2377C21.3266 20.6963 21.1651 20.2497 20.8487 19.8978C20.5324 19.5391 20.0889 19.2414 19.5181 19.0046C18.9542 18.7609 18.2941 18.5444 17.5376 18.3549L15.1343 17.7459C13.3945 17.3061 12.0191 16.6395 11.0083 15.7463C10.0043 14.8462 9.50233 13.6519 9.50233 12.1631C9.50233 10.9383 9.83926 9.86573 10.5132 8.94543C11.194 8.0251 12.1189 7.31119 13.2879 6.80366C14.4569 6.28936 15.7807 6.03223 17.2591 6.03223C18.7582 6.03223 20.0717 6.28936 21.1994 6.80366C22.3341 7.31119 23.2246 8.01833 23.871 8.92512C24.5174 9.82513 24.8509 10.8605 24.8715 12.0312H21.1891Z" fill="#008DFF"/>
</g>
</g>
<defs>
<clipPath id="clip0_1135_28397">
<rect width="156" height="34" fill="white"/>
</clipPath>
</defs>
</svg>
