<svg width="20" height="20" viewBox="0 0 20 20" fill="none" xmlns="http://www.w3.org/2000/svg">
<path d="M14.3958 18.3334C13.3065 18.3334 12.3779 17.9476 11.61 17.1762C10.8422 16.4047 10.4583 15.4716 10.4583 14.377C10.4583 13.2824 10.8422 12.3494 11.61 11.5779C12.3779 10.8064 13.3065 10.4207 14.3958 10.4207C15.4852 10.4207 16.4138 10.8064 17.1816 11.5779C17.9494 12.3494 18.3333 13.2824 18.3333 14.377C18.3333 15.4716 17.9494 16.4047 17.1816 17.1762C16.4138 17.9476 15.4852 18.3334 14.3958 18.3334ZM15.6092 16.4913L16.1875 15.9051L14.625 14.3352V11.9907H13.8125V14.6282L15.6092 16.4913ZM3.75 17.203C3.40625 17.203 3.11198 17.08 2.86719 16.834C2.6224 16.5881 2.5 16.2924 2.5 15.947V3.764C2.5 3.4186 2.60764 3.12292 2.82292 2.87696C3.03819 2.631 3.22222 2.50802 3.375 2.50802H7.58333C7.68056 2.01958 7.92014 1.61836 8.30208 1.30437C8.68403 0.990372 9.125 0.833374 9.625 0.833374C10.125 0.833374 10.566 0.990372 10.9479 1.30437C11.3299 1.61836 11.5694 2.01958 11.6667 2.50802H15.875C16.2188 2.50802 16.513 2.631 16.7578 2.87696C17.0026 3.12292 17.125 3.4186 17.125 3.764V9.93924C16.9167 9.81364 16.7117 9.70562 16.5101 9.61519C16.3085 9.52476 16.0968 9.44438 15.875 9.37404V3.764H13.6667V6.48529H5.95833V3.764H3.75V15.947H9.4375C9.50694 16.1563 9.59028 16.3622 9.6875 16.5645C9.78472 16.7669 9.90278 16.9797 10.0417 17.203H3.75ZM10 3.68026C10.2361 3.68026 10.434 3.60002 10.5938 3.43953C10.7535 3.27905 10.8333 3.08018 10.8333 2.84294C10.8333 2.6057 10.7535 2.40684 10.5938 2.24635C10.434 2.08587 10.2361 2.00562 10 2.00562C9.76389 2.00562 9.56597 2.08587 9.40625 2.24635C9.24653 2.40684 9.16667 2.6057 9.16667 2.84294C9.16667 3.08018 9.24653 3.27905 9.40625 3.43953C9.56597 3.60002 9.76389 3.68026 10 3.68026Z" fill="#008DFF"/>
</svg>
