<svg width="36" height="36" viewBox="0 0 36 36" fill="none" xmlns="http://www.w3.org/2000/svg">
<g filter="url(#filter0_b_120_207)">
<rect width="36" height="36" rx="8" fill="#E1F9F7"/>
<g clip-path="url(#clip0_120_207)">
<path d="M24 23.2243V25.5H12.75V23.2243C12.75 20.6305 14.7178 18.4649 17.3199 18L16.7632 21.7072L18.3685 23.2243L19.9738 21.7072L19.4171 18C22.0193 18.4649 24 20.6305 24 23.2243Z" fill="#008DFF"/>
<path d="M21 12.6749V14.3386C21 15.6266 20.25 16.7133 19.2097 17.1024C18.9556 17.1963 18.6653 17.25 18.375 17.25C18.0847 17.25 17.8065 17.1963 17.5403 17.1024C16.5 16.7133 15.75 15.6266 15.75 14.3386V12.6749C15.75 11.0648 16.9234 9.75 18.375 9.75C19.8266 9.75 21 11.0648 21 12.6749Z" fill="#008DFF"/>
</g>
</g>
<defs>
<filter id="filter0_b_120_207" x="-24" y="-24" width="84" height="84" filterUnits="userSpaceOnUse" color-interpolation-filters="sRGB">
<feFlood flood-opacity="0" result="BackgroundImageFix"/>
<feGaussianBlur in="BackgroundImageFix" stdDeviation="12"/>
<feComposite in2="SourceAlpha" operator="in" result="effect1_backgroundBlur_120_207"/>
<feBlend mode="normal" in="SourceGraphic" in2="effect1_backgroundBlur_120_207" result="shape"/>
</filter>
<clipPath id="clip0_120_207">
<rect width="18" height="18" fill="white" transform="translate(9 9)"/>
</clipPath>
</defs>
</svg>
