<svg width="20" height="20" viewBox="0 0 20 20" fill="none" xmlns="http://www.w3.org/2000/svg">
<path d="M18 10.5L19.5 12L12.51 19L8 14.5L9.5 13L12.51 16L18 10.5Z" fill="white"/>
<path opacity="0.3" d="M14 4V7H4V4H2V18H8.68L5.17 14.5L9.5 10.17L12.51 13.17L16 9.67V4H14Z" fill="white"/>
<path d="M2 18V4H4V7H14V4H16V9.67L18 7.67V4C18 2.9 17.1 2 16 2H11.82C11.4 0.84 10.3 0 9 0C7.7 0 6.6 0.84 6.18 2H2C0.9 2 0 2.9 0 4V18C0 19.1 0.9 20 2 20H10.68L8.68 18H2ZM9 2C9.55 2 10 2.45 10 3C10 3.55 9.55 4 9 4C8.45 4 8 3.55 8 3C8 2.45 8.45 2 9 2Z" fill="white"/>
</svg>
