<svg width="13" height="12" viewBox="0 0 13 12" fill="none" xmlns="http://www.w3.org/2000/svg">
<path d="M6.55035 8.9125C6.68345 8.9125 6.79583 8.86655 6.8875 8.77465C6.97917 8.68275 7.025 8.57025 7.025 8.43715C7.025 8.30405 6.97905 8.19167 6.88715 8.1C6.79525 8.00833 6.68275 7.9625 6.54965 7.9625C6.41655 7.9625 6.30417 8.00845 6.2125 8.10035C6.12083 8.19225 6.075 8.30475 6.075 8.43785C6.075 8.57095 6.12095 8.68333 6.21285 8.775C6.30475 8.86667 6.41725 8.9125 6.55035 8.9125ZM6.50332 11C5.81388 11 5.16596 10.8688 4.55957 10.6062C3.95319 10.3438 3.42292 9.98542 2.96875 9.53125C2.51458 9.07708 2.15625 8.5465 1.89375 7.93949C1.63125 7.33249 1.5 6.68391 1.5 5.99375C1.5 5.30359 1.63125 4.65501 1.89375 4.04801C2.15625 3.441 2.51458 2.9125 2.96875 2.4625C3.42292 2.0125 3.9535 1.65625 4.56051 1.39375C5.16751 1.13125 5.81609 1 6.50625 1C7.19641 1 7.84499 1.13125 8.45199 1.39375C9.059 1.65625 9.5875 2.0125 10.0375 2.4625C10.4875 2.9125 10.8438 3.44167 11.1062 4.05C11.3688 4.65833 11.5 5.30723 11.5 5.99668C11.5 6.68613 11.3688 7.33404 11.1062 7.94043C10.8438 8.54681 10.4875 9.07632 10.0375 9.52895C9.5875 9.98158 9.05833 10.3399 8.45 10.6039C7.84167 10.868 7.19277 11 6.50332 11ZM6.50625 10.25C7.68542 10.25 8.6875 9.83542 9.5125 9.00625C10.3375 8.17708 10.75 7.17292 10.75 5.99375C10.75 4.81458 10.3383 3.8125 9.51485 2.9875C8.69141 2.1625 7.68646 1.75 6.5 1.75C5.325 1.75 4.32292 2.16172 3.49375 2.98515C2.66458 3.80859 2.25 4.81354 2.25 6C2.25 7.175 2.66458 8.17708 3.49375 9.00625C4.32292 9.83542 5.32708 10.25 6.50625 10.25ZM6.53459 3.75C6.78653 3.75 7.00833 3.82708 7.2 3.98125C7.39167 4.13542 7.4875 4.33207 7.4875 4.5712C7.4875 4.7904 7.4223 4.98095 7.2919 5.14286C7.16151 5.30476 7.01421 5.45714 6.85 5.6C6.65833 5.75833 6.49167 5.93494 6.35 6.12981C6.20833 6.32468 6.1375 6.54391 6.1375 6.7875C6.1375 6.87917 6.1725 6.95208 6.2425 7.00625C6.3125 7.06042 6.39417 7.0875 6.4875 7.0875C6.5875 7.0875 6.67031 7.05417 6.73594 6.9875C6.80156 6.92083 6.84375 6.8375 6.8625 6.7375C6.8875 6.5625 6.95417 6.40417 7.0625 6.2625C7.17083 6.12083 7.2968 5.99257 7.44039 5.8777C7.6468 5.70923 7.81667 5.5125 7.95 5.2875C8.08333 5.0625 8.15 4.81827 8.15 4.55482C8.15 4.13494 7.99375 3.78542 7.68125 3.50625C7.36875 3.22708 6.99812 3.0875 6.56935 3.0875C6.27312 3.0875 5.9875 3.15 5.7125 3.275C5.4375 3.4 5.2125 3.58333 5.0375 3.825C4.97917 3.90833 4.95208 3.99792 4.95625 4.09375C4.96042 4.18958 4.99987 4.26667 5.07461 4.325C5.16975 4.39167 5.26827 4.4125 5.37019 4.3875C5.47211 4.3625 5.55705 4.30417 5.625 4.2125C5.73125 4.06331 5.86406 3.94893 6.02344 3.86935C6.18281 3.78978 6.3532 3.75 6.53459 3.75Z" fill="white"/>
</svg>
