<svg width="24" height="24" viewBox="0 0 24 24" fill="none" xmlns="http://www.w3.org/2000/svg">
<path d="M15.35 19.225C15.0833 19.3583 14.85 19.3583 14.65 19.225C14.45 19.0917 14.35 18.8667 14.35 18.55C14.35 18.4167 14.3917 18.2833 14.475 18.15C14.5583 18.0167 14.6667 17.9167 14.8 17.85C15.95 17.3167 16.8542 16.5125 17.5125 15.4375C18.1708 14.3625 18.5 13.1917 18.5 11.925C18.5 11.125 18.3042 10.3125 17.9125 9.4875C17.5208 8.6625 17.0083 7.93333 16.375 7.3L15.65 6.65V9C15.65 9.21667 15.5792 9.39583 15.4375 9.5375C15.2958 9.67917 15.1167 9.75 14.9 9.75C14.6833 9.75 14.5042 9.67917 14.3625 9.5375C14.2208 9.39583 14.15 9.21667 14.15 9V4.75C14.15 4.53333 14.2208 4.35417 14.3625 4.2125C14.5042 4.07083 14.6833 4 14.9 4H19.15C19.3667 4 19.5458 4.07083 19.6875 4.2125C19.8292 4.35417 19.9 4.53333 19.9 4.75C19.9 4.96667 19.8292 5.14583 19.6875 5.2875C19.5458 5.42917 19.3667 5.5 19.15 5.5H16.625L17 5.85C18 6.78333 18.75 7.78333 19.25 8.85C19.75 9.91667 20 10.9417 20 11.925C20 13.525 19.5792 14.975 18.7375 16.275C17.8958 17.575 16.7667 18.5583 15.35 19.225ZM4.925 20C4.70833 20 4.52917 19.9292 4.3875 19.7875C4.24583 19.6458 4.175 19.4667 4.175 19.25C4.175 19.0333 4.24583 18.8542 4.3875 18.7125C4.52917 18.5708 4.70833 18.5 4.925 18.5H7.425L7.05 18.2C5.98333 17.35 5.20833 16.425 4.725 15.425C4.24167 14.425 4 13.3083 4 12.075C4 10.475 4.42917 9.02083 5.2875 7.7125C6.14583 6.40417 7.28333 5.425 8.7 4.775C8.96667 4.65833 9.19583 4.67083 9.3875 4.8125C9.57917 4.95417 9.675 5.175 9.675 5.475C9.675 5.60833 9.63333 5.7375 9.55 5.8625C9.46667 5.9875 9.35833 6.08333 9.225 6.15C8.09167 6.68333 7.1875 7.4875 6.5125 8.5625C5.8375 9.6375 5.5 10.8083 5.5 12.075C5.5 13.125 5.69583 14.0375 6.0875 14.8125C6.47917 15.5875 7.00833 16.2583 7.675 16.825L8.425 17.35V15C8.425 14.7833 8.49583 14.6042 8.6375 14.4625C8.77917 14.3208 8.95833 14.25 9.175 14.25C9.39167 14.25 9.57083 14.3208 9.7125 14.4625C9.85417 14.6042 9.925 14.7833 9.925 15V19.25C9.925 19.4667 9.85417 19.6458 9.7125 19.7875C9.57083 19.9292 9.39167 20 9.175 20H4.925Z" fill="#555351"/>
</svg>
