<svg width="18" height="18" viewBox="0 0 18 18" fill="none" xmlns="http://www.w3.org/2000/svg">
<path d="M11.7375 8.00625C12.0188 8.00625 12.2578 7.90781 12.4547 7.71094C12.6516 7.51406 12.75 7.275 12.75 6.99375C12.75 6.7125 12.6516 6.47344 12.4547 6.27656C12.2578 6.07969 12.0188 5.98125 11.7375 5.98125C11.4563 5.98125 11.2172 6.07969 11.0203 6.27656C10.8234 6.47344 10.725 6.7125 10.725 6.99375C10.725 7.275 10.8234 7.51406 11.0203 7.71094C11.2172 7.90781 11.4563 8.00625 11.7375 8.00625ZM6.2625 8.00625C6.54375 8.00625 6.78281 7.90781 6.97969 7.71094C7.17656 7.51406 7.275 7.275 7.275 6.99375C7.275 6.7125 7.17656 6.47344 6.97969 6.27656C6.78281 6.07969 6.54375 5.98125 6.2625 5.98125C5.98125 5.98125 5.74219 6.07969 5.54531 6.27656C5.34844 6.47344 5.25 6.7125 5.25 6.99375C5.25 7.275 5.34844 7.51406 5.54531 7.71094C5.74219 7.90781 5.98125 8.00625 6.2625 8.00625ZM9.00326 10.1813C8.16359 10.1813 7.40313 10.4156 6.72188 10.8844C6.04063 11.3531 5.5375 11.975 5.2125 12.75H6.20625C6.48125 12.225 6.86983 11.8188 7.37199 11.5312C7.87416 11.2438 8.42103 11.1 9.01262 11.1C9.60421 11.1 10.1469 11.2469 10.6406 11.5406C11.1344 11.8344 11.525 12.2375 11.8125 12.75H12.7875C12.475 11.9625 11.9761 11.3375 11.2908 10.875C10.6054 10.4125 9.84294 10.1813 9.00326 10.1813ZM9 16.5C7.9625 16.5 6.9875 16.3031 6.075 15.9094C5.1625 15.5156 4.36875 14.9813 3.69375 14.3063C3.01875 13.6313 2.48438 12.8375 2.09063 11.925C1.69688 11.0125 1.5 10.0375 1.5 9C1.5 7.9625 1.69688 6.9875 2.09063 6.075C2.48438 5.1625 3.01875 4.36875 3.69375 3.69375C4.36875 3.01875 5.1625 2.48438 6.075 2.09063C6.9875 1.69688 7.9625 1.5 9 1.5C10.0375 1.5 11.0125 1.69688 11.925 2.09063C12.8375 2.48438 13.6313 3.01875 14.3063 3.69375C14.9813 4.36875 15.5156 5.1625 15.9094 6.075C16.3031 6.9875 16.5 7.9625 16.5 9C16.5 10.0375 16.3031 11.0125 15.9094 11.925C15.5156 12.8375 14.9813 13.6313 14.3063 14.3063C13.6313 14.9813 12.8375 15.5156 11.925 15.9094C11.0125 16.3031 10.0375 16.5 9 16.5ZM9 15.375C10.7797 15.375 12.2871 14.7574 13.5223 13.5223C14.7574 12.2871 15.375 10.7797 15.375 9C15.375 7.22031 14.7574 5.71289 13.5223 4.47773C12.2871 3.24258 10.7797 2.625 9 2.625C7.22031 2.625 5.71289 3.24258 4.47773 4.47773C3.24258 5.71289 2.625 7.22031 2.625 9C2.625 10.7797 3.24258 12.2871 4.47773 13.5223C5.71289 14.7574 7.22031 15.375 9 15.375Z" fill="#555351"/>
</svg>
