<svg width="24" height="24" viewBox="0 0 24 24" fill="none" xmlns="http://www.w3.org/2000/svg">
<path d="M4.5 21C4.0875 21 3.73438 20.8531 3.44063 20.5594C3.14688 20.2656 3 19.9125 3 19.5V4.5C3 4.0875 3.14688 3.73438 3.44063 3.44063C3.73438 3.14688 4.0875 3 4.5 3H19.5C19.9125 3 20.2656 3.14688 20.5594 3.44063C20.8531 3.73438 21 4.0875 21 4.5V19.5C21 19.9125 20.8531 20.2656 20.5594 20.5594C20.2656 20.8531 19.9125 21 19.5 21H4.5ZM12.75 12.75V19.5H19.5V12.75H12.75ZM12.75 11.25H19.5V4.5H12.75V11.25ZM11.25 11.25V4.5H4.5V11.25H11.25ZM11.25 12.75H4.5V19.5H11.25V12.75Z" fill="#1C1917"/>
</svg>
