<svg width="16" height="16" viewBox="0 0 16 16" fill="none" xmlns="http://www.w3.org/2000/svg">
<path d="M7.3335 1.33325C10.6455 1.33325 13.3335 4.02125 13.3335 7.33325C13.3335 10.6453 10.6455 13.3333 7.3335 13.3333C4.0215 13.3333 1.3335 10.6453 1.3335 7.33325C1.3335 4.02125 4.0215 1.33325 7.3335 1.33325ZM7.3335 11.9999C9.91183 11.9999 12.0002 9.91159 12.0002 7.33325C12.0002 4.75492 9.91183 2.66659 7.3335 2.66659C4.75516 2.66659 2.66683 4.75492 2.66683 7.33325C2.66683 9.91159 4.75516 11.9999 7.3335 11.9999ZM12.9904 12.0473L14.876 13.9329L13.9332 14.8757L12.0476 12.9901L12.9904 12.0473Z" fill="#8D8C8B"/>
</svg>
