<svg width="24" height="24" viewBox="0 0 24 24" fill="none" xmlns="http://www.w3.org/2000/svg">
<path d="M3 18.2738V4.72622C3 4.46348 3.11376 4.26232 3.34129 4.12273C3.56882 3.98315 3.80899 3.96263 4.0618 4.06116L20.5449 10.8103C20.8483 10.9417 21 11.1716 21 11.5C21 11.8284 20.8483 12.0583 20.5449 12.1897L4.0618 18.9388C3.80899 19.0374 3.56882 19.0168 3.34129 18.8773C3.11376 18.7377 3 18.5365 3 18.2738ZM4.51685 17.0914L18.2697 11.5L4.51685 5.83465V9.97282L10.6348 11.5L4.51685 12.9779V17.0914ZM4.51685 11.5V5.83465V17.0914V11.5Z" fill="#555351"/>
</svg>
