<svg width="25" height="25" viewBox="0 0 25 25" fill="none" xmlns="http://www.w3.org/2000/svg">
<g clip-path="url(#clip0_150_5751)">
<path d="M21.4722 3.5L21.3033 3.53L15.6667 5.6L9.33333 3.5L3.38 5.4C3.15833 5.47 3 5.65 3 5.88V21C3 21.28 3.23222 21.5 3.52778 21.5L3.69667 21.47L9.33333 19.4L15.6667 21.5L21.62 19.6C21.8417 19.53 22 19.35 22 19.12V4C22 3.72 21.7678 3.5 21.4722 3.5ZM10.3889 5.97L14.6111 7.37V19.03L10.3889 17.63V5.97ZM5.11111 6.96L8.27778 5.95V17.65L5.11111 18.81V6.96ZM19.8889 18.04L16.7222 19.05V7.36L19.8889 6.2V18.04Z" fill="#8D8C8B"/>
</g>
<defs>
<clipPath id="clip0_150_5751">
<rect width="25" height="24" fill="white" transform="translate(0 0.5)"/>
</clipPath>
</defs>
</svg>
