<svg width="12" height="15" viewBox="0 0 12 15" fill="none" xmlns="http://www.w3.org/2000/svg">
<path d="M6.00147 7.33325C6.32271 7.33325 6.59721 7.21887 6.82499 6.9901C7.05277 6.76135 7.16666 6.48635 7.16666 6.1651C7.16666 5.84387 7.05227 5.56936 6.82351 5.34159C6.59475 5.11381 6.31975 4.99992 5.99851 4.99992C5.67727 4.99992 5.40277 5.1143 5.17499 5.34307C4.94721 5.57182 4.83332 5.84682 4.83332 6.16807C4.83332 6.4893 4.94771 6.76381 5.17647 6.99159C5.40523 7.21936 5.68023 7.33325 6.00147 7.33325ZM5.99999 12.8499C7.47777 11.5055 8.56943 10.286 9.27499 9.19159C9.98055 8.09714 10.3333 7.13325 10.3333 6.29992C10.3333 4.99114 9.91503 3.9195 9.07846 3.085C8.24189 2.2505 7.21573 1.83325 5.99999 1.83325C4.78425 1.83325 3.75809 2.2505 2.92152 3.085C2.08495 3.9195 1.66666 4.99114 1.66666 6.29992C1.66666 7.13325 2.02777 8.09714 2.74999 9.19159C3.47221 10.286 4.55555 11.5055 5.99999 12.8499ZM5.99999 14.1666C4.2111 12.6444 2.87499 11.2305 1.99166 9.92492C1.10832 8.61936 0.666656 7.41103 0.666656 6.29992C0.666656 4.63325 1.20277 3.30547 2.27499 2.31659C3.34721 1.3277 4.58888 0.833252 5.99999 0.833252C7.4111 0.833252 8.65277 1.3277 9.72499 2.31659C10.7972 3.30547 11.3333 4.63325 11.3333 6.29992C11.3333 7.41103 10.8917 8.61936 10.0083 9.92492C9.12499 11.2305 7.78888 12.6444 5.99999 14.1666Z" fill="#555351"/>
</svg>
