<svg width="41" height="40" viewBox="0 0 41 40" fill="none" xmlns="http://www.w3.org/2000/svg">
<mask id="mask0_1307_29538" style="mask-type:luminance" maskUnits="userSpaceOnUse" x="0" y="0" width="41" height="40">
<path d="M0 3.30134C0 1.47806 1.5027 0 3.35637 0H25.8362C34.0268 0 40.6667 6.53098 40.6667 14.5873V25.4127C40.6667 33.469 34.0268 40 25.8362 40H14.8305C6.63983 40 0 33.469 0 25.4127V3.30134Z" fill="white"/>
</mask>
<g mask="url(#mask0_1307_29538)">
<path d="M0 3.30134C0 1.47806 1.5027 0 3.35637 0H25.8362C34.0268 0 40.6667 6.53098 40.6667 14.5873V25.4127C40.6667 33.469 34.0268 40 25.8362 40H14.8305C6.63983 40 0 33.469 0 25.4127V3.30134Z" fill="white"/>
<path d="M24.8571 14.1552C24.7441 13.1123 24.2682 12.3003 23.4293 11.7191C22.5984 11.1379 21.5174 10.8474 20.1864 10.8474C19.2506 10.8474 18.448 10.9867 17.7784 11.2653C17.1089 11.544 16.5967 11.9221 16.2417 12.3998C15.8868 12.8775 15.7053 13.4228 15.6972 14.0358C15.6972 14.5453 15.8142 14.9872 16.0481 15.3614C16.2901 15.7355 16.6168 16.054 17.0282 16.3167C17.4396 16.5714 17.8954 16.7864 18.3956 16.9615C18.8957 17.1367 19.3999 17.284 19.9081 17.4034L22.2313 17.9766C23.1671 18.1916 24.0665 18.4821 24.9297 18.8484C25.8009 19.2146 26.5793 19.6763 27.265 20.2336C27.9588 20.7909 28.5073 21.4636 28.9107 22.2518C29.314 23.0399 29.5156 23.9634 29.5156 25.0222C29.5156 26.4553 29.1446 27.7171 28.4024 28.8078C27.6603 29.8905 26.5874 30.7384 25.1838 31.3514C23.7882 31.9564 22.0982 32.2589 20.1138 32.2589C18.1858 32.2589 16.512 31.9644 15.0922 31.3752C13.6805 30.7861 12.5754 29.9263 11.7767 28.7958C10.9862 27.6653 10.5587 26.2881 10.4941 24.664H14.9107C14.9752 25.5158 15.2415 26.2244 15.7093 26.7896C16.1772 27.3549 16.7863 27.7768 17.5365 28.0554C18.2947 28.3341 19.1417 28.4734 20.0775 28.4734C21.0536 28.4734 21.9087 28.3301 22.6427 28.0435C23.3849 27.7489 23.9657 27.3429 24.3852 26.8254C24.8047 26.3 25.0184 25.687 25.0265 24.9864C25.0184 24.3495 24.8288 23.8241 24.4578 23.4101C24.0867 22.9881 23.5664 22.6379 22.8968 22.3592C22.2353 22.0726 21.461 21.8179 20.5736 21.595L17.7542 20.8785C15.7133 20.361 14.1 19.5768 12.9142 18.5259C11.7364 17.4671 11.1476 16.0619 11.1476 14.3105C11.1476 12.8695 11.5428 11.6077 12.3334 10.525C13.132 9.44221 14.2169 8.60232 15.5883 8.00522C16.9597 7.40017 18.5125 7.09766 20.2469 7.09766C22.0055 7.09766 23.5462 7.40017 24.8692 8.00522C26.2002 8.60232 27.2449 9.43425 28.0031 10.5011C28.7614 11.5599 29.1526 12.7779 29.1768 14.1552H24.8571Z" fill="#008DFF"/>
</g>
</svg>
