<svg width="136" height="30" viewBox="0 0 136 30" fill="none" xmlns="http://www.w3.org/2000/svg">
<path d="M12.867 7.26319C12.7793 6.39787 12.4041 5.72563 11.741 5.24647C11.0778 4.76734 10.1776 4.52774 9.04067 4.52774C8.26837 4.52774 7.61579 4.63503 7.0841 4.84956C6.55202 5.05696 6.14357 5.34661 5.85954 5.71849C5.58254 6.09037 5.44405 6.5123 5.44405 6.98428C5.42957 7.37762 5.51329 7.72086 5.69561 8.01408C5.88496 8.30731 6.14358 8.56115 6.47182 8.77573C6.79968 8.98312 7.17878 9.16545 7.60875 9.32279C8.03872 9.47299 8.49764 9.6017 8.9859 9.70899L10.9976 10.181C11.9742 10.3955 12.8705 10.6816 13.687 11.0392C14.5031 11.3967 15.2101 11.8365 15.8075 12.3586C16.4053 12.8806 16.8681 13.4957 17.196 14.2036C17.5313 14.9117 17.7026 15.7233 17.7097 16.6387C17.7026 17.9832 17.3529 19.1489 16.6604 20.1358C15.9753 21.1155 14.9839 21.8772 13.687 22.4207C12.3967 22.957 10.8407 23.2252 9.01876 23.2252C7.21165 23.2252 5.63732 22.9534 4.29616 22.4099C2.96244 21.8664 1.92058 21.0619 1.1698 19.9963C0.426448 18.9236 0.0363849 17.597 0 16.0165H4.58059C4.63145 16.7531 4.84663 17.3682 5.22535 17.8616C5.61189 18.3479 6.12558 18.7162 6.76681 18.9665C7.41548 19.2097 8.14787 19.3312 8.96438 19.3312C9.76602 19.3312 10.462 19.2168 11.0524 18.988C11.6498 18.7591 12.1127 18.4409 12.4405 18.0333C12.7684 17.6256 12.9327 17.1572 12.9327 16.628C12.9327 16.1345 12.7832 15.7197 12.4843 15.3836C12.1929 15.0475 11.7629 14.7614 11.1944 14.5255C10.633 14.2895 9.94443 14.0749 9.12831 13.8819L6.69052 13.2811C4.80281 12.8306 3.3122 12.1261 2.21909 11.1679C1.12598 10.2096 0.58294 8.91875 0.590373 7.29536C0.58294 5.96519 0.94366 4.80308 1.67253 3.80905C2.40884 2.81499 3.41823 2.03907 4.7007 1.48125C5.98356 0.923439 7.44091 0.644531 9.07354 0.644531C10.7351 0.644531 12.1854 0.923439 13.4245 1.48125C14.6706 2.03907 15.64 2.81499 16.3325 3.80905C17.0246 4.80308 17.3818 5.95448 17.4037 7.26319H12.867Z" fill="white"/>
<path d="M20.334 23.2273V6.66872H24.7483V9.5902H24.944C25.2923 8.61999 25.8721 7.85457 26.6838 7.294C27.4955 6.73342 28.4672 6.45312 29.598 6.45312C30.7432 6.45312 31.718 6.737 32.5227 7.3048C33.3274 7.86534 33.8636 8.62717 34.1317 9.5902H34.3061C34.6466 8.64155 35.2625 7.88331 36.1544 7.31556C37.0533 6.74059 38.1152 6.45312 39.3402 6.45312C40.8987 6.45312 42.1634 6.94543 43.135 7.93003C44.1133 8.90746 44.6028 10.2945 44.6028 12.0913V23.2273H39.9815V12.9968C39.9815 12.0769 39.7352 11.3869 39.2422 10.927C38.7495 10.467 38.1331 10.237 37.3938 10.237C36.5529 10.237 35.8968 10.5029 35.426 11.0348C34.9547 11.5594 34.7189 12.253 34.7189 13.1154V23.2273H30.2284V12.8998C30.2284 12.0877 29.993 11.4408 29.5217 10.9593C29.0579 10.4778 28.4454 10.237 27.6842 10.237C27.1694 10.237 26.7056 10.3664 26.2923 10.6251C25.8865 10.8767 25.5639 11.2324 25.3246 11.6924C25.0856 12.1451 24.9658 12.677 24.9658 13.2879V23.2273H20.334Z" fill="white"/>
<path d="M53.4785 23.2273C52.4034 23.2273 51.4449 23.0474 50.6039 22.6876C49.7628 22.3207 49.0973 21.781 48.6073 21.0684C48.1243 20.3487 47.8828 19.4527 47.8828 18.3803C47.8828 17.4772 48.0548 16.7187 48.3988 16.1049C48.7423 15.4911 49.2104 14.9972 49.8029 14.6233C50.3954 14.2493 51.0684 13.9671 51.8219 13.7766C52.5824 13.5861 53.3795 13.4521 54.2135 13.3745C55.1936 13.2757 55.9836 13.184 56.5836 13.0993C57.1831 13.0076 57.6182 12.8735 57.8891 12.6972C58.1596 12.5208 58.2951 12.2597 58.2951 11.914V11.8505C58.2951 11.1803 58.0756 10.6617 57.6366 10.2948C57.2051 9.9279 56.5906 9.74446 55.7935 9.74446C54.9525 9.74446 54.283 9.92438 53.7855 10.2842C53.2884 10.637 52.959 11.0815 52.7984 11.6177L48.4753 11.279C48.6948 10.2913 49.1263 9.43757 49.7703 8.71793C50.4138 7.99121 51.2439 7.43384 52.2605 7.04579C53.2845 6.65069 54.4695 6.45312 55.8155 6.45312C56.7516 6.45312 57.6476 6.55897 58.5032 6.77063C59.3667 6.98228 60.1308 7.31035 60.7963 7.75486C61.4693 8.19934 61.9998 8.77083 62.3873 9.4693C62.7749 10.1607 62.9688 10.9897 62.9688 11.9563V22.9204H58.5362V20.6662H58.4047C58.1341 21.1742 57.7721 21.6222 57.3186 22.0103C56.8651 22.3913 56.3201 22.6911 55.6836 22.9099C55.0475 23.1215 54.3125 23.2273 53.4785 23.2273ZM54.817 20.1159C55.5045 20.1159 56.1116 19.9854 56.6381 19.7243C57.1651 19.4562 57.5781 19.0964 57.8781 18.6448C58.1781 18.1933 58.3277 17.6818 58.3277 17.1103V15.3852C58.1816 15.477 57.9806 15.5616 57.7246 15.6393C57.4757 15.7098 57.1941 15.7768 56.8796 15.8403C56.5651 15.8968 56.2506 15.9497 55.9361 15.9991C55.6216 16.0414 55.3365 16.0802 55.0805 16.1155C54.5316 16.1931 54.0525 16.3166 53.643 16.4859C53.2335 16.6552 52.9154 16.8845 52.6885 17.1738C52.4619 17.456 52.3484 17.8088 52.3484 18.2321C52.3484 18.8459 52.5789 19.3151 53.0395 19.6396C53.5075 19.9571 54.1 20.1159 54.817 20.1159Z" fill="white"/>
<path d="M66.248 23.2273V6.68998H70.6079V9.57543H70.7768C71.0722 8.54902 71.5686 7.77384 72.2653 7.24984C72.962 6.71872 73.7644 6.45312 74.6723 6.45312C74.8974 6.45312 75.14 6.4675 75.4007 6.4962C75.661 6.5249 75.8895 6.56439 76.0868 6.61463V10.6844C75.8756 10.6198 75.5835 10.5624 75.2106 10.5121C74.8374 10.4619 74.4962 10.4368 74.1864 10.4368C73.5249 10.4368 72.934 10.5839 72.413 10.8781C71.8992 11.1653 71.4912 11.5672 71.1886 12.084C70.8927 12.6008 70.745 13.1965 70.745 13.8712V23.2273H66.248Z" fill="white"/>
<path d="M88.897 6.52734V9.95808H78.7109V6.52734H88.897ZM81.0235 2.58203H85.7146V17.9345C85.7146 18.3562 85.7808 18.6849 85.9128 18.9208C86.0448 19.1495 86.2285 19.3103 86.4634 19.4032C86.7057 19.4962 86.9848 19.5426 87.3004 19.5426C87.5208 19.5426 87.7411 19.5247 87.961 19.489C88.1813 19.4461 88.3503 19.4139 88.4678 19.3925L89.2056 22.7911C88.9707 22.8625 88.64 22.9447 88.2144 23.0377C87.7887 23.1377 87.2709 23.1985 86.6616 23.2199C85.5309 23.2628 84.5401 23.1163 83.6885 22.7804C82.8443 22.4444 82.1869 21.9227 81.7172 21.2151C81.2474 20.5075 81.0161 19.6141 81.0235 18.5349V2.58203Z" fill="white"/>
<path d="M91.754 6.81031H96.2411V24.2638C96.2411 25.5487 95.9953 26.5881 95.5038 27.382C95.0123 28.176 94.3066 28.7571 93.3865 29.1252C92.4739 29.4934 91.3819 29.6774 90.1109 29.6774C89.9567 29.6774 89.8089 29.6738 89.6687 29.6666C89.5213 29.6666 89.3668 29.663 89.2051 29.6558V26.0503C89.3246 26.0575 89.4297 26.0611 89.5213 26.0611C89.6054 26.0684 89.6966 26.072 89.795 26.072C90.5183 26.072 91.0238 25.9132 91.3118 25.5956C91.6066 25.2852 91.754 24.816 91.754 24.188V6.81031ZM93.987 4.66652C93.3269 4.66652 92.7581 4.43918 92.2809 3.98441C91.8033 3.52247 91.5644 2.97026 91.5644 2.32786C91.5644 1.69266 91.8033 1.14769 92.2809 0.692925C92.7581 0.230988 93.3269 0 93.987 0C94.6609 0 95.2335 0.230988 95.7039 0.692925C96.1812 1.14769 96.4201 1.69266 96.4201 2.32786C96.4201 2.97026 96.1812 3.52247 95.7039 3.98441C95.2335 4.43918 94.6609 4.66652 93.987 4.66652Z" fill="white"/>
<path d="M107.242 23.2273C105.557 23.2273 104.1 22.8783 102.871 22.1802C101.649 21.4752 100.706 20.4951 100.04 19.24C99.3752 17.9779 99.043 16.5148 99.043 14.8508C99.043 13.1727 99.3752 11.7061 100.04 10.451C100.706 9.18889 101.649 8.20883 102.871 7.51076C104.1 6.8057 105.557 6.45312 107.242 6.45312C108.926 6.45312 110.38 6.8057 111.602 7.51076C112.831 8.20883 113.778 9.18889 114.443 10.451C115.108 11.7061 115.441 13.1727 115.441 14.8508C115.441 16.5148 115.108 17.9779 114.443 19.24C113.778 20.4951 112.831 21.4752 111.602 22.1802C110.38 22.8783 108.926 23.2273 107.242 23.2273ZM107.264 19.7371C108.03 19.7371 108.67 19.5256 109.183 19.1025C109.696 18.6724 110.083 18.0872 110.343 17.3468C110.611 16.6065 110.745 15.7639 110.745 14.8191C110.745 13.8742 110.611 13.0316 110.343 12.2913C110.083 11.551 109.696 10.9657 109.183 10.5356C108.67 10.1055 108.03 9.89047 107.264 9.89047C106.49 9.89047 105.839 10.1055 105.311 10.5356C104.791 10.9657 104.397 11.551 104.129 12.2913C103.869 13.0316 103.739 13.8742 103.739 14.8191C103.739 15.7639 103.869 16.6065 104.129 17.3468C104.397 18.0872 104.791 18.6724 105.311 19.1025C105.839 19.5256 106.49 19.7371 107.264 19.7371Z" fill="white"/>
<path d="M118.721 22.96V1.28906H123.384V9.43682H123.526C123.731 8.99945 124.026 8.55504 124.413 8.10355C124.807 7.64501 125.318 7.2641 125.945 6.96073C126.58 6.65036 127.368 6.49515 128.31 6.49515C129.536 6.49515 130.667 6.80556 131.703 7.42634C132.739 8.04005 133.568 8.96772 134.188 10.2093C134.808 11.4438 135.119 12.9922 135.119 14.8546C135.119 16.6675 134.816 18.1983 134.21 19.4469C133.611 20.6885 132.794 21.6302 131.758 22.2722C130.729 22.9071 129.576 23.2245 128.299 23.2245C127.394 23.2245 126.624 23.0799 125.989 22.7907C125.361 22.5015 124.847 22.1381 124.445 21.7008C124.044 21.2564 123.738 20.8084 123.526 20.3569H123.318V22.96H118.721ZM123.285 14.8334C123.285 15.7998 123.424 16.6428 123.701 17.3624C123.978 18.0819 124.38 18.6427 124.905 19.0448C125.431 19.4399 126.069 19.6374 126.821 19.6374C127.58 19.6374 128.222 19.4364 128.748 19.0342C129.273 18.6251 129.671 18.0607 129.941 17.3412C130.218 16.6146 130.357 15.7787 130.357 14.8334C130.357 13.8952 130.222 13.0698 129.952 12.3573C129.682 11.6448 129.284 11.0875 128.759 10.6854C128.233 10.2833 127.587 10.0823 126.821 10.0823C126.062 10.0823 125.42 10.2763 124.894 10.6643C124.376 11.0523 123.978 11.6025 123.701 12.315C123.424 13.0275 123.285 13.867 123.285 14.8334Z" fill="white"/>
</svg>
