<svg width="210" height="62" viewBox="0 0 210 62" fill="none" xmlns="http://www.w3.org/2000/svg">
<g clip-path="url(#clip0_288_10003)">
<g clip-path="url(#clip1_288_10003)">
<path d="M70.0613 25.256C69.9612 24.2609 69.5327 23.4878 68.7753 22.9368C68.018 22.3858 66.9898 22.1102 65.6914 22.1102C64.8093 22.1102 64.064 22.2336 63.4568 22.4803C62.8491 22.7188 62.3826 23.0519 62.0583 23.4796C61.7419 23.9072 61.5837 24.3925 61.5837 24.9352C61.5672 25.3876 61.6628 25.7823 61.871 26.1195C62.0873 26.4567 62.3826 26.7486 62.7575 26.9954C63.132 27.2339 63.5649 27.4436 64.056 27.6245C64.547 27.7973 65.0712 27.9453 65.6288 28.0687L67.9264 28.6114C69.0416 28.8582 70.0653 29.1871 70.9978 29.5983C71.9299 30.0095 72.7373 30.5153 73.4196 31.1157C74.1023 31.7161 74.6309 32.4233 75.0053 33.2375C75.3883 34.0517 75.584 34.9852 75.592 36.0378C75.584 37.584 75.1845 38.9245 74.3936 40.0595C73.6113 41.1862 72.479 42.0621 70.9978 42.6871C69.5242 43.3039 67.7472 43.6123 65.6663 43.6123C63.6025 43.6123 61.8045 43.2998 60.2728 42.6747C58.7495 42.0497 57.5597 41.1245 56.7022 39.8991C55.8532 38.6655 55.4078 37.1399 55.3662 35.3223H60.5976C60.6557 36.1694 60.9014 36.8767 61.334 37.4442C61.7754 38.0034 62.3621 38.427 63.0944 38.7148C63.8353 38.9944 64.6717 39.1342 65.6042 39.1342C66.5198 39.1342 67.3147 39.0026 67.9889 38.7395C68.6712 38.4763 69.1998 38.1103 69.5742 37.6416C69.9487 37.1728 70.1363 36.6341 70.1363 36.0255C70.1363 35.458 69.9656 34.981 69.6243 34.5945C69.2914 34.208 68.8003 33.879 68.1511 33.6076C67.5099 33.3362 66.7235 33.0895 65.7914 32.8674L63.0073 32.1766C60.8514 31.6585 59.149 30.8484 57.9006 29.7464C56.6522 28.6443 56.032 27.1599 56.0405 25.293C56.032 23.7633 56.4439 22.4269 57.2764 21.2837C58.1173 20.1406 59.2701 19.2482 60.7348 18.6068C62.1999 17.9653 63.8643 17.6445 65.7289 17.6445C67.6265 17.6445 69.2829 17.9653 70.698 18.6068C72.1211 19.2482 73.2283 20.1406 74.0192 21.2837C74.8096 22.4269 75.2176 23.751 75.2426 25.256H70.0613Z" fill="#1C1917"/>
<path d="M78.5884 43.6126V24.5702H83.6298V27.9299H83.8534C84.2511 26.8142 84.9133 25.9339 85.8403 25.2893C86.7674 24.6446 87.8771 24.3223 89.1686 24.3223C90.4765 24.3223 91.5897 24.6487 92.5088 25.3017C93.4278 25.9463 94.0402 26.8224 94.3464 27.9299H94.5456C94.9344 26.839 95.6379 25.967 96.6565 25.3141C97.6831 24.6529 98.8959 24.3223 100.295 24.3223C102.075 24.3223 103.519 24.8884 104.629 26.0207C105.746 27.1447 106.305 28.7399 106.305 30.8061V43.6126H101.027V31.8475C101.027 30.7896 100.746 29.9962 100.183 29.4672C99.6203 28.9382 98.9164 28.6738 98.072 28.6738C97.1116 28.6738 96.3623 28.9796 95.8246 29.5912C95.2864 30.1945 95.0171 30.9921 95.0171 31.9838V43.6126H89.8885V31.7359C89.8885 30.802 89.6197 30.0581 89.0815 29.5044C88.5517 28.9506 87.8522 28.6738 86.9829 28.6738C86.395 28.6738 85.8652 28.8225 85.3933 29.12C84.9297 29.4093 84.5613 29.8184 84.288 30.3474C84.0151 30.8681 83.8783 31.4797 83.8783 32.1822V43.6126H78.5884Z" fill="#1C1917"/>
<path d="M116.441 43.6126C115.214 43.6126 114.119 43.4057 113.158 42.9919C112.198 42.57 111.438 41.9493 110.878 41.1298C110.327 40.3022 110.051 39.2718 110.051 38.0385C110.051 36.9999 110.247 36.1277 110.64 35.4218C111.032 34.7159 111.567 34.148 112.244 33.7179C112.92 33.2879 113.689 32.9634 114.549 32.7443C115.418 32.5252 116.328 32.371 117.281 32.2818C118.4 32.1682 119.302 32.0628 119.988 31.9654C120.672 31.8599 121.169 31.7057 121.479 31.5029C121.788 31.3001 121.942 30.9999 121.942 30.6023V30.5293C121.942 29.7585 121.692 29.1621 121.19 28.7402C120.698 28.3183 119.996 28.1073 119.085 28.1073C118.125 28.1073 117.36 28.3142 116.792 28.728C116.224 29.1337 115.848 29.6448 115.665 30.2615L110.727 29.872C110.978 28.7361 111.471 27.7544 112.206 26.9268C112.941 26.0911 113.889 25.4501 115.05 25.0038C116.22 24.5495 117.573 24.3223 119.111 24.3223C120.18 24.3223 121.203 24.444 122.18 24.6874C123.166 24.9308 124.039 25.3081 124.799 25.8193C125.568 26.3304 126.173 26.9876 126.616 27.7909C127.059 28.586 127.28 29.5394 127.28 30.6509V43.2597H122.218V40.6673H122.068C121.759 41.2515 121.345 41.7668 120.827 42.213C120.309 42.6511 119.687 42.996 118.96 43.2475C118.233 43.4909 117.394 43.6126 116.441 43.6126ZM117.97 40.0345C118.755 40.0345 119.449 39.8843 120.05 39.5841C120.652 39.2758 121.124 38.862 121.466 38.3427C121.809 37.8235 121.98 37.2352 121.98 36.578V34.5942C121.813 34.6997 121.583 34.7971 121.291 34.8863C121.007 34.9675 120.685 35.0445 120.326 35.1175C119.967 35.1825 119.607 35.2433 119.248 35.3001C118.889 35.3488 118.563 35.3934 118.271 35.434C117.644 35.5233 117.097 35.6652 116.629 35.8599C116.162 36.0547 115.798 36.3184 115.539 36.651C115.28 36.9756 115.151 37.3813 115.151 37.8681C115.151 38.574 115.414 39.1135 115.94 39.4868C116.475 39.8519 117.151 40.0345 117.97 40.0345Z" fill="#1C1917"/>
<path d="M131.026 43.6126V24.5947H136.005V27.9129H136.198C136.535 26.7325 137.102 25.8411 137.898 25.2385C138.694 24.6277 139.61 24.3223 140.647 24.3223C140.904 24.3223 141.181 24.3388 141.479 24.3718C141.776 24.4048 142.037 24.4502 142.262 24.508V29.1882C142.021 29.1139 141.688 29.0479 141.262 28.9901C140.836 28.9323 140.446 28.9034 140.092 28.9034C139.337 28.9034 138.662 29.0726 138.067 29.411C137.48 29.7412 137.014 30.2035 136.668 30.7978C136.33 31.3921 136.162 32.0772 136.162 32.8531V43.6126H131.026Z" fill="#1C1917"/>
<path d="M156.892 24.4082V28.3535H145.259V24.4082H156.892ZM147.9 19.8711H153.257V37.5264C153.257 38.0113 153.333 38.3894 153.484 38.6607C153.635 38.9237 153.844 39.1086 154.113 39.2155C154.389 39.3223 154.708 39.3758 155.069 39.3758C155.32 39.3758 155.572 39.3552 155.823 39.3141C156.075 39.2648 156.268 39.2278 156.402 39.2031L157.244 43.1115C156.976 43.1937 156.599 43.2882 156.112 43.3951C155.626 43.5101 155.035 43.58 154.339 43.6047C153.048 43.6539 151.916 43.4855 150.944 43.0992C149.979 42.7128 149.229 42.1128 148.692 41.2991C148.156 40.4854 147.891 39.458 147.9 38.2168V19.8711Z" fill="#1C1917"/>
<path d="M160.155 24.7342H165.28V44.8057C165.28 46.2833 164.999 47.4786 164.438 48.3917C163.876 49.3048 163.07 49.973 162.02 50.3964C160.977 50.8197 159.73 51.0314 158.279 51.0314C158.103 51.0314 157.934 51.0272 157.774 51.0189C157.605 51.0189 157.429 51.0148 157.244 51.0065V46.8602C157.381 46.8685 157.501 46.8726 157.605 46.8726C157.701 46.881 157.806 46.8851 157.918 46.8851C158.744 46.8851 159.321 46.7025 159.65 46.3373C159.987 45.9803 160.155 45.4407 160.155 44.7186V24.7342ZM162.705 22.2688C161.952 22.2688 161.302 22.0074 160.757 21.4844C160.212 20.9532 159.939 20.3181 159.939 19.5794C159.939 18.8489 160.212 18.2222 160.757 17.6992C161.302 17.168 161.952 16.9023 162.705 16.9023C163.475 16.9023 164.129 17.168 164.666 17.6992C165.211 18.2222 165.484 18.8489 165.484 19.5794C165.484 20.3181 165.211 20.9532 164.666 21.4844C164.129 22.0074 163.475 22.2688 162.705 22.2688Z" fill="#1C1917"/>
<path d="M177.845 43.6126C175.921 43.6126 174.257 43.2112 172.853 42.4084C171.458 41.5976 170.38 40.4705 169.62 39.0272C168.86 37.5757 168.481 35.8932 168.481 33.9796C168.481 32.0497 168.86 30.3632 169.62 28.9198C170.38 27.4684 171.458 26.3413 172.853 25.5386C174.257 24.7277 175.921 24.3223 177.845 24.3223C179.769 24.3223 181.428 24.7277 182.824 25.5386C184.228 26.3413 185.31 27.4684 186.069 28.9198C186.829 30.3632 187.209 32.0497 187.209 33.9796C187.209 35.8932 186.829 37.5757 186.069 39.0272C185.31 40.4705 184.228 41.5976 182.824 42.4084C181.428 43.2112 179.769 43.6126 177.845 43.6126ZM177.87 39.5988C178.745 39.5988 179.476 39.3556 180.062 38.869C180.648 38.3745 181.09 37.7014 181.387 36.85C181.693 35.9986 181.845 35.0296 181.845 33.9431C181.845 32.8566 181.693 31.8876 181.387 31.0362C181.09 30.1848 180.648 29.5117 180.062 29.0172C179.476 28.5225 178.745 28.2752 177.87 28.2752C176.986 28.2752 176.243 28.5225 175.64 29.0172C175.045 29.5117 174.596 30.1848 174.29 31.0362C173.993 31.8876 173.844 32.8566 173.844 33.9431C173.844 35.0296 173.993 35.9986 174.29 36.85C174.596 37.7014 175.045 38.3745 175.64 38.869C176.243 39.3556 176.986 39.5988 177.87 39.5988Z" fill="#1C1917"/>
<path d="M190.954 43.3083V18.3867H196.28V27.7566H196.442C196.676 27.2537 197.013 26.7426 197.455 26.2234C197.905 25.6961 198.488 25.258 199.205 24.9091C199.93 24.5522 200.83 24.3737 201.906 24.3737C203.306 24.3737 204.598 24.7307 205.781 25.4446C206.965 26.1504 207.911 27.2172 208.619 28.645C209.327 30.0646 209.682 31.8454 209.682 33.9871C209.682 36.0719 209.336 37.8324 208.644 39.2683C207.96 40.6961 207.027 41.7791 205.844 42.5173C204.668 43.2475 203.352 43.6125 201.893 43.6125C200.859 43.6125 199.98 43.4462 199.255 43.1136C198.538 42.781 197.951 42.3632 197.492 41.8602C197.034 41.3491 196.684 40.834 196.442 40.3148H196.205V43.3083H190.954ZM196.167 33.9627C196.167 35.0741 196.325 36.0435 196.642 36.871C196.959 37.6985 197.417 38.3434 198.017 38.8059C198.617 39.2602 199.347 39.4873 200.205 39.4873C201.072 39.4873 201.805 39.2561 202.406 38.7937C203.006 38.3232 203.46 37.6742 203.768 36.8467C204.085 36.0111 204.243 35.0498 204.243 33.9627C204.243 32.8837 204.089 31.9346 203.781 31.1152C203.472 30.2958 203.018 29.655 202.418 29.1925C201.818 28.7301 201.081 28.4989 200.205 28.4989C199.339 28.4989 198.605 28.722 198.005 29.1682C197.413 29.6144 196.959 30.2472 196.642 31.0665C196.325 31.8859 196.167 32.8513 196.167 33.9627Z" fill="#1C1917"/>
<mask id="mask0_288_10003" style="mask-type:luminance" maskUnits="userSpaceOnUse" x="0" y="8" width="48" height="46">
<path d="M0.681641 11.7965C0.681641 9.69977 2.39783 8 4.51487 8H30.1886C39.5429 8 47.1261 15.5106 47.1261 24.7754V37.2246C47.1261 46.4894 39.5429 54 30.1886 54H17.6192C8.26483 54 0.681641 46.4894 0.681641 37.2246V11.7965Z" fill="white"/>
</mask>
<g mask="url(#mask0_288_10003)">
<path d="M0.681641 11.7965C0.681641 9.69977 2.39783 8 4.51487 8H30.1886C39.5429 8 47.1261 15.5106 47.1261 24.7754V37.2246C47.1261 46.4894 39.5429 54 30.1886 54H17.6192C8.26483 54 0.681641 46.4894 0.681641 37.2246V11.7965Z" fill="#008DFF"/>
<path d="M29.0711 24.2783C28.9421 23.079 28.3985 22.1451 27.4404 21.4768C26.4914 20.8084 25.2569 20.4743 23.7368 20.4743C22.6681 20.4743 21.7514 20.6345 20.9867 20.9549C20.2221 21.2754 19.637 21.7102 19.2317 22.2596C18.8263 22.8089 18.619 23.436 18.6098 24.141C18.6098 24.7269 18.7434 25.2351 19.0106 25.6654C19.287 26.0957 19.6601 26.4619 20.1299 26.764C20.5998 27.057 21.1203 27.3042 21.6915 27.5056C22.2627 27.707 22.8385 27.8764 23.4189 28.0137L26.0723 28.6729C27.141 28.9201 28.1682 29.2542 29.154 29.6754C30.149 30.0965 31.038 30.6276 31.8211 31.2685C32.6134 31.9093 33.2399 32.6829 33.7005 33.5893C34.1612 34.4957 34.3915 35.5577 34.3915 36.7754C34.3915 38.4234 33.9677 39.8745 33.1201 41.1288C32.2725 42.3739 31.0472 43.3489 29.4442 44.0539C27.8503 44.7497 25.9202 45.0976 23.6539 45.0976C21.452 45.0976 19.5403 44.7588 17.9188 44.0813C16.3066 43.4038 15.0444 42.4151 14.1323 41.115C13.2295 39.815 12.7412 38.2311 12.6675 36.3634H17.7115C17.7852 37.343 18.0893 38.1578 18.6236 38.8078C19.158 39.4579 19.8536 39.9431 20.7103 40.2636C21.5764 40.584 22.5437 40.7442 23.6124 40.7442C24.7272 40.7442 25.7038 40.5794 26.5421 40.2498C27.3897 39.9111 28.053 39.4442 28.5321 38.8491C29.0112 38.2448 29.2553 37.5398 29.2645 36.7342C29.2553 36.0018 29.0388 35.3975 28.615 34.9214C28.1912 34.4362 27.597 34.0334 26.8323 33.7129C26.0768 33.3833 25.1924 33.0903 24.179 32.834L20.9591 32.01C18.6282 31.4149 16.7856 30.5131 15.4314 29.3046C14.0862 28.087 13.4137 26.471 13.4137 24.4569C13.4137 22.7997 13.8651 21.3486 14.768 20.1035C15.6801 18.8584 16.9192 17.8925 18.4854 17.2058C20.0516 16.51 21.8251 16.1621 23.8059 16.1621C25.8143 16.1621 27.5739 16.51 29.0849 17.2058C30.605 17.8925 31.7981 18.8492 32.6641 20.076C33.5301 21.2937 33.9769 22.6944 34.0045 24.2783H29.0711Z" fill="white"/>
</g>
</g>
</g>
<defs>
<clipPath id="clip0_288_10003">
<rect width="209" height="62" fill="white" transform="translate(0.681641)"/>
</clipPath>
<clipPath id="clip1_288_10003">
<rect width="209" height="46" fill="white" transform="translate(0.681641 8)"/>
</clipPath>
</defs>
</svg>
