<svg width="18" height="18" viewBox="0 0 18 18" fill="none" xmlns="http://www.w3.org/2000/svg">
<g clip-path="url(#clip0_820_35488)">
<path d="M8.99854 16.5C4.85629 16.5 1.49854 13.1423 1.49854 9C1.49854 4.85775 4.85629 1.5 8.99854 1.5C13.1408 1.5 16.4985 4.85775 16.4985 9C16.4985 13.1423 13.1408 16.5 8.99854 16.5ZM6.66604 9.8775L6.67579 9.87225L7.32829 12.0248C7.41228 12.258 7.52778 12.3 7.66804 12.2805C7.80903 12.2618 7.88329 12.186 7.97553 12.0975L8.86654 11.2365L10.779 12.6525C11.1285 12.8453 11.3798 12.7455 11.4668 12.3285L12.7095 6.462C12.8468 5.916 12.6068 5.697 12.183 5.871L4.88329 8.691C4.38529 8.8905 4.38829 9.1695 4.79329 9.29325L6.66604 9.8775Z" fill="#555351"/>
</g>
<defs>
<clipPath id="clip0_820_35488">
<rect width="18" height="18" fill="white"/>
</clipPath>
</defs>
</svg>
