<svg width="20" height="20" viewBox="0 0 20 20" fill="none" xmlns="http://www.w3.org/2000/svg">
<g clip-path="url(#clip0_165_4901)">
<path d="M13.5334 6.46663C12.5584 5.49163 11.2834 4.99996 10 4.99996V9.99996L6.46669 13.5333C8.41669 15.4833 11.5834 15.4833 13.5417 13.5333C15.4917 11.5833 15.4917 8.41663 13.5334 6.46663ZM10 1.66663C5.40002 1.66663 1.66669 5.39996 1.66669 9.99996C1.66669 14.6 5.40002 18.3333 10 18.3333C14.6 18.3333 18.3334 14.6 18.3334 9.99996C18.3334 5.39996 14.6 1.66663 10 1.66663ZM10 16.6666C6.31669 16.6666 3.33335 13.6833 3.33335 9.99996C3.33335 6.31663 6.31669 3.33329 10 3.33329C13.6834 3.33329 16.6667 6.31663 16.6667 9.99996C16.6667 13.6833 13.6834 16.6666 10 16.6666Z" fill="#008DFF"/>
</g>
<defs>
<clipPath id="clip0_165_4901">
<rect width="20" height="20" fill="white"/>
</clipPath>
</defs>
</svg>
