<svg width="18" height="18" viewBox="0 0 18 18" fill="none" xmlns="http://www.w3.org/2000/svg">
<path d="M16.6594 4.24228C16.0868 4.49556 15.4796 4.66191 14.858 4.73583C15.5129 4.34373 16.0031 3.72692 16.237 3.00028C15.6215 3.36595 14.9479 3.62332 14.2454 3.7612C13.6523 3.12854 12.8235 2.77002 11.9564 2.771C10.2245 2.771 8.81978 4.1752 8.81978 5.90787C8.81978 6.15368 8.84798 6.39206 8.9007 6.62206C6.29286 6.49077 3.98256 5.24278 2.43509 3.3448C2.15647 3.8235 2.01004 4.36763 2.01078 4.9215C2.01078 6.00969 2.5647 6.97017 3.40612 7.53249C2.90803 7.51674 2.42091 7.38222 1.98539 7.14004C1.98491 7.15322 1.98491 7.1664 1.98491 7.17885C1.98491 8.69904 3.06615 9.96714 4.5015 10.2551C4.2321 10.328 3.95424 10.3648 3.67517 10.3646C3.47248 10.3646 3.27579 10.3459 3.0846 10.3092C3.48399 11.5551 4.64165 12.4622 6.0147 12.4871C4.9036 13.3591 3.53152 13.8322 2.11908 13.8302C1.86909 13.8304 1.61932 13.8156 1.37109 13.7861C2.80503 14.7079 4.47414 15.1971 6.17882 15.1953C11.9487 15.1953 15.1035 10.4159 15.1035 6.27108C15.1035 6.13547 15.1002 5.99939 15.0942 5.86522C15.7082 5.42158 16.2383 4.872 16.6594 4.24228Z" fill="#555351"/>
</svg>
