<svg width="103" height="39" viewBox="0 0 103 39" fill="none" xmlns="http://www.w3.org/2000/svg">
<path d="M96.9729 3.98766C96.8427 6.80984 96.2316 9.63821 95.0115 12.4316C93.7854 15.2379 91.9972 17.8727 89.6582 20.2537C84.98 25.0136 78.2993 28.5558 70.064 30.6814C53.6093 34.9283 31.1671 33.4678 6.65041 25.25C-17.8667 17.0319 -39.7559 3.63317 -55.3204 -11.3463C-63.1106 -18.8436 -69.2637 -26.6873 -73.3644 -34.3897C-75.4156 -38.2425 -76.9081 -41.9766 -77.8412 -45.5069C-78.7699 -49.0209 -79.1034 -52.1655 -78.9728 -54.9877C-78.8421 -57.8098 -78.232 -60.6382 -77.0113 -63.4316C-75.7848 -66.2379 -73.9975 -68.873 -71.6576 -71.2537C-66.9799 -76.0136 -60.2997 -79.5558 -52.064 -81.6814C-35.6092 -85.9283 -13.1673 -84.4677 11.3497 -76.25C35.8663 -68.0321 57.7555 -54.6332 73.3206 -39.6537C81.1102 -32.1564 87.264 -24.3127 91.3641 -16.6103C93.4157 -12.7575 94.9083 -9.02343 95.8409 -5.49309C96.7696 -1.97916 97.1031 1.16548 96.9729 3.98766Z" stroke="#BFE2FF" stroke-width="12"/>
</svg>
