<svg width="115" height="129" viewBox="0 0 115 129" fill="none" xmlns="http://www.w3.org/2000/svg">
<path d="M181.973 93.9877C181.843 96.8098 181.232 99.6382 180.011 102.432C178.785 105.238 176.997 107.873 174.658 110.254C169.98 115.014 163.299 118.556 155.064 120.681C138.609 124.928 116.167 123.468 91.6504 115.25C67.1333 107.032 45.2441 93.6332 29.6796 78.6537C21.8894 71.1564 15.7363 63.3127 11.6356 55.6103C9.58437 51.7575 8.09188 48.0234 7.15884 44.4931C6.23011 40.9791 5.89656 37.8345 6.02723 35.0123C6.15789 32.1902 6.76799 29.3618 7.98873 26.5684C9.21516 23.7621 11.0025 21.127 13.3424 18.7463C18.0201 13.9864 24.7003 10.4442 32.936 8.31859C49.3908 4.07173 71.8327 5.53227 96.3497 13.75C120.866 21.9679 142.755 35.3668 158.321 50.3463C166.11 57.8436 172.264 65.6873 176.364 73.3897C178.416 77.2425 179.908 80.9766 180.841 84.5069C181.77 88.0208 182.103 91.1655 181.973 93.9877Z" stroke="#BFE2FF" stroke-width="12"/>
</svg>
