<svg width="20" height="20" viewBox="0 0 20 20" fill="none" xmlns="http://www.w3.org/2000/svg">
<path d="M6.91683 18.2501L5.62516 16.0417L3.04183 15.5209C2.88905 15.4931 2.76058 15.4098 2.65641 15.2709C2.55225 15.132 2.51405 14.9862 2.54183 14.8334L2.8335 12.3334L1.18766 10.4167C1.07655 10.3056 1.021 10.1667 1.021 10.0001C1.021 9.83341 1.07655 9.69452 1.18766 9.58341L2.8335 7.68758L2.54183 5.18758C2.51405 5.0348 2.55225 4.88897 2.65641 4.75008C2.76058 4.61119 2.88905 4.52785 3.04183 4.50008L5.62516 3.97924L6.91683 1.75008C7.00016 1.61119 7.11822 1.51397 7.271 1.45841C7.42377 1.40285 7.57655 1.4098 7.72933 1.47924L10.0002 2.54174L12.271 1.47924C12.4238 1.4098 12.5766 1.39938 12.7293 1.44799C12.8821 1.4966 13.0002 1.59035 13.0835 1.72924L14.396 3.97924L16.9585 4.50008C17.1113 4.52785 17.2397 4.61119 17.3439 4.75008C17.4481 4.88897 17.4863 5.0348 17.4585 5.18758L17.1668 7.68758L18.8127 9.58341C18.9238 9.69452 18.9793 9.83341 18.9793 10.0001C18.9793 10.1667 18.9238 10.3056 18.8127 10.4167L17.1668 12.3334L17.4585 14.8334C17.4863 14.9862 17.4481 15.132 17.3439 15.2709C17.2397 15.4098 17.1113 15.4931 16.9585 15.5209L14.396 16.0417L13.0835 18.2709C13.0002 18.4098 12.8821 18.5035 12.7293 18.5522C12.5766 18.6008 12.4238 18.5904 12.271 18.5209L10.0002 17.4584L7.72933 18.5209C7.57655 18.5904 7.42377 18.5973 7.271 18.5417C7.11822 18.4862 7.00016 18.389 6.91683 18.2501ZM7.771 17.1042L10.0002 16.1667L12.2918 17.1042L13.6877 15.0209L16.1252 14.3959L15.8752 11.9167L17.5627 10.0001L15.8752 8.04174L16.1252 5.56258L13.6877 4.97924L12.2502 2.89591L10.0002 3.83341L7.7085 2.89591L6.31266 4.97924L3.87516 5.56258L4.12516 8.04174L2.43766 10.0001L4.12516 11.9167L3.87516 14.4376L6.31266 15.0209L7.771 17.1042ZM9.10433 10.9792L7.5835 9.39591C7.4585 9.25702 7.30572 9.18758 7.12516 9.18758C6.94461 9.18758 6.78489 9.25008 6.646 9.37508C6.50711 9.51397 6.43766 9.67369 6.43766 9.85424C6.43766 10.0348 6.50711 10.1945 6.646 10.3334L8.66683 12.3334C8.79183 12.4584 8.93766 12.5209 9.10433 12.5209C9.271 12.5209 9.41683 12.4584 9.54183 12.3334L13.3543 8.54174C13.4793 8.41674 13.5418 8.26397 13.5418 8.08341C13.5418 7.90285 13.4724 7.75008 13.3335 7.62508C13.2085 7.51397 13.0592 7.46188 12.8856 7.46883C12.712 7.47577 12.5696 7.5348 12.4585 7.64591L9.10433 10.9792Z" fill="#555351"/>
</svg>
