<svg width="169" height="168" viewBox="0 0 169 168" fill="none" xmlns="http://www.w3.org/2000/svg">
<g clip-path="url(#clip0_761_35682)">
<path d="M161.5 84L144.42 64.47L146.8 38.64L121.53 32.9L108.3 10.5L84.5 20.72L60.7 10.5L47.47 32.83L22.2 38.5L24.58 64.4L7.5 84L24.58 103.53L22.2 129.43L47.47 135.17L60.7 157.5L84.5 147.21L108.3 157.43L121.53 135.1L146.8 129.36L144.42 103.53L161.5 84ZM66.16 112.07L49.5 95.27C46.77 92.54 46.77 88.13 49.5 85.4L49.99 84.91C52.72 82.18 57.2 82.18 59.93 84.91L71.2 96.25L107.25 60.13C109.98 57.4 114.46 57.4 117.19 60.13L117.68 60.62C120.41 63.35 120.41 67.76 117.68 70.49L76.24 112.07C73.37 114.8 68.96 114.8 66.16 112.07Z" fill="#26CF50"/>
</g>
<defs>
<clipPath id="clip0_761_35682">
<rect width="168" height="168" fill="white" transform="translate(0.5)"/>
</clipPath>
</defs>
</svg>
